<?xml version="1.0" encoding="UTF-8" standalone="no"?>
<!-- Created with Inkscape (http://www.inkscape.org/) -->

<svg
   width="10.16mm"
   height="128.5mm"
   viewBox="0 0 10.16 128.5"
   version="1.1"
   id="svg5"
   inkscape:version="1.1 (c4e8f9ed74, 2021-05-24)"
   sodipodi:docname="Gamma.svg"
   xmlns:inkscape="http://www.inkscape.org/namespaces/inkscape"
   xmlns:sodipodi="http://sodipodi.sourceforge.net/DTD/sodipodi-0.dtd"
   xmlns="http://www.w3.org/2000/svg"
   xmlns:svg="http://www.w3.org/2000/svg">
  <sodipodi:namedview
     id="namedview7"
     pagecolor="#ffffff"
     bordercolor="#666666"
     borderopacity="1.0"
     inkscape:pageshadow="2"
     inkscape:pageopacity="0.0"
     inkscape:pagecheckerboard="0"
     inkscape:document-units="mm"
     showgrid="false"
     inkscape:snap-page="true"
     inkscape:snap-midpoints="true"
     inkscape:snap-object-midpoints="true"
     inkscape:snap-smooth-nodes="true"
     inkscape:snap-intersection-paths="true"
     inkscape:zoom="3.920673"
     inkscape:cx="47.440835"
     inkscape:cy="412.81178"
     inkscape:window-width="1911"
     inkscape:window-height="1043"
     inkscape:window-x="3844"
     inkscape:window-y="16"
     inkscape:window-maximized="1"
     inkscape:current-layer="layer2" />
  <defs
     id="defs2" />
  <g
     inkscape:label="Layer1"
     inkscape:groupmode="layer"
     id="g3368"
     style="display:inline">
    <g
       id="g9246"
       transform="rotate(180,5.0776729,64.192096)">
      <rect
         style="display:inline;fill:#cccccc"
         id="rect846-7"
         width="10.16"
         height="128.5"
         x="1.9073486e-06"
         y="1.9073486e-06" />
      <path
         style="fill:#a02c2c;stroke-width:0.0550107"
         d="M 6.531336,74.891984 C 5.882068,72.802267 4.480447,69.511014 5.864305,67.302813 6.101854,62.11788 3.998005,62.122066 2.976256,60.902527 1.310918,60.493989 2.453579,53.435449 0.95139701,51.62864 c -0.51245,-1.433519 -1.245762,-2.629834 -1.017607,-5.294958 -0.2688,-4.207164 1.21038699,-0.539564 1.90983499,-1.882693 1.613364,0.749008 3.290165,0.277988 4.813128,2.655958 0.666597,1.667151 1.397599,3.157861 1.664529,-0.735995 0.498549,-1.173144 1.989262,-1.499592 0.835963,0.980039 -0.882813,4.592089 1.611905,0.234484 0.946846,5.091313 0.0017,2.289168 6.07e-4,4.578349 9.25e-4,6.867523 -0.525504,1.484592 -2.533454,4.106198 -1.3506,6.242623 0.626305,0.937072 1.654681,-0.55678 1.350599,2.941787 0.075,2.985035 0.09133,6.09795 -0.983552,3.660943 -1.191985,-1.828317 -1.580919,3.395593 -2.590118,2.736804 z M 8.516709,54.653769 c -0.241823,-2.457161 -2.937744,-2.362167 -1.08171,-1.372864 0.459324,-0.319586 0.697799,1.652592 1.08171,1.372864 z M 6.12835,49.988214 C 7.667615,47.917703 3.782899,45.1077 4.74222,47.554566 5.244133,48.157408 5.544101,50.70721 6.12835,49.988214 Z M 9.4515,44.995379 C 9.713039,43.023883 10.299054,41.388778 10.104985,44.53325 9.935439,44.944254 9.665767,45.103396 9.4515,44.995379 Z M 3.171475,44.409845 C 2.328393,43.500038 3.806562,40.708073 3.621898,38.371549 4.217208,35.33555 5.429309,42.15276 5.338959,43.348396 4.626628,43.956589 3.919302,44.77488 3.171475,44.409845 Z m 6.692568,-9.551458 c -0.829309,-0.557488 -1.31548,-2.819846 0.0035,-2.60862 0.639796,-1.642185 0.319024,4.29245 -0.0035,2.60862 z M 9.991161,29.818324 C 9.097301,25.368997 6.971713,21.953621 5.884725,18.118125 c 0.88498,-3.060862 2.593172,4.205051 3.538808,5.333671 0.944463,-0.0011 0.723927,6.464543 0.593935,6.537901 z M 9.271134,11.18338 C 7.697456,10.227642 6.267732,7.348406 4.964696,4.244327 4.399172,3.214798 4.153062,1.035055 4.952946,2.789138 c 1.582476,1.961416 3.060876,4.926145 4.442745,8.170433 0.102766,0.30315 -0.09452,0.445597 -0.124553,0.223809 z M 4.206081,1.905858 c -0.09298,-0.462797 0.168857,0.601826 0,0 z"
         id="path5042"
         sodipodi:nodetypes="scccccccccccccsscccccccccccccccccccccccccccc" />
      <path
         style="fill:#501616;stroke-width:0.0550107"
         d="m 5.3095908,68.81441 c 0.339797,-1.062022 0.35385,-0.353209 0,0 z m 0.335986,-0.856282 c 0.17478,-1.240708 0.402617,-0.519262 0,0 z m 0.219625,-1.290504 c -0.657858,-4.812529 -2.461326,-4.386496 -3.684051,-6.370764 -0.934942,-1.73362 0.136892,-6.661019 -1.21120102,-7.966035 -0.58958,-0.386267 -1.618544,-5.460211 -0.558005,-2.196832 0.91051402,2.13038 1.82759502,4.983764 1.56585002,9.025936 1.080705,3.18021 2.868606,1.736862 3.838633,5.67599 0.126853,-0.04247 0.207697,2.740114 0.04877,1.831705 z m 2.416143,-11.566605 c -0.349198,-1.605658 -2.828957,-2.376349 -0.769809,-2.761028 0.08284,-0.427786 1.76353,2.715358 0.769809,2.761028 z m -2.674535,-4.626734 c -0.459181,-1.11425 -2.082399,-4.741989 -0.378657,-3.86321 0.784807,-0.07553 2.454375,3.792346 0.378657,3.86321 z m 3.734615,-0.608518 c -1.323844,-0.465526 -0.324933,-6.79095 -0.452873,-4.207557 -0.589864,0.553835 -1.110097,6.248068 -2.000246,2.294857 -1.474541,-2.678917 -3.010169,-2.87032 -4.622569,-3.322048 -0.660467,-0.820272 -2.45849802,1.747093 -2.33192502,-2.269828 -0.220835,-3.604795 0.280542,-1.782901 0.812929,-3.180914 1.10278302,1.039936 1.93200202,-1.132387 0.78355702,-1.57268 -0.60427202,-1.672224 -1.78078302,2.255531 -1.59648602,-1.504905 0.09878,-2.75301 1.61731702,-2.419426 2.33520502,-3.747718 1.470182,-0.298973 2.050859,5.448597 3.062604,8.134381 0.89788,1.335892 1.885412,1.994826 2.819263,2.950293 0.789663,0.438408 1.639959,-1.168695 1.9322012,-3.754986 0.290466,2.415204 -0.3333282,3.61143 -0.6318742,5.309113 0.9829882,-1.902068 0.6745982,3.317551 0.482998,4.720302 -0.19176,0.171852 -0.395594,0.297181 -0.592784,0.15169 z m -5.231942,-5.489182 c 0.631571,-0.496538 2.007302,-0.822638 0.905978,-3.429773 -0.314605,-2.868133 -1.456945,-5.346987 -1.566607,-0.79498 -0.008,1.934464 -1.23999,4.443033 -0.0075,4.300993 0.222775,0.01826 0.4466,0.01751 0.668172,-0.07624 z m 2.944367,-7.986737 c -0.565065,-0.456034 -1.152613,-2.628122 -0.09217,-2.024946 2.486887,-5.05138 2.356391,-0.771822 1.890854,2.028415 -0.273687,0.351954 -1.519994,0.235237 -1.798688,-0.0035 z m 2.913731,-1.689073 c -0.56479,-1.255103 -2.587587,-1.187611 -1.167057,-4.010462 1.057114,-3.076134 -1.386983,-6.258342 -2.061817,-7.990629 -0.811807,-0.880206 -1.278151,-2.644011 -0.28563,-4.161296 1.526795,-3.078114 -1.270271,-3.193386 -1.460308,-6.94388 -0.782138,-4.3812378 -1.910453,-8.2766788 -3.369178,-9.7826638 -1.12257702,-1.98687799 -0.05426,-1.47703499 0.503672,-1.53129699 2.643837,-0.129495 5.30195,0.238424 7.9368442,-0.134803 0.07815,8.38248899 0.01364,16.79731479 0.02565,25.19400379 -1.1147542,-2.141138 -2.0651952,-5.145147 -3.1370602,-7.5066 -1.068095,2.316621 1.147797,4.960665 1.589335,7.108153 0.860947,1.490697 2.5362232,7.81518 0.593986,7.82287 0.05606,0.383061 1.4170872,1.887284 0.831563,1.936604 z M 9.4195458,11.184854 C 8.5308948,8.5311042 7.3916448,6.7612482 6.3480938,4.7961002 c -0.552477,-0.950312 -2.90055,-4.66531399 -1.383376,-0.551797 1.32739,3.189924 2.793865,6.0457378 4.39793,7.0409638 l 0.0569,-0.10041 z M 4.2710878,2.0418092 c -0.09992,-0.392969 -0.147855,-0.283307 0,0 z m -4.33727602,4.986964 c 0.114664,-3.002505 -0.471923,-8.314753 0.903406,-6.73290399 0.79243802,1.30069399 0.01362,2.93210599 0.01687,5.19351799 -0.840498,2.326301 -0.0259,7.1721048 -0.920272,8.4704388 z"
         id="path5040"
         sodipodi:nodetypes="ccccccccccccccccccccccccccccccccscccsscccccccccccccccccsccccsccccccc" />
      <path
         style="fill:#800000;stroke-width:0.0550107"
         d="m 5.1747094,64.591145 c -0.984502,-3.58512 -2.81972,-1.838494 -3.663807,-5.868586 0.618457,-4.34461 -1.18115699,-6.557386 -1.49911099,-8.610949 1.05781199,1.891231 2.14474399,4.72279 1.77210199,9.147809 1.044574,3.187539 2.791524,2.024867 3.733214,5.749008 4.05e-4,0.738147 -0.309976,-0.373155 -0.342398,-0.417282 z m 2.807499,-21.289599 c -1.190165,-1.598488 -2.754313,-1.342618 -3.450259,-5.712129 -0.727177,-4.291401 -2.377437,-6.312095 -3.70583099,-3.108852 -0.866137,2.359351 -1.15897,-1.60207 -0.802843,-3.881557 1.10308799,-0.819758 2.62394899,-2.713921 3.47393299,0.865974 0.931196,2.632519 1.162802,8.22903 2.560715,8.565125 0.908483,1.473802 3.271876,-0.184365 1.206496,-1.826944 -1.133993,-0.554997 -1.364907,-4.848805 -2.527097,-6.411104 -0.426494,-1.93794 -2.034419,-1.946301 -1.863631,-3.909622 0.705826,0.712493 2.064616,0.08653 0.893417,-2.542561 -0.580728,-1.106134 -0.886257,-2.640686 -0.447453,-4.15017 -0.802053,-3.80704 -2.90472299,0.125912 -3.38139399,-4.629314 -0.199381,-2.847384 0.575655,-3.837675 0.134293,-7.0246389 0.47233,-2.507716 0.375437,-5.893206 0.784535,-7.706044 -0.152435,-2.02456098 -0.919638,-1.44491298 0.16930999,-1.58707998 0.675723,-0.0134 2.676993,-0.0046 0.983066,0.05848 -0.575688,0.01668 -1.42364799,-0.310468 -0.385361,1.51099198 1.571064,1.570074 2.692692,5.972685 3.539391,10.5838709 0.280692,3.171394 2.794208,3.218347 1.28958,6.142409 -1.525634,2.44878 0.439112,4.113435 1.048538,5.661788 1.096561,1.655983 2.441002,6.062634 0.737921,8.270458 -0.585686,1.050226 -1.207644,2.350893 -1.892932,1.977395 0.779405,3.41734 2.221858,-0.523947 2.437782,4.076335 0.984003,4.023693 1.7579366,-4.458336 0.175237,-3.849543 -0.791594,-1.030056 1.1640916,-1.668605 1.1460326,0.838851 0.17174,3.652092 -0.2733776,7.624426 -1.4885706,7.955526 -0.212207,0.0881 -0.42861,0.02013 -0.634875,-0.167649 z m -6.968585,-2.008323 c -1.22529199,1.386411 -1.59868099,-5.080464 -0.19093399,-4.287935 0.69705099,-1.653366 2.86623599,2.294572 1.70932199,4.294794 -0.453679,0.08552 -1.05709,0.206129 -1.518388,-0.0069 z M 6.2205684,0.22158612 c 0.708644,-0.01175 2.513071,-0.02857 2.486707,0.02235 -0.733854,-0.0016 -2.291491,0.02675 -2.486707,-0.02235 z"
         id="path5038"
         sodipodi:nodetypes="cccccccccccccccccccccccccccccccccccccccc" />
      <path
         style="fill:#ff5555;stroke-width:0.0550107"
         d="m 5.5085251,100.98421 c -0.582986,0.24971 -1.703445,-1.708044 -0.693522,-1.310269 1.927056,-1.181216 3.060389,1.563489 1.468446,1.158619 -0.200456,0.2185 -0.553337,0.32921 -0.774924,0.15165 z m 4.320512,-12.447614 c -1.036781,-3.312226 -2.108392,-6.488308 -3.325528,-9.007073 -1.005867,-2.630782 -2.512636,-4.783568 -3.710798,-4.000758 -1.002113,-1.487473 0.230789,-2.666164 0.562051,-2.596192 0.631996,-2.622838 2.132778,-5.657463 1.959362,-8.183091 1.500072,2.663749 -0.822601,4.428244 0.438683,6.8235 0.520935,3.924477 1.407522,3.839488 2.137287,0.473127 0.634978,-0.571709 2.3699429,-0.445223 2.2149369,2.863682 0.152614,2.114358 -1.6049589,1.338043 -0.5353939,4.176933 0.9954969,1.633452 0.366699,6.352281 0.5224179,9.4538 0.07516,1.250642 -0.1332519,0.139287 -0.2630179,-0.0039 z M 9.4788741,66.076599 c -1.25919,0.750877 -1.439654,-3.991257 -0.228333,-4.831982 0.745908,-2.342224 0.9602859,-2.024729 0.8462889,1.02822 -0.08111,2.036626 0.354656,4.633684 -0.6179559,3.803762 z M 8.3000311,36.056071 c 0.185877,-1.314708 -0.888703,-2.989726 -0.185317,-3.426276 0.752491,-0.16175 0.992139,2.93141 0.185317,3.426276 z"
         id="path5036"
         sodipodi:nodetypes="ccccscccccccccssccccccc" />
      <path
         style="fill:#ffaaaa;stroke-width:0.0550107"
         d="m 2.1483202,109.67481 c -1.15203105,-1.5877 -0.06285,-5.78049 0.06814,-8.42267 0.650754,-5.116567 4.004348,-6.191126 3.8683,-2.805465 1.339581,0.08916 2.681151,0.394734 4.0202658,0.107641 0.089,2.947714 -1.4768618,0.483495 -1.9548278,3.078214 -1.266796,1.55795 -2.438457,3.84343 -3.567963,6.32552 -0.754104,1.20488 -1.597122,2.04132 -2.433917,1.71676 z m 3.825768,-8.97279 c 0.676238,-0.004 1.140606,-0.23251 0.24462,-1.000734 -0.543106,-0.645471 -2.697612,0.260346 -1.051745,1.037454 0.273841,0.19036 0.535603,0.48237 0.807125,-0.0367 z M 0.34615815,97.520483 c -0.876056,0.356386 -0.547411,-7.037041 0.281714,-3.973552 0.73446005,1.087074 3.13860905,0.01569 2.95987205,2.267301 -0.849144,2.014914 -2.308541,2.041312 -3.24158605,1.706251 z M 9.6926822,89.751639 c -1.184523,-2.624322 -2.509756,-4.552438 -3.470603,-8.19769 -0.999515,-2.830927 -2.139605,-5.767814 -3.513466,-4.771237 -1.86635205,-1.299802 -1.034304,-7.171258 0.271734,-6.145107 1.413666,-0.504403 2.165303,-6.998097 0.492405,-7.884536 -1.070947,-1.245461 -2.61246705,-2.615857 -2.014354,-7.610814 -0.164582,-2.200288 -2.37547705,-6.104475 -0.85476905,-3.080534 1.52457505,1.744702 0.297734,9.131084 2.15305005,9.269643 0.882738,0.557195 3.592799,2.721234 2.224349,6.935631 -0.868844,1.125281 -1.190948,5.71498 -1.962594,5.057363 -0.922092,1.084014 -0.182729,2.96795 0.3083,1.820793 1.521489,0.842963 2.874589,3.08749 4.066208,6.445728 1.030904,1.985999 1.741518,5.354234 2.7120858,7.598253 0.01813,1.779667 0.03897,1.612388 -0.4123458,0.562507 z m 0.05784,-10.225951 c -1.296048,-1.062792 0.3314938,-5.647301 0.3545068,-2.396327 -0.04639,0.961795 0.181858,4.241329 -0.3545068,2.396327 z M 6.8699162,40.84603 c -1.468822,0.483226 -2.304732,-4.17367 -2.975397,-7.852155 -0.671278,-4.292047 -2.039175,-3.472193 -3.21626005,-2.501157 -1.208968,2.492903 -0.667273,-4.168789 0.270815,-1.928989 1.20180405,0.900346 0.0781501,-5.010512 1.26657105,-2.617437 0.744423,1.042471 1.514116,-0.847074 0.487029,-2.342784 -0.364564,-1.305251 -2.05652105,-4.981357 -1.76867105,-4.602736 0.70314805,0.476844 3.19689805,-0.127675 2.31113905,3.814856 0.471038,1.692866 1.868296,6.06398 0.185982,5.165671 -1.71796,0.187214 1.189669,2.501828 1.600258,4.533692 1.131277,1.789439 1.365062,5.474074 2.663767,5.613955 1.681592,2.009945 -0.225135,3.096187 -0.825233,2.717084 z M 2.2505492,20.4978 c -0.12199,-0.214293 -0.02794,0.226553 0,0 z m 6.756232,19.060523 c -1.237897,-2.393496 0.139119,-7.722851 0.896183,-3.073204 0.2857908,1.823023 -0.42427,3.603529 -0.896183,3.073204 z M 2.4894782,0.12259468 c 1.782028,-0.007 3.564171,-0.0326 5.346126,0.0183 -1.87942,0.011 -3.758848,0.0109 -5.638268,0 z"
         id="path5034"
         sodipodi:nodetypes="ccccccccccsccccccccccccccccccccccccccccccccccccccccccc" />
      <path
         style="fill:#a02c2c;stroke-width:0.0550107"
         d="m 1.8886422,111.84196 c -0.530161,-1.45573 -1.89173096,-0.38785 -1.95486496,-2.58964 -0.159117,-3.60006 0.82332,-4.79356 1.24383396,-7.70972 0.617492,-3.964373 -1.43629396,0.0322 -1.24379796,-3.062374 0.117393,-2.645231 1.82661396,0.177373 2.49259596,-1.462183 0.68094,-0.35509 1.539915,-2.825954 0.321826,-2.504574 -0.849248,-0.703787 -2.60751696,0.925205 -2.81442196,-2.795737 1.59630196,3.350318 3.58809096,1.486631 5.30377396,3.136575 -0.73767,0.160819 -1.215854,2.235895 -0.175543,2.135343 1.424729,0.437941 2.939383,1.024181 4.309926,-0.296493 -0.154179,-0.783966 1.2736068,-0.493214 0.6561048,1.873784 -2.0881458,0.346843 -4.1789008,-0.256339 -6.2623488,-0.530421 -1.45302,0.180546 -1.594966,6.08138 -2.142441,9.50114 0.37112,4.28316 2.129685,1.4853 2.958954,0.42028 1.185452,-2.68194 2.093927,-5.21574 3.420255,-6.95321 0.342299,-2.118588 2.7746348,-1.222104 1.835152,0.40594 -0.97171,0.28493 -0.820615,5.85686 -2.126696,4.81768 -1.531822,0.20994 -2.696728,4.39102 -4.209769,4.99808 -0.522285,0.50078 -1.072484,0.69384 -1.612539,0.61553 z m 8.033123,-1.12242 c -1.082913,0.11416 0.5743018,-6.48123 0.1832648,-1.88724 -0.08761,0.37229 0.164827,2.671 -0.1832648,1.88724 z m -0.07475,-19.244035 c -1.36683,-2.676337 -2.939848,-3.776076 -4.445503,-5.08085 -0.843639,-0.291557 -1.692407,-0.14183 -2.538617,-0.151405 -0.341092,-2.670874 0.291183,-6.465498 0.976875,-7.53036 -0.956091,-0.115473 -3.02997296,-1.64544 -2.205675,-6.628844 0.805084,-2.244484 3.269552,-3.028343 1.914159,-8.272445 -0.895338,-2.415498 -2.99371296,-2.814373 -2.093596,-8.318928 -0.49748396,-2.567099 -0.296076,-2.204107 0.05257,0.0061 -0.72993496,5.284181 1.367284,5.460526 2.34195,7.088294 1.98994,2.418592 -0.21991,9.162931 -1.518323,8.823749 -1.38238796,2.25522 -0.07967,6.511377 1.011344,4.61669 1.3279,0.197577 2.509624,4.706884 3.48696,7.400378 0.95471,2.987863 2.205005,4.610348 3.2605918,7.174687 -0.0072,0.561624 0.109253,2.13939 -0.2427368,0.872965 z M 0.85013924,52.899307 c -0.480015,-1.093398 -1.368231,-3.133985 -0.345936,-0.943206 0.07876,0.0539 0.80687796,2.157137 0.345936,0.943206 z M 2.42903e-7,29.072947 C -0.66682076,24.171407 1.3004672,27.012817 0.76012024,22.494887 c -0.409165,-2.05949 1.32564196,3.52507 0.75864996,0.29656 -0.463727,-1.51315 -1.84193896,-6.10436 -0.310256,-3.40196 0.399553,1.95932 2.28303,4.83465 2.198797,6.83825 -0.689929,1.42604 -1.84197,-2.16568 -1.689417,1.97886 -0.562132,1.58087 -1.22170696,0.0132 -1.717893957097,0.86635 z M 1.8523702,19.844997 c 0.13325,-0.14599 0.01484,0.19238 0,0 z"
         id="path5032"
         sodipodi:nodetypes="ccccccccccccccccccccccsccccccccccccsscccccccccccc" />
      <path
         style="fill:#de8787;stroke-width:0.0550107"
         d="m -0.06618711,113.51572 c -0.181773,-2.68409 -0.35643,-4.13715 0.945982,-3.01513 1.06490901,1.72035 2.54986201,0.36337 1.83354101,1.9479 -0.874916,1.46499 -1.85942101,2.59075 -2.75585001,4.05212 -0.0481,-0.98104 -0.0095,-1.99535 -0.02367,-2.98489 z m 0,-10.11468 c 0.11614,-1.18481 -0.264152,-3.971607 0.251991,-3.865596 0.93154101,-0.961075 2.14381301,0.481696 0.88184901,3.462286 -0.45459601,1.77989 -1.38143501,6.4524 -1.13384001,1.54321 z m 10.07958511,2.01468 c -0.6017821,0.40872 -0.2641021,-3.2998 -0.1832661,-3.96449 0.4679231,-0.84961 0.2728281,4.00065 0.1832661,3.96449 z M 9.7843169,95.189189 c -1.300964,-0.09718 0.8524061,-0.26854 -0.134322,-2.130737 -0.992207,-2.831041 -2.580294,-3.836564 -3.561524,-4.996248 -0.756692,-0.446546 0.31258,-0.303722 -0.103762,-0.683228 0.385987,-0.791363 1.841462,0.998278 2.664547,1.59099 0.55902,1.203659 1.6264891,1.584375 1.4557371,4.679129 -0.05082,0.643634 0.146004,2.519792 -0.3206761,1.540094 z m -3.527854,-7.41028 c 0.115289,-0.38465 -0.236836,0.338219 0,0 z m 0.04662,-0.47624 c -0.137557,0.126959 -0.05613,0.275153 0,0 z m 2.732897,7.708699 c 0.26643,-0.315224 -0.08736,0.37685 0,0 z m -0.381802,-0.09907 c 0.425851,-0.353521 0.159667,0.364661 0,0 z M 0.68214289,89.96546 c -1.318097,-1.173189 -0.274719,-5.11991 0.50908601,-6.076602 1.150656,-1.312211 1.216229,-5.543115 0.06924,-7.101664 -1.04131801,-4.445214 0.428173,-7.199039 1.412007,-8.541119 0.72332,-6.271071 -1.76069601,-5.324879 -2.01596401,-9.740591 0.61821801,-3.037338 -0.250395,-5.040322 -0.721737,-7.023316 0.845736,-0.471241 1.94489501,4.421294 1.32820201,7.853587 0.747872,3.170916 3.094274,2.838553 2.755638,8.578082 -0.722198,2.834956 -3.26464001,2.65756 -2.055808,8.434721 0.343242,2.452288 2.648425,1.304127 1.445164,4.816372 -0.755067,2.215503 -0.184833,5.856137 -0.435015,5.425077 -0.515091,0.467556 -1.414629,1.136233 -1.844714,2.547348 -0.114687,0.607939 -0.18575001,1.094456 -0.44610101,0.828105 z M 5.7601159,88.010518 c 0.168347,-0.162611 0.03091,0.17386 0,0 z M 0.48079489,26.979674 c -1.011409,0.54001 -0.398896,-5.06315 -0.546986,-7.69413 -0.03234,-3.87129 1.22160601,1.96197 1.69519001,2.39015 1.063689,1.99188 -0.240146,3.4696 -0.73562001,1.94658 0.10746401,1.16354 0.32039801,3.6398 -0.412584,3.3574 z"
         id="path5030"
         sodipodi:nodetypes="cccccccccccccccccccccccccccccccccccccccccccccccc" />
      <path
         style="fill:#ff5555;stroke-width:0.0550107"
         d="m 2.6216969,112.75731 c 0.505954,-2.06923 1.489449,-1.90836 2.252126,-3.50998 1.098181,-2.48493 2.433115,-3.24202 3.688341,-4.04818 0.340076,-1.07766 1.158821,-5.555636 1.257001,-3.05256 0.10782,3.3005 1.0894601,3.23608 0.0655,6.44929 -0.915716,1.94819 1.1624901,3.05232 -0.36783,2.84261 -1.314806,0.95059 -2.28733,-3.35201 -3.509799,-0.99527 -1.079067,1.53321 -2.235133,2.04843 -3.385309,2.31409 z m 3.014807,-15.188411 c -0.720596,0.18868 -2.400188,-0.896882 -0.794018,-2.621896 -0.965922,-1.185795 -2.043598,-0.682559 -3.090302,-1.251579 -0.519239,0.633307 -2.41346599,-2.561808 -1.58187599,-2.956664 2.24981699,4.251271 4.90508999,2.546165 7.34947199,3.753001 0.833414,0.175181 1.304768,0.543704 1.99198,0.606636 1.4092251,0.427149 -0.169512,2.170378 -0.09775,1.959162 -0.944831,1.09219 -2.777529,0.488315 -3.777504,0.51134 z M 1.2754169,91.448952 C 0.15550791,90.15092 -2.0867848e-6,89.50861 1.1356749,88.102 c 0.9951,-1.29394 1.441056,-2.27164 2.529,-2.21447 0.619019,-0.22018 2.521468,0.52354 2.806042,1.14132 -0.608436,0.0401 0.87785,1.78913 0.219188,1.67586 0.734409,0.75235 -2.153502,-0.70057 -2.540136,0.0107 -1.085582,-0.0413 -1.791241,3.934851 -2.874352,2.733577 z m 4.703766,-2.688702 c 0.133252,-0.146 0.01484,0.19237 0,0 z m 0.200912,-0.98134 c 0.177616,-0.48855 0.04078,0.41278 0,0 z m 0.06821,-0.4086 c 0.164449,-0.29868 -0.0743,0.30643 0,0 z m -2.729786,-8.26045 c -1.383289,-1.40179 1.166763,-0.70134 0,0 z"
         id="path5028"
         sodipodi:nodetypes="cccccccccccccccccccccccccccccccc" />
      <path
         style="fill:#e9afaf;stroke-width:0.0550107"
         d="m -0.06618634,117.46716 c 0.652829,-2.9507 2.23615104,-4.75283 3.36272304,-5.46467 1.378712,0.0645 2.485433,-2.55612 3.830016,-2.8464 0.649673,2.64121 2.866254,0.93963 2.8862643,3.45471 -2.5288823,0.62783 -5.0388833,2.35307 -7.5576793,3.28157 -0.732884,-0.39759 -2.24768304,3.18089 -2.52132404,1.57479 z M 8.4709167,94.756834 c -2.024555,-0.508243 -4.591533,-0.288614 -6.824604,-1.712369 -1.30402704,-0.519871 -2.07644704,-3.335201 -1.70542804,-7.968482 0.186962,-2.333819 2.49924704,-3.334965 0.917286,-6.445613 -1.643894,-0.562723 -0.699534,-8.486548 0.68238304,-8.880498 1.370068,-2.14376 0.510233,-7.48677 -0.91998204,-7.65851 -0.717461,-0.97243 0.344505,-7.25456 -0.558673,-6.3367 -0.212821,-3.09334 0.05964,-4.36795 0.610639,-1.67831 0.58278604,2.24391 -0.317785,6.5774 1.11278604,7.46733 1.462966,0.28831 1.970425,7.77708 0.108596,8.43314 -1.60330904,1.635048 -0.433047,7.962103 0.646566,9.823304 -0.01481,4.203084 -2.12857004,4.13264 -2.48449504,7.628429 -0.05254,2.462603 1.40411004,4.251682 2.08433104,3.322597 1.5685,-3.535878 3.643304,-3.262871 5.38024,-1.237036 0.735324,0.951251 2.5916563,2.584715 2.449655,5.224808 -0.430235,0.288274 -1.422607,0.453279 -1.4993,0.0179 -0.482544,-2.739309 0,5e-6 0,5e-6 z"
         id="path5026"
         sodipodi:nodetypes="ccccccsccccccccccccccsss" />
      <path
         style="fill:#c83737;stroke-width:0.0550107"
         d="m -0.06581084,120.10206 c -0.155065,-3.75787 1.54761704,-3.41779 2.26242904,-4.64319 1.642958,-0.87001 3.306459,-1.22733 4.951321,-2.01554 0.889885,0.42012 2.408191,-1.87918 2.9570888,-0.17817 -0.8783078,1.88138 -2.4723778,1.47597 -3.5951678,2.96277 -1.352471,1.18656 -2.70478,2.79551 -4.089876,3.12797 -0.786651,-0.0116 -1.81697004,1.27602 -2.47037104,2.28269 l -0.01179,-0.58716 z m -3.78e-4,-43.088367 c 0.0385,-2.39384 -0.06638,-5.393091 0.066189997151,-7.645981 C 0.84915616,69.324212 2.0176552,66.538682 0.77036216,64.095312 c -1.357001,-0.16216 -0.65627,-6.105 -0.711661,-8.65889 0.914846,0.68118 -0.05870000285,6.86574 1.35432004,6.74903 2.421079,2.9686 0.258302,8.31495 -0.84144804,9.3265 -0.977176,3.092081 -0.0437,6.773656 0.97381304,7.506714 C 2.2390952,81.953551 -0.71194884,89.470999 1.1571505e-6,81.058956 -0.00129884,79.748224 -0.06612884,78.324435 -0.06618884,77.013693 Z"
         id="path5024"
         sodipodi:nodetypes="cccccccccccccccccc" />
      <path
         style="fill:#6c5353;stroke-width:0.0550107"
         d="m 3.5074839,128.3005 c 0.741317,-4.42835 2.115602,-7.02466 3.472067,-8.36674 0.886772,-0.19282 2.599572,-2.23945 3.1123121,-1.19007 0.02301,3.21787 0.0096,6.43728 0.01317,9.65588 -2.1990411,-0.0311 -4.3993281,0.0814 -6.5975471,-0.0991 z m -3.57367098,-3.69343 c -0.328223,-4.0899 1.065206,-5.5423 1.86148898,-5.31935 1.080795,-0.81593 2.51637,-0.9221 3.583997,-2.25638 1.85355,-1.8242 3.163006,-2.62468 4.7144911,-3.01969 -0.044,2.63084 -1.2184221,1.62481 -1.7750381,3.04804 -2.719343,2.33199 -5.525402,6.64596 -8.16620398,9.738 -0.383893,1.60755 -0.150874,-1.61761 -0.218735,-2.19062 z m 6.71e-4,-59.590597 c -0.07408,-2.27172 0.1666,-10.96947 0.121009,-4.53832 -0.104843,3.54888 2.56841398,4.17609 0.942276,8.17651 -0.755725,0.56676 -1.31582,2.086 -1.062362,-1.76283 l -7.52e-4,-0.90514 z m 0.946199,1.15828 c -0.09374,-0.53533 -0.05581,0.67205 0,0 z"
         id="path5022"
         sodipodi:nodetypes="ccccccccccccccccccccc" />
      <path
         style="fill:#501616;stroke-width:0.0550107"
         d="m 0.15254781,126.79769 c 0.810854,-2.88865 1.50332899,-1.44684 3.09261999,-4.00237 2.4998,-3.06572 4.510123,-6.11608 6.8281982,-7.67177 0.361978,5.2911 -1.8529932,3.75052 -2.7648622,5.38898 -1.273763,1.14768 -2.626461,2.83451 -3.518017,6.30508 -0.151703,2.42623 -0.882385,1.35975 -1.383887,1.58196 h -2.47278699 c 0,0 0.08811,-2.151 0.218735,-1.60188 z m 0.667047,-60.561699 c 0.05581,-0.672047 0.09374,0.535327 0,0 z m -0.885111,-7.015389 c 0.12649,-3.018626 0.0189,2.945878 0,0 z m -6.71e-4,-59.2219552 c 3.38948499,-0.15261 6.78173299,-0.15261 10.17121719,0 -3.3891362,0.15261 -6.7820862,0.15261 -10.17121719,0 z"
         id="path5020"
         sodipodi:nodetypes="ccccccccccccccc" />
    </g>
  </g>
  <g
     inkscape:groupmode="layer"
     id="layer4"
     inkscape:label="Layer2"
     style="display:inline">
    <rect
       style="fill:#eeeeee;fill-opacity:0.977008"
       id="rect15079"
       width="10.16"
       height="31.43298"
       x="1.6947075e-07"
       y="89.92849"
       ry="5.0799999" />
    <rect
       style="display:inline;fill:#ededed;fill-opacity:0.975419"
       id="rect15079-2"
       width="10.16"
       height="19.371714"
       x="-1.8003364e-07"
       y="109.12829"
       ry="0" />
    <rect
       style="display:inline;fill:#000000;fill-opacity:0.674541"
       id="rect15079-8"
       width="10.16"
       height="31.43298"
       x="2.0724143e-16"
       y="46.218285"
       ry="5.0799999" />
    <rect
       style="display:inline;fill:#eeeeee;fill-opacity:1;stroke-width:0.613834"
       id="rect15079-9"
       width="10.16"
       height="11.843706"
       x="0"
       y="51.020969"
       ry="5.0799999" />
    <rect
       style="display:inline;fill:#000000;fill-opacity:0.98432"
       id="rect15079-3-5"
       width="10.16"
       height="14.334105"
       x="0.050329726"
       y="0"
       ry="0" />
    <rect
       style="display:inline;fill:#000000;fill-opacity:0.98432"
       id="rect15079-3"
       width="10.16"
       height="31.43298"
       x="0"
       y="0"
       ry="5.0799999" />
  </g>
  <g
     inkscape:groupmode="layer"
     id="layer1"
     inkscape:label="Layer3"
     style="display:inline">
    <path
       style="fill:none;stroke:#000000;stroke-width:0.021294px;stroke-linecap:butt;stroke-linejoin:miter;stroke-opacity:1"
       d="m 1.4165691,2.9677186 -0.79056204,3.08779"
       id="path30692" />
    <path
       style="fill:none;stroke:#000000;stroke-width:0.021294px;stroke-linecap:butt;stroke-linejoin:miter;stroke-opacity:1"
       d="M 0.62600706,6.0555086 2.0601451,5.5928786"
       id="path30696" />
    <circle
       style="fill:#000000;fill-opacity:0.98432;stroke:#ffffff;stroke-width:0"
       id="path29809"
       cx="0.63718575"
       cy="6.0016375"
       r="0.11107892" />
    <circle
       style="fill:#000000;fill-opacity:0.98432;stroke:#ffffff;stroke-width:0"
       id="path29811"
       cx="1.4162365"
       cy="2.9806871"
       r="0.083514526" />
    <circle
       style="fill:#000000;fill-opacity:0.98432;stroke:#ffffff;stroke-width:0"
       id="path29813"
       cx="2.0612199"
       cy="5.5803871"
       r="0.11470279" />
    <path
       style="fill:none;stroke:#000000;stroke-width:0.021294px;stroke-linecap:butt;stroke-linejoin:miter;stroke-opacity:1"
       d="M 2.8713131,0.83080856 4.0343871,1.4669186"
       id="path30704" />
    <path
       style="fill:none;stroke:#e8e8e8;stroke-width:0.021294px;stroke-linecap:butt;stroke-linejoin:miter;stroke-opacity:1"
       d="M 2.8903681,0.85442856 4.0534421,1.4905286"
       id="path30704-8" />
    <circle
       style="fill:#000000;fill-opacity:0.98432;stroke:#ffffff;stroke-width:0"
       id="path29815"
       cx="3.988466"
       cy="1.515029"
       r="0.19988205" />
    <path
       style="fill:none;stroke:#e8e8e8;stroke-width:0.021294px;stroke-linecap:butt;stroke-linejoin:miter;stroke-opacity:1"
       d="m 4.0534421,1.4905286 -1.185846,0.93939"
       id="path30702-2" />
    <circle
       style="fill:#000000;fill-opacity:0.98432;stroke:#ffffff;stroke-width:0"
       id="path29817"
       cx="2.8705385"
       cy="0.92687893"
       r="0.10089224" />
    <path
       style="fill:none;stroke:#e8e8e8;stroke-width:0.021294px;stroke-linecap:butt;stroke-linejoin:miter;stroke-opacity:1"
       d="M 2.8903681,0.85442856 2.8675981,2.4299186"
       id="path30700-6" />
    <path
       style="fill:none;stroke:#000000;stroke-width:0.021294px;stroke-linecap:butt;stroke-linejoin:miter;stroke-opacity:1"
       d="m 2.0601451,5.5928786 0.788396,-3.18657"
       id="path30694" />
    <path
       style="fill:none;stroke:#000000;stroke-width:0.021294px;stroke-linecap:butt;stroke-linejoin:miter;stroke-opacity:1"
       d="m 2.8485411,2.4063086 -1.431972,0.56141"
       id="path30698" />
    <path
       style="fill:none;stroke:#000000;stroke-width:0.021294px;stroke-linecap:butt;stroke-linejoin:miter;stroke-opacity:1"
       d="M 2.8713131,0.83080856 2.8485431,2.4063086"
       id="path30700" />
    <path
       style="fill:none;stroke:#e8e8e8;stroke-width:0.021294px;stroke-linecap:butt;stroke-linejoin:miter;stroke-opacity:1"
       d="m 1.4356251,2.9913286 -0.79056304,3.08779"
       id="path30692-6" />
    <path
       style="fill:none;stroke:#e8e8e8;stroke-width:0.021294px;stroke-linecap:butt;stroke-linejoin:miter;stroke-opacity:1"
       d="M 0.64506206,6.0791186 2.0792001,5.6164986"
       id="path30696-7" />
    <path
       style="fill:none;stroke:#e8e8e8;stroke-width:0.021294px;stroke-linecap:butt;stroke-linejoin:miter;stroke-opacity:1"
       d="m 2.0792001,5.6164986 0.788396,-3.18658"
       id="path30694-7" />
    <path
       style="fill:none;stroke:#e8e8e8;stroke-width:0.021294px;stroke-linecap:butt;stroke-linejoin:miter;stroke-opacity:1"
       d="m 2.8675961,2.4299186 -1.431971,0.56141"
       id="path30698-6" />
    <circle
       style="fill:#000000;fill-opacity:0.98432;stroke:#ffffff;stroke-width:0"
       id="path29819"
       cx="2.8311613"
       cy="2.4336672"
       r="0.090902202" />
    <circle
       style="fill:#f2f2f2;fill-opacity:0.98432;stroke:#ffffff;stroke-width:0"
       id="path29809-5"
       cx="0.59324235"
       cy="6.0748568"
       r="0.11443714" />
    <circle
       style="fill:#f2f2f2;fill-opacity:0.98432;stroke:#ffffff;stroke-width:0"
       id="path29811-9"
       cx="1.3958431"
       cy="2.962575"
       r="0.086039402" />
    <circle
       style="fill:#f2f2f2;fill-opacity:0.98432;stroke:#ffffff;stroke-width:0"
       id="path29813-2"
       cx="2.0603273"
       cy="5.6408892"
       r="0.11817057" />
    <path
       style="fill:none;stroke:#000000;stroke-width:0.021294px;stroke-linecap:butt;stroke-linejoin:miter;stroke-opacity:1"
       d="m 4.0343871,1.4669186 -1.185846,0.93939"
       id="path30702" />
    <circle
       style="fill:#f2f2f2;fill-opacity:0.98432;stroke:#ffffff;stroke-width:0"
       id="path29815-6"
       cx="4.0458407"
       cy="1.4526129"
       r="0.20592503" />
    <circle
       style="fill:#f2f2f2;fill-opacity:0.98432;stroke:#ffffff;stroke-width:0"
       id="path29817-8"
       cx="2.8941133"
       cy="0.84667873"
       r="0.10394249" />
    <circle
       style="fill:#f2f2f2;fill-opacity:0.98432;stroke:#ffffff;stroke-width:0"
       id="path29819-5"
       cx="2.8535459"
       cy="2.3990297"
       r="0.093650423" />
    <g
       aria-label="sulafat"
       transform="matrix(0.96107328,0,0,1.0405034,26.179634,-43.608493)"
       id="text24448"
       style="font-size:3.51553px;line-height:1.25;font-family:'Tinos Nerd Font';-inkscape-font-specification:'Tinos Nerd Font';display:inline;fill:#ececec;fill-opacity:0.98432">
      <g
         aria-label="γ Lyrae"
         transform="scale(1.0405034,0.96107327)"
         id="text7787"
         style="font-size:2.15099px;font-family:Tinos;-inkscape-font-specification:Tinos">
        <path
           d="m -22.974779,49.136824 v -0.04726 h 0.228963 q 0.06302,0.141789 0.142839,0.366551 0.08087,0.223711 0.142839,0.43797 h 0.0084 l 0.178549,-0.428518 q 0.02521,-0.05672 0.04306,-0.122884 0.01891,-0.06617 0.01891,-0.105028 0,-0.04306 -0.02416,-0.06827 -0.02416,-0.02521 -0.04936,-0.03256 v -0.04726 h 0.202706 q 0.01155,0.01785 0.01155,0.07982 0,0.09663 -0.09137,0.297231 l -0.260472,0.591313 q 0.01365,0.08297 0.02206,0.233164 0.0084,0.151241 0.0084,0.232113 l -0.166996,0.01155 -0.04831,-0.03046 q 0,-0.09348 0.0105,-0.210058 0.01155,-0.115531 0.02941,-0.209007 -0.136538,-0.40016 -0.18275,-0.524094 -0.04621,-0.124984 -0.08823,-0.226862 -0.04201,-0.101878 -0.07877,-0.174348 z"
           id="path6307" />
        <path
           d="m -20.820638,48.724061 -0.21741,0.02731 v 1.235139 h 0.277276 q 0.223712,0 0.32874,-0.02101 l 0.06512,-0.29303 h 0.06827 l -0.01891,0.404361 h -1.103853 v -0.05567 l 0.18065,-0.02836 V 48.75136 l -0.18065,-0.02731 v -0.05567 h 0.600765 z"
           id="path6309" />
        <path
           d="m -20.079135,50.541059 q -0.08192,0 -0.161744,-0.0189 V 50.30895 h 0.04936 l 0.03466,0.100828 q 0.03256,0.02416 0.09032,0.02416 0.05462,0 0.100827,-0.03151 0.04621,-0.03151 0.08402,-0.09348 0.03886,-0.06197 0.09663,-0.22161 l -0.376003,-0.924254 -0.100828,-0.02626 v -0.04726 h 0.457926 v 0.04726 l -0.155443,0.02836 0.266773,0.690039 0.258371,-0.69214 -0.154392,-0.02626 v -0.04726 h 0.3676 v 0.04726 l -0.102928,0.02206 -0.385455,0.979919 q -0.06827,0.173297 -0.118683,0.248918 -0.05041,0.07562 -0.111331,0.114481 -0.06092,0.03886 -0.139688,0.03886 z"
           id="path6311" />
        <path
           d="m -18.515256,49.063304 v 0.266773 h -0.04516 l -0.06092,-0.115532 q -0.05251,0 -0.124984,0.0147 -0.07142,0.01365 -0.123934,0.03676 v 0.737303 l 0.169096,0.02626 v 0.04726 h -0.468428 v -0.04726 l 0.124984,-0.02626 v -0.840231 l -0.124984,-0.02626 v -0.04726 h 0.287779 l 0.0095,0.122884 q 0.06302,-0.05251 0.170147,-0.100828 0.10818,-0.04831 0.171197,-0.04831 z"
           id="path6313" />
        <path
           d="m -18.007967,49.067505 q 0.161745,0 0.237365,0.06617 0.07667,0.06617 0.07667,0.202706 v 0.666933 l 0.122884,0.02626 v 0.04726 h -0.270974 l -0.01996,-0.09873 q -0.119733,0.119733 -0.305634,0.119733 -0.253119,0 -0.253119,-0.294081 0,-0.09873 0.03781,-0.162795 0.03886,-0.06512 0.122884,-0.09873 0.08402,-0.03466 0.243667,-0.03781 l 0.148091,-0.0042 v -0.154393 q 0,-0.101878 -0.03781,-0.150191 -0.03676,-0.04831 -0.114481,-0.04831 -0.105029,0 -0.192203,0.04936 l -0.03571,0.122884 h -0.05882 v -0.215309 q 0.170147,-0.03676 0.299332,-0.03676 z m 0.139689,0.506239 -0.137588,0.0042 q -0.140739,0.0053 -0.191153,0.05461 -0.04936,0.04936 -0.04936,0.164895 0,0.184851 0.150191,0.184851 0.07142,0 0.122884,-0.01575 0.05251,-0.0168 0.105029,-0.04201 z"
           id="path6315" />
        <path
           d="m -17.268564,49.580046 v 0.0189 q 0,0.144939 0.03151,0.225812 0.03256,0.07982 0.09873,0.121833 0.06722,0.04201 0.175398,0.04201 0.05672,0 0.134437,-0.0095 0.07772,-0.0095 0.128135,-0.02101 v 0.05882 q -0.05041,0.03256 -0.137588,0.05672 -0.08612,0.02416 -0.176448,0.02416 -0.230013,0 -0.337143,-0.123934 -0.106079,-0.123934 -0.106079,-0.39806 0,-0.25837 0.10818,-0.385455 0.10818,-0.127085 0.308785,-0.127085 0.379154,0 0.379154,0.430618 v 0.08612 z m 0.227913,-0.432719 q -0.10923,0 -0.168047,0.08822 -0.05777,0.08822 -0.05777,0.260472 h 0.422215 q 0,-0.188002 -0.04831,-0.267824 -0.04831,-0.08087 -0.14809,-0.08087 z"
           id="path6317" />
      </g>
    </g>
  </g>
  <g
     inkscape:groupmode="layer"
     id="layer2"
     inkscape:label="components"
     style="display:none">
    <circle
       style="fill:#00ff00"
       id="path951"
       cx="5.0799999"
       cy="105.87572"
       r="4.1654868"
       inkscape:label="Right"
       inkscape:transform-center-y="8.3844213" />
    <circle
       style="fill:#00ff00"
       id="path951-8"
       cx="5.0799999"
       cy="96.015877"
       r="4.1654868"
       inkscape:label="Left" />
    <circle
       style="display:inline;fill:#00ff00"
       id="path951-8-7"
       cx="5.0799999"
       cy="56.942822"
       r="4.1654868"
       inkscape:label="Offset" />
    <circle
       style="display:inline;fill:#0000ff"
       id="path951-4"
       cx="5.0799999"
       cy="22.259804"
       r="4.1654868"
       inkscape:label="Right"
       inkscape:transform-center-y="8.3844213" />
    <circle
       style="display:inline;fill:#0000ff"
       id="path951-8-1"
       cx="5.0799999"
       cy="12.399956"
       r="4.1654868"
       inkscape:label="Left" />
    <circle
       style="fill:#ff0000"
       id="path951-8-8"
       cx="5.0799999"
       cy="69.693031"
       r="4.1654868"
       inkscape:label="Knob" />
    <circle
       style="display:inline;fill:#ff0000"
       id="path951-8-8-8"
       cx="5.19065"
       cy="116.94591"
       r="4.1654868"
       inkscape:label="InvertSwitch" />
  </g>
</svg>
