<?xml version="1.0" encoding="UTF-8" standalone="no"?>
<!-- Created with Inkscape (http://www.inkscape.org/) -->

<svg
   sodipodi:docname="Sulafat.svg"
   inkscape:version="1.1.1 (3bf5ae0d25, 2021-09-20, custom)"
   id="svg5"
   version="1.1"
   viewBox="0 0 10.16 128.5"
   height="128.5mm"
   width="10.16mm"
   xmlns:inkscape="http://www.inkscape.org/namespaces/inkscape"
   xmlns:sodipodi="http://sodipodi.sourceforge.net/DTD/sodipodi-0.dtd"
   xmlns="http://www.w3.org/2000/svg"
   xmlns:svg="http://www.w3.org/2000/svg">
  <sodipodi:namedview
     id="namedview7"
     pagecolor="#ffffff"
     bordercolor="#666666"
     borderopacity="1.0"
     inkscape:pageshadow="2"
     inkscape:pageopacity="0.0"
     inkscape:pagecheckerboard="0"
     inkscape:document-units="mm"
     showgrid="false"
     inkscape:snap-page="true"
     inkscape:snap-midpoints="true"
     inkscape:snap-object-midpoints="true"
     inkscape:snap-smooth-nodes="true"
     inkscape:snap-intersection-paths="true"
     inkscape:zoom="1.9603365"
     inkscape:cx="-24.995709"
     inkscape:cy="309.38566"
     inkscape:window-width="1911"
     inkscape:window-height="1043"
     inkscape:window-x="3844"
     inkscape:window-y="16"
     inkscape:window-maximized="1"
     inkscape:current-layer="layer3" />
  <defs
     id="defs2" />
  <g
     inkscape:label="Layer1"
     inkscape:groupmode="layer"
     id="g3368"
     style="display:none">
    <rect
       style="display:inline;fill:#cccccc"
       id="rect846-7"
       width="10.16"
       height="128.5"
       x="-3.5762787e-07"
       y="-4.7758222e-06" />
    <path
       style="fill:#f6f6fe;stroke-width:0.0550107"
       d="M 6.5313592,74.891961 C 5.8820906,72.802244 4.4804697,69.510991 5.8643275,67.30279 6.1018767,62.117857 3.9980284,62.122043 2.9762787,60.902504 1.3109411,60.493966 2.4536018,53.435426 0.95141998,51.628617 0.43897008,50.195098 -0.29434159,48.998783 -0.06618717,46.333659 -0.33498737,42.126495 1.1441995,45.794095 1.8436479,44.450966 c 1.6133637,0.749008 3.2901647,0.277988 4.8131283,2.655958 0.6665969,1.667151 1.3975989,3.157861 1.6645285,-0.735995 0.4985492,-1.173144 1.9892623,-1.499592 0.8359634,0.980039 -0.8828136,4.592089 1.6119049,0.234484 0.9468459,5.091313 0.0017,2.289168 6.07e-4,4.578349 9.25e-4,6.867523 -0.5255045,1.484592 -2.5334542,4.106198 -1.3506001,6.242623 0.6263046,0.937072 1.6546811,-0.55678 1.3505991,2.941787 0.075,2.985035 0.09133,6.09795 -0.9835525,3.660943 C 7.9295007,70.32684 7.5405666,75.55075 6.5313684,74.891961 Z M 8.516732,54.653746 C 8.2749093,52.196585 5.5789881,52.291579 7.4350221,53.280882 7.8943457,52.961296 8.1328213,54.933474 8.516732,54.653746 Z M 6.1283733,49.988191 c 1.5392642,-2.070511 -2.3454516,-4.880514 -1.38613,-2.433648 0.5019123,0.602842 0.8018803,3.152644 1.38613,2.433648 z M 9.4515227,44.995356 C 9.7130624,43.02386 10.299077,41.388755 10.105008,44.533227 9.9354615,44.944231 9.6657895,45.103373 9.4515227,44.995356 Z M 3.1714975,44.409822 c -0.8430813,-0.909807 0.635087,-3.701772 0.4504235,-6.038296 0.5953101,-3.035999 1.8074112,3.781211 1.7170607,4.976847 -0.7123303,0.608193 -1.4196566,1.426484 -2.1674842,1.061449 z m 6.6925681,-9.551458 c -0.8293086,-0.557488 -1.3154801,-2.819846 0.00345,-2.60862 0.6397964,-1.642185 0.3190244,4.29245 -0.00345,2.60862 z M 9.9911837,29.818301 C 9.0973236,25.368974 6.9717364,21.953598 5.8847479,18.118102 6.7697282,15.05724 8.47792,22.323153 9.4235555,23.451773 c 0.9444635,-0.0011 0.7239275,6.464543 0.5939355,6.537901 z M 9.2711567,11.183357 C 7.6974785,10.227619 6.2677551,7.3483823 4.9647187,4.2443035 4.3991948,3.2147746 4.1530847,1.0350322 4.9529645,2.789115 6.535441,4.7505312 8.0138411,7.7152594 9.39571,10.959548 9.4984764,11.262698 9.301194,11.405145 9.2711567,11.183357 Z M 4.2061039,1.905835 c -0.092983,-0.4627977 0.1688566,0.6018258 0,0 z"
       id="path5042"
       sodipodi:nodetypes="scccccccccccccsscccccccccccccccccccccccccccc" />
    <path
       style="fill:#facefd;stroke-width:0.0550107"
       d="m 5.3095914,68.81441 c 0.3397974,-1.062022 0.3538501,-0.353209 0,0 z m 0.3359861,-0.856282 c 0.17478,-1.240708 0.4026173,-0.519262 0,0 z M 5.8652026,66.667624 C 5.2073448,61.855095 3.4038761,62.281128 2.1811516,60.29686 1.2462092,58.56324 2.318043,53.635841 0.96995071,52.330825 0.38037077,51.944558 -0.64859359,46.870614 0.41194533,50.133993 1.3224591,52.264373 2.23954,55.117757 1.9777957,59.159929 c 1.0807045,3.18021 2.8686053,1.736862 3.8386331,5.67599 0.1268523,-0.04247 0.2076969,2.740114 0.048774,1.831705 z M 8.2813452,55.101019 C 7.9321474,53.495361 5.4523879,52.72467 7.5115368,52.339991 c 0.082839,-0.427786 1.7635293,2.715358 0.7698084,2.761028 z M 5.6068103,50.474285 c -0.4591807,-1.11425 -2.0823986,-4.741989 -0.3786572,-3.86321 0.7848068,-0.07553 2.4543749,3.792346 0.3786572,3.86321 z M 9.3414251,49.865767 C 8.017581,49.400241 9.0164927,43.074817 8.8885528,45.65821 8.2986884,46.212045 7.7784558,51.906278 6.8883059,47.953067 5.4137657,45.27415 3.8781369,45.082747 2.2657378,44.631019 1.6052702,43.810747 -0.19276028,46.378112 -0.06618717,42.361191 -0.28702216,38.756396 0.21435482,40.57829 0.74674162,39.180277 1.8495242,40.220213 2.6787435,38.04789 1.530298,37.607597 0.92602601,35.935373 -0.25048503,39.863128 -0.06618717,36.102692 0.03259657,33.349682 1.5511289,33.683266 2.2690176,32.354974 c 1.4701818,-0.298973 2.050859,5.448597 3.0626037,8.134381 0.8978804,1.335892 1.8854117,1.994826 2.8192632,2.950293 0.7896624,0.438408 1.6399592,-1.168695 1.9322005,-3.754986 0.290466,2.415204 -0.333328,3.61143 -0.6318737,5.309113 0.9829877,-1.902068 0.6745977,3.317551 0.4829981,4.720302 -0.1917599,0.171852 -0.3955942,0.297181 -0.5927843,0.15169 z M 4.1094838,44.376585 c 0.6315702,-0.496538 2.0073013,-0.822638 0.9059776,-3.429773 -0.3146055,-2.868133 -1.456945,-5.346987 -1.5666072,-0.79498 -0.00797,1.934464 -1.23999,4.443033 -0.00754,4.300993 0.2227749,0.01826 0.4466003,0.01751 0.6681718,-0.07624 z M 7.0538499,36.389848 C 6.4887856,35.933814 5.9012374,33.761726 6.9616844,34.364902 9.4485712,29.313522 9.3180757,33.59308 8.8525388,36.393317 8.5788515,36.745271 7.3325445,36.628554 7.0538499,36.389848 Z M 9.9675811,34.700775 C 9.4027911,33.445672 7.379994,33.513164 8.8005239,30.690313 9.8576379,27.614179 7.4135411,24.431971 6.7387074,22.699684 5.9269002,21.819478 5.4605568,20.055673 6.4530771,18.538388 7.9798722,15.460274 5.1828067,15.345002 4.9927697,11.594508 4.210631,7.2132704 3.0823161,3.3178291 1.6235912,1.8118444 0.50101453,-0.1750331 1.5693306,0.3348098 2.1272635,0.28054753 4.7711,0.15105257 7.4292138,0.51897186 10.064107,0.14574438 10.142253,8.5282335 10.077749,16.943059 10.089758,25.339748 8.9750044,23.19861 8.0245632,20.194601 6.9526982,17.833148 c -1.0680946,2.316621 1.1477974,4.960665 1.589335,7.108153 0.8609473,1.490697 2.5362228,7.81518 0.5939866,7.82287 0.056059,0.383061 1.4170862,1.887284 0.8315613,1.936604 z M 9.4195464,11.184854 C 8.5308951,8.5311042 7.3916456,6.7612482 6.348094,4.7961002 5.7956176,3.8457881 3.4475444,0.13078609 4.9647187,4.2443035 6.2921079,7.4342275 7.7585835,10.290041 9.3626488,11.285267 l 0.056898,-0.10041 z M 4.2710887,2.0418097 c -0.099921,-0.3929697 -0.1478558,-0.2833073 0,0 z M -0.06618717,7.0287734 C 0.04847602,4.0262685 -0.53811095,-1.28598 0.83721815,0.29586967 1.6296565,1.596563 0.85084042,3.2279757 0.85408395,5.4893873 0.01358608,7.8156887 0.82818564,12.661492 -0.06618717,13.959826 Z"
       id="path5040"
       sodipodi:nodetypes="ccccccccccccccccccccccccccccccccscccsscccccccccccccccccsccccsccccccc" />
    <path
       style="fill:#e7a9fd;stroke-width:0.0550107"
       d="M 5.1747097,64.591146 C 4.190208,61.006026 2.3549903,62.752652 1.510903,58.72256 2.1293599,54.377949 0.32974605,52.165173 0.01179203,50.11161 1.0696036,52.002841 2.1565362,54.8344 1.7838935,59.25942 c 1.0445746,3.187539 2.7915243,2.024867 3.7332149,5.749008 4.047e-4,0.738147 -0.3099761,-0.373155 -0.3423987,-0.417282 z M 7.9822086,43.301547 C 6.792044,41.703059 5.2278964,41.958929 4.5319502,37.589418 3.8047733,33.298017 2.1545129,31.277323 0.82611851,34.480566 -0.04001826,36.839917 -0.33285124,32.878496 0.02327619,30.599009 1.1263644,29.779251 2.6472248,27.885088 3.4972091,31.464983 4.4284047,34.097502 4.6600109,39.694013 6.057924,40.030108 6.9664068,41.50391 9.3298004,39.845743 7.2644198,38.203164 6.130427,37.648167 5.8995129,33.354359 4.7373231,31.79206 4.3108288,29.85412 2.702904,29.845759 2.8736916,27.882438 3.5795181,28.594931 4.9383079,27.968968 3.7671085,25.339876 3.186381,24.233742 2.8808516,22.69919 3.3196562,21.189706 2.5176032,17.382666 0.41493285,21.315618 -0.06173759,16.560392 -0.261119,13.713008 0.51391733,12.722717 0.07255467,9.535753 0.54488473,7.0280373 0.44799242,3.6425474 0.85709033,1.8297098 0.70465503,-0.19485115 -0.06254795,0.38479682 1.0264001,0.24262994 1.7021226,0.22922869 3.7033928,0.23800226 2.0094661,0.301113 1.4337776,0.3177906 0.58581841,-0.00935484 1.6241046,1.8121058 3.1951692,3.3821797 4.3167973,7.7847902 5.1634964,12.395976 c 0.2806913,3.171394 2.7942076,3.218347 1.2895798,6.142409 -1.5256341,2.44878 0.4391119,4.113435 1.0485374,5.661788 1.0965616,1.655983 2.4410021,6.062635 0.7379215,8.270459 -0.5856861,1.050226 -1.2076437,2.350893 -1.8929325,1.977395 0.7794052,3.41734 2.2218581,-0.523947 2.4377823,4.076335 0.9840033,4.023693 1.7579371,-4.458336 0.175237,-3.849543 -0.7915935,-1.030056 1.1640921,-1.668605 1.1460331,0.838851 0.17174,3.652092 -0.2733776,7.624426 -1.4885714,7.955526 -0.2122071,0.0881 -0.42861,0.02013 -0.634875,-0.167649 z M 1.0136238,41.293224 C -0.21166795,42.679635 -0.58505663,36.21276 0.82268966,37.005289 1.5197409,35.351923 3.6889259,39.299861 2.5320124,41.300083 2.0783325,41.385603 1.4749222,41.506212 1.0136238,41.293224 Z M 6.2205687,0.22158687 c 0.7086445,-0.0117522 2.5130709,-0.02857 2.486707,0.0223518 -0.7338541,-0.001582 -2.2914911,0.0267529 -2.486707,-0.0223518 z"
       id="path5038"
       sodipodi:nodetypes="cccccccccccccccccccccccccccccccccccccccc" />
    <path
       style="fill:#b0d7fe;stroke-width:0.0550107"
       d="M 5.5085252,100.98421 C 4.9255388,101.23392 3.80508,99.276166 4.8150029,99.673941 c 1.9270564,-1.181216 3.0603896,1.563489 1.4684461,1.158619 -0.2004558,0.2185 -0.5533365,0.32921 -0.7749238,0.15165 z M 9.8290373,88.536596 C 8.7922558,85.22437 7.7206452,82.048288 6.5035091,79.529523 5.4976423,76.898741 3.9908733,74.745955 2.7927112,75.528765 1.790598,74.041292 3.0235007,72.862601 3.3547627,72.932573 3.9867578,70.309735 5.4875406,67.27511 5.3141238,64.749482 c 1.5000726,2.663749 -0.8226008,4.428244 0.4386835,6.8235 0.5209347,3.924477 1.4075223,3.839488 2.137287,0.473127 0.6349777,-0.571709 2.3699427,-0.445223 2.2149367,2.863682 0.152614,2.114358 -1.6049586,1.338043 -0.5353935,4.176933 0.9954965,1.633452 0.3666991,6.352281 0.5224175,9.4538 0.07516,1.250642 -0.1332513,0.139287 -0.2630182,-0.0039 z M 9.4788741,66.076599 C 8.219684,66.827476 8.0392207,62.085342 9.2505415,61.244617 c 0.7459078,-2.342224 0.9602855,-2.024729 0.8462885,1.02822 -0.08111,2.036626 0.354656,4.633684 -0.6179559,3.803762 z M 8.300031,36.056071 C 8.4859083,34.741363 7.4113279,33.06635 8.1147145,32.629795 c 0.7524903,-0.161754 0.9921387,2.93141 0.1853165,3.426276 z"
       id="path5036"
       sodipodi:nodetypes="ccccscccccccccssccccccc" />
    <path
       style="fill:#abaffe;stroke-width:0.0550107"
       d="m 2.1483215,109.67472 c -1.15203077,-1.5877 -0.062847,-5.78049 0.068142,-8.42267 0.6507545,-5.116569 4.0043483,-6.191128 3.8682999,-2.805467 1.3395813,0.08916 2.6811515,0.394734 4.0202666,0.107641 0.089,2.947716 -1.4768621,0.483495 -1.9548284,3.078216 -1.2667962,1.55795 -2.438457,3.84343 -3.5679632,6.32552 -0.7541034,1.20488 -1.5971219,2.04132 -2.4339169,1.71676 z M 5.97409,100.70193 c 0.6762379,-0.004 1.1406059,-0.23251 0.2446199,-1.000736 -0.5431066,-0.645471 -2.6976126,0.260346 -1.0517453,1.037456 0.2738414,0.19036 0.5356025,0.48237 0.8071254,-0.0367 z M 0.34615946,97.520391 c -0.8760548,0.356386 -0.54741033,-7.037041 0.28171445,-3.973552 0.73445959,1.087074 3.13860839,0.01569 2.95987119,2.267301 -0.8491436,2.014914 -2.3085405,2.041312 -3.24158564,1.706251 z M 9.6926833,89.751547 C 8.5081609,87.127225 7.1829271,85.199109 6.2220806,81.553857 5.2225656,78.72293 4.0824755,75.786043 2.7086143,76.78262 0.84226236,75.482818 1.6743104,69.611362 2.9803489,70.637513 4.3940142,70.13311 5.1456518,63.639416 3.472754,62.752977 2.4018064,61.507516 0.86028617,60.13712 1.4583997,55.142163 1.2938174,52.941875 -0.91707652,49.037688 0.60363056,52.061629 c 1.52457454,1.744702 0.29773426,9.131084 2.15305034,9.269643 0.8827375,0.557195 3.592799,2.721234 2.2243491,6.935631 -0.8688447,1.125281 -1.1909487,5.71498 -1.9625945,5.057363 -0.9220918,1.084014 -0.182729,2.96795 0.3083001,1.820793 1.521489,0.842963 2.8745885,3.08749 4.0662082,6.445728 1.0309033,1.985999 1.7415179,5.354234 2.7120862,7.598253 0.01813,1.779667 0.03897,1.612388 -0.4123467,0.562507 z m 0.057839,-10.225951 c -1.2960481,-1.062792 0.3314947,-5.647301 0.3545077,-2.396327 -0.04639,0.961795 0.181858,4.241329 -0.3545077,2.396327 z M 6.8699164,40.845938 C 5.4010946,41.329164 4.5651848,36.672268 3.8945196,32.993783 3.2232416,28.701736 1.8553445,29.52159 0.67825989,30.492626 -0.53070752,32.985529 0.01098614,26.323837 0.94907464,28.563637 2.1508782,29.463983 1.0272204,23.553125 2.2156455,25.9462 2.9600683,26.988671 3.729762,25.099126 2.7026746,23.603416 2.3381102,22.298165 0.64615365,18.622059 0.93400319,19.00068 1.6371515,19.477524 4.1309014,18.873005 3.2451423,22.815536 c 0.4710382,1.692866 1.8682965,6.06398 0.1859818,5.165671 -1.7179599,0.187214 1.1896699,2.501828 1.6002587,4.533692 1.1312765,1.789439 1.3650613,5.474074 2.6637667,5.613955 1.6815917,2.009945 -0.2251346,3.096187 -0.8252331,2.717084 z M 2.2505493,20.497708 c -0.1219898,-0.214293 -0.027936,0.226553 0,0 z M 9.006782,39.558231 C 7.768885,37.164735 9.1459002,31.83538 9.9029643,36.485027 10.188756,38.30805 9.4786943,40.088556 9.006782,39.558231 Z M 2.4894788,0.12249838 c 1.7820276,-0.00671 3.5641708,-0.0326207 5.3461255,0.0183058 -1.8794199,0.010977 -3.7588481,0.0109314 -5.6382678,3.84e-6 z"
       id="path5034"
       sodipodi:nodetypes="ccccccccccsccccccccccccccccccccccccccccccccccccccccccc" />
    <path
       style="fill:#8f8cfe;stroke-width:0.0550107"
       d="m 1.8886414,111.84196 c -0.5301603,-1.45573 -1.89173105,-0.38785 -1.95486471,-2.58964 -0.15911702,-3.60006 0.8233205,-4.79356 1.24383381,-7.70972 0.6174921,-3.964375 -1.43629399,0.0322 -1.24379767,-3.062376 C 0.05120596,95.834993 1.7604272,98.657597 2.4264091,97.018041 3.1073485,96.662951 3.9663233,94.192087 2.748235,94.513467 1.8989864,93.80968 0.14071826,95.438672 -0.06618717,91.71773 1.5301151,95.068048 3.5219038,93.204361 5.237587,94.854305 4.4999164,95.015124 4.021733,97.0902 5.0620439,96.989648 6.4867725,97.427589 8.0014266,98.013829 9.3719695,96.693155 9.2177912,95.909189 10.645577,96.199941 10.028075,98.566939 7.9399285,98.913782 5.8491737,98.3106 3.7657253,98.036518 2.3127062,98.217064 2.1707602,104.1179 1.6232848,107.53766 c 0.3711203,4.28316 2.1296852,1.4853 2.9589537,0.42028 1.1854518,-2.68194 2.0939276,-5.21574 3.4202556,-6.95321 0.3422989,-2.11859 2.7746349,-1.222106 1.8351521,0.40594 -0.9717102,0.28493 -0.8206156,5.85686 -2.1266969,4.81768 -1.5318211,0.20994 -2.6967278,4.39102 -4.2097688,4.99808 -0.5222844,0.50078 -1.0724836,0.69384 -1.6125391,0.61553 z m 8.0331235,-1.12242 c -1.082913,0.11416 0.5743021,-6.48123 0.1832651,-1.88724 -0.08761,0.37229 0.164827,2.671 -0.1832651,1.88724 z M 9.8470201,91.475503 C 8.4801899,88.799166 6.9071714,87.699427 5.4015165,86.394653 4.5578776,86.103096 3.7091095,86.252823 2.8628998,86.243248 2.5218073,83.572374 3.1540828,79.777749 3.8397743,78.712887 2.8836841,78.597414 0.80980215,77.067447 1.6340999,72.084043 2.439184,69.839559 4.9036522,69.0557 3.5482591,63.811598 2.6529208,61.3961 0.55454597,60.997225 1.4546628,55.492671 c -0.49748417,-2.567099 -0.2960763,-2.204107 0.052572,0.0061 -0.72993463,5.28418 1.3672838,5.460525 2.3419501,7.088293 1.9899397,2.418592 -0.2199104,9.162931 -1.5183231,8.823749 -1.38238762,2.25522 -0.079672,6.511377 1.0113435,4.61669 1.3279003,0.197577 2.5096244,4.706885 3.48696,7.400379 0.9547107,2.987863 2.2050051,4.610348 3.2605927,7.174687 -0.0072,0.561624 0.109253,2.13939 -0.2427377,0.872965 z M 0.8501387,52.899305 C 0.3701233,51.805907 -0.51809248,49.76532 0.50420293,51.956099 c 0.078755,0.0539 0.80687777,2.157137 0.34593577,0.943206 z M 0,29.072945 C -0.66682167,24.171408 1.3004665,27.012811 0.76011943,22.494886 0.3509551,20.435391 2.0857614,26.019951 1.5187696,22.791445 1.055043,21.278298 -0.32316904,16.687086 1.2085133,19.389487 1.6080669,21.348804 3.4915434,24.224137 3.4073111,26.227738 2.7173817,27.653771 1.5653407,24.062051 1.717894,28.206592 1.1557615,29.787465 0.49618723,28.219755 0,29.072945 Z m 1.8523701,-9.227947 c 0.1332496,-0.145996 0.014843,0.192381 0,0 z"
       id="path5032"
       sodipodi:nodetypes="ccccccccccccccccccccccsccccccccccccsscccccccccccc" />
    <path
       style="fill:#8e75fd;stroke-width:0.0550107"
       d="m -0.06618717,113.51572 c -0.18177307,-2.68409 -0.35642983,-4.13715 0.94598029,-3.01513 1.06490908,1.72035 2.54986238,0.36337 1.83354158,1.9479 -0.8749166,1.46499 -1.85942099,2.59075 -2.7558497,4.05212 -0.04810564,-0.98104 -0.0095201,-1.99535 -0.02367217,-2.98489 z m 0,-10.11468 c 0.11613868,-1.18481 -0.26415269,-3.971609 0.25198962,-3.865598 0.93154095,-0.961075 2.14381305,0.481698 0.88184915,3.462288 -0.45459579,1.77989 -1.38143406,6.4524 -1.13383877,1.54321 z m 10.07958417,2.01468 c -0.6017827,0.40872 -0.2641025,-3.2998 -0.1832667,-3.96449 0.4679237,-0.84961 0.2728287,4.00065 0.1832667,3.96449 z M 9.7843159,95.189187 C 8.4833514,95.092007 10.636722,94.920647 9.6499937,93.05845 8.657787,90.227409 7.0696993,89.221886 6.0884695,88.062202 5.3317771,87.615656 6.4010494,87.75848 5.9847072,87.378974 c 0.3859869,-0.791363 1.8414619,0.998278 2.6645472,1.59099 0.5590201,1.203659 1.6264896,1.584375 1.4557376,4.679129 -0.05082,0.643634 0.146004,2.519792 -0.3206761,1.540094 z m -3.5278544,-7.41028 c 0.1152892,-0.38465 -0.236836,0.338219 0,0 z m 0.046624,-0.47624 c -0.1375571,0.126959 -0.056128,0.275153 0,0 z m 2.7328974,7.708699 c 0.2664301,-0.315224 -0.087358,0.37685 0,0 z m -0.3818026,-0.09907 c 0.425851,-0.353521 0.1596671,0.364661 0,0 z M 0.68214563,89.965458 C -0.63595071,88.792269 0.40742648,84.845548 1.1912313,83.888856 2.3418875,82.576645 2.4074608,78.34574 1.260474,76.787191 0.21915522,72.341977 1.6886466,69.588152 2.6724802,68.246072 3.3958007,61.975002 0.91178435,62.921193 0.65651675,58.505482 1.2747347,55.468144 0.40612158,53.46516 -0.06521971,51.482166 c 0.8457356,-0.471241 1.94489381,4.421294 1.32820101,7.853587 0.7478722,3.170915 3.0942741,2.838553 2.7556379,8.578081 -0.722198,2.834956 -3.2646395,2.65756 -2.0558077,8.434721 0.3432418,2.452288 2.6484247,1.304127 1.4451638,4.816372 -0.7550666,2.215504 -0.1848328,5.856138 -0.435015,5.425078 -0.5150905,0.467556 -1.4146289,1.136233 -1.844714,2.547348 -0.1146872,0.607939 -0.18574986,1.094456 -0.44610067,0.828105 z M 5.7601183,88.010516 c 0.1683476,-0.162611 0.030912,0.17386 0,0 z M 0.48079748,26.979675 c -1.01140764,0.540007 -0.3988959,-5.063157 -0.54698465,-7.694129 -0.03234036,-3.871293 1.22160477,1.961963 1.69518867,2.390147 1.0636888,1.991879 -0.240146,3.469596 -0.73561989,1.946578 0.10746359,1.163543 0.32039749,3.6398 -0.41258413,3.357404 z"
       id="path5030"
       sodipodi:nodetypes="cccccccccccccccccccccccccccccccccccccccccccccccc" />
    <path
       style="fill:#7d82fe;stroke-width:0.0550107"
       d="m 2.6217021,112.75731 c 0.5059549,-2.06923 1.4894498,-1.90836 2.2521268,-3.50998 1.098181,-2.48493 2.4331147,-3.24202 3.6883403,-4.04818 0.3400761,-1.07766 1.1588193,-5.555636 1.2570025,-3.05256 0.1078221,3.3005 1.0894583,3.23608 0.065468,6.44929 -0.9157152,1.94819 1.1624863,3.05232 -0.367829,2.84261 -1.3148065,0.95059 -2.28733,-3.35201 -3.5097988,-0.99527 -1.0790674,1.53321 -2.2351329,2.04843 -3.3853098,2.31409 z M 5.6365098,97.568899 C 4.9159136,97.757579 3.2363219,96.672017 4.8424916,94.947003 3.8765695,93.761208 2.798894,94.264444 1.7521897,93.695424 1.232951,94.328731 -0.66128111,91.133616 0.17031174,90.738762 2.4201307,94.990031 5.0754037,93.284925 7.519786,94.491761 c 0.833414,0.175181 1.3047675,0.543704 1.9919796,0.606636 1.4092254,0.427149 -0.169512,2.170378 -0.097752,1.959162 -0.9448312,1.09219 -2.7775295,0.488315 -3.7775038,0.51134 z M 1.275423,91.448952 C 0.15551329,90.150922 -3.5762787e-7,89.508607 1.1356805,88.101999 c 0.9951005,-1.293942 1.4410564,-2.271639 2.529,-2.214472 0.619019,-0.220178 2.5214682,0.523541 2.8060418,1.141321 -0.6084359,0.0401 0.8778499,1.789135 0.2191882,1.67586 0.7344091,0.752355 -2.1535017,-0.700572 -2.5401364,0.01067 -1.0855818,-0.04129 -1.7912403,3.934853 -2.8743511,2.733579 z m 4.7037658,-2.688707 c 0.1332518,-0.145992 0.014842,0.192379 0,0 z m 0.2009121,-0.981338 c 0.1776153,-0.488545 0.040778,0.412779 0,0 z m 0.068215,-0.408593 c 0.1644486,-0.298689 -0.074301,0.306425 0,0 z M 3.5185293,79.109863 c -1.3832888,-1.401798 1.1667632,-0.701348 0,0 z"
       id="path5028"
       sodipodi:nodetypes="cccccccccccccccccccccccccccccccc" />
    <path
       style="fill:#776efd;stroke-width:0.0550107"
       d="m -0.06618717,117.46716 c 0.65282904,-2.9507 2.23615147,-4.75283 3.36272327,-5.46467 1.3787115,0.0645 2.4854327,-2.55612 3.8300155,-2.8464 0.6496736,2.64121 2.8662541,0.93963 2.8862644,3.45471 -2.5288825,0.62783 -5.0388831,2.35307 -7.5576796,3.28157 -0.7328839,-0.39759 -2.24768284,3.18089 -2.52132357,1.57479 z M 8.4709155,94.756836 C 6.4463612,94.248593 3.8793832,94.468222 1.6463123,93.044467 0.34228459,92.524596 -0.43013544,89.709267 -0.05911571,85.075986 0.12784559,82.742167 2.4401308,81.741021 0.85816931,78.630374 -0.78572435,78.067651 0.15863559,70.143823 1.5405531,69.74987 2.9106204,67.606114 2.0507854,62.263101 0.62057077,62.091361 -0.09688994,61.118931 0.96507589,54.8368 0.06189747,55.754667 c -0.21282061,-3.093346 0.05963684,-4.367956 0.61063974,-1.678313 0.58278529,2.243907 -0.31778578,6.577397 1.11278609,7.467334 1.4629653,0.288311 1.9704248,7.777076 0.1085955,8.43314 -1.60330945,1.635046 -0.4330474,7.962101 0.6465661,9.823302 -0.014814,4.203083 -2.12857047,4.132639 -2.48449534,7.628428 -0.05253647,2.462603 1.40410984,4.251681 2.08433094,3.322596 1.5685002,-3.535877 3.6433047,-3.26287 5.38024,-1.237035 0.7353247,0.95125 2.5916565,2.584714 2.4496558,5.224807 -0.4302359,0.288274 -1.4226073,0.453279 -1.4993008,0.0179 -0.4825441,-2.739309 0,5e-6 0,5e-6 z"
       id="path5026"
       sodipodi:nodetypes="ccccccsccccccccccccccsss" />
    <path
       style="fill:#6a55f9;stroke-width:0.0550107"
       d="m -0.06580908,120.10206 c -0.1550649,-3.75787 1.54761718,-3.41779 2.26242828,-4.64319 1.6429585,-0.87001 3.3064599,-1.22733 4.9513212,-2.01554 0.8898851,0.42012 2.408191,-1.87918 2.9570896,-0.17817 -0.8783081,1.88138 -2.4723787,1.47597 -3.595168,2.96277 -1.3524713,1.18656 -2.7047802,2.79551 -4.0898761,3.12797 -0.7866516,-0.0116 -1.81697034,1.27602 -2.47037098,2.28269 l -0.01178783,-0.58716 z M -0.06618717,77.013696 C -0.02769034,74.619856 -0.13256338,71.6206 -3.5762787e-7,69.367711 0.84915493,69.324211 2.0176537,66.538681 0.77036042,64.095309 -0.58664158,63.93315 0.11409061,57.990317 0.05869942,55.436421 0.97354556,56.117602 0,62.302163 1.41302,62.185449 3.8340984,65.154051 1.671322,70.500405 0.57157183,71.511954 -0.40560578,74.604032 0.52787153,78.285607 1.5453848,79.018665 2.2390934,81.95355 -0.71195178,89.470998 0,81.058955 -0.0013191,79.748223 -0.06613377,78.324434 -0.06618717,77.013696 Z"
       id="path5024"
       sodipodi:nodetypes="cccccccccccccccccc" />
    <path
       style="fill:#5649f3;stroke-width:0.0550107"
       d="m 3.5074837,128.3005 c 0.7413174,-4.42835 2.1156023,-7.02466 3.4720671,-8.36674 0.8867717,-0.19282 2.5995712,-2.23945 3.1123112,-1.19007 0.02301,3.21787 0.0096,6.43728 0.01317,9.65588 -2.1990399,-0.0311 -4.3993268,0.0814 -6.5975459,-0.0991 z m -3.57367087,-3.69343 c -0.32822318,-4.0899 1.06520549,-5.5423 1.86148867,-5.31935 1.0807952,-0.81593 2.5163699,-0.9221 3.5839978,-2.25638 1.85355,-1.8242 3.1630051,-2.62468 4.7144897,-3.01969 -0.044,2.63084 -1.2184211,1.62481 -1.7750372,3.04804 -2.7193434,2.33199 -5.5254022,6.64596 -8.16620403,9.738 -0.38389293,1.60755 -0.15087357,-1.61761 -0.21873494,-2.19062 z m 6.7081e-4,-59.590596 c -0.07407858,-2.271723 0.1666,-10.969474 0.12100937,-4.538318 -0.10484321,3.548874 2.56841429,4.176093 0.9422761,8.176512 -0.75572498,0.566756 -1.31582033,2.085997 -1.06236183,-1.762836 l -7.5211e-4,-0.905134 z m 0.94619927,1.158282 c -0.0937403,-0.535327 -0.0558135,0.672047 0,0 z"
       id="path5022"
       sodipodi:nodetypes="ccccccccccccccccccccc" />
    <path
       style="fill:#4c3ce1;stroke-width:0.0550107"
       d="m 0.15254777,126.79769 c 0.81085369,-2.88865 1.50332893,-1.44684 3.09261933,-4.00237 2.4998006,-3.06572 4.5101237,-6.11608 6.8281989,-7.67177 0.361978,5.2911 -1.8529937,3.75052 -2.7648626,5.38898 -1.2737628,1.14768 -2.6264611,2.83451 -3.5180172,6.30508 -0.1517023,2.42623 -0.8823849,1.35975 -1.3838867,1.58196 h -2.47278667 c 0,0 0.08811193,-2.151 0.21873494,-1.60188 z M 0.81959451,66.235988 c 0.0558135,-0.672047 0.0937403,0.535327 0,0 z m -0.88511087,-7.015389 c 0.12649029,-3.018626 0.01889929,2.945878 0,0 z m -6.7081e-4,-59.22195372 c 3.38948477,-0.15260769 6.78173247,-0.15260768 10.17121717,0 -3.389136,0.15260522 -6.7820866,0.15260507 -10.17121717,0 z"
       id="path5020"
       sodipodi:nodetypes="ccccccccccccccc" />
  </g>
  <g
     inkscape:groupmode="layer"
     id="layer3"
     inkscape:label="Layer4"
     style="display:inline">
    <g
       id="g1004"
       transform="translate(0.08564959,-3.8574263)">
      <path
         style="fill:#95ffff;fill-opacity:1;stroke-width:0.129498"
         d="m 10.252411,62.399095 c 0,14.586347 0,29.172694 0,43.759045 -3.46042,0 -6.92084,0 -10.38125996,0 0,-29.172698 0,-58.345392 0,-87.518086 3.46041996,0 6.92083996,0 10.38125996,0 0,14.586347 0,29.172694 0,43.759041 z"
         id="path6122" />
      <path
         style="fill:#44ffff;fill-opacity:1;stroke-width:0.129498"
         d="m 10.252411,62.399095 c 0,14.586347 0,29.172694 0,43.759045 -3.4607832,0 -6.9215664,0 -10.38234949,0 C -0.04758276,95.431646 -0.27897112,84.688509 0.16513585,73.975578 -0.10807089,70.154151 -0.49982948,66.308661 -0.00824572,62.494379 -0.29689536,47.877701 -0.04213646,33.258014 -0.13000199,18.640054 c 3.46080429,0 6.92160869,0 10.38241299,0 0,14.586347 0,29.172694 0,43.759041 z M 3.3483692,76.12579 c 2.6410511,3.108469 1.0276776,-3.578225 0,0 z m 2.877524,0.247306 c 0.2418956,1.093883 0.9708987,-0.960563 0,0 z m -2.4811508,1.460801 c 0.7393717,0.103597 -0.2210125,-0.774279 0,0 z m -2.93385007,0.365024 c -0.21535093,1.554334 1.40382487,-1.362797 0,0 z m 5.25877797,4.980063 c 0.8736298,1.506294 1.170692,-1.388147 0,0 z m 2.4483855,0.382883 c 0.9468582,0.445267 -0.1261645,-1.035641 0,0 z m -5.0114193,0.646336 c 1.3038041,0.397405 -0.1786285,-1.45235 0,0 z M 5.5626984,86.97349 C 4.6824433,88.855 9.0259584,91.111708 6.870082,88.30262 6.4696434,87.826407 6.0224314,87.391794 5.5626984,86.97349 Z m -1.9804702,3.544532 c -1.3359716,1.976177 0.7518113,0.611825 0.5387644,-0.355129 z m 1.2275805,0.489334 c -0.079994,1.167044 0.4951727,-0.53946 0,0 z m -0.3445181,4.76957 c -1.0532977,0.877965 0.8169066,0.259339 0,0 z"
         id="path6120" />
      <path
         style="fill:#30ffff;fill-opacity:1;stroke-width:0.129498"
         d="m 10.252411,62.401543 c 0,14.587164 0,29.174329 0,43.761497 -3.1614491,-0.66004 -6.6054996,1.07267 -9.58921152,-0.51077 -1.48454261,-1.42491 -0.54816217,-3.62445 -0.79204844,-5.44663 0,-1.994774 0,-3.989532 0,-5.984295 3.70373646,0.394331 3.52044136,-5.030906 0.03177921,-4.92328 0.78224999,-2.706159 -0.3242068,-5.631849 -0.13207712,-8.432356 0.1188612,-2.766283 0.84141344,-5.506884 0.30840671,-8.28518 -0.62768936,-4.532882 -0.006988,-9.091044 -0.19989835,-13.645465 -0.020907,-13.431662 -7.8868e-4,-26.863341 -0.009363,-40.29501 3.46080431,0 6.92160871,0 10.38241251,0 0,14.587163 0,29.174326 0,43.761489 z M 3.3483692,76.12579 c 2.6410511,3.108469 1.0276776,-3.578225 0,0 z m 2.877524,0.247306 c 0.2418956,1.093883 0.9708987,-0.960563 0,0 z m -2.4811508,1.460801 c 0.7393717,0.103597 -0.2210125,-0.774279 0,0 z m -2.93385007,0.365024 c -0.21535093,1.554334 1.40382487,-1.362797 0,0 z m 5.25877797,4.980063 c 0.8736298,1.506294 1.170692,-1.388147 0,0 z m 2.4483855,0.382883 c 0.9468582,0.445267 -0.1261645,-1.035641 0,0 z m -5.0114193,0.646336 c 1.3038041,0.397405 -0.1786285,-1.45235 0,0 z M 5.5626984,86.97349 C 4.6824433,88.855 9.0259584,91.111708 6.870082,88.30262 6.4696434,87.826407 6.0224314,87.391794 5.5626984,86.97349 Z m -1.9804702,3.544532 c -1.3359716,1.976177 0.7518113,0.611825 0.5387644,-0.355129 z m 1.2275805,0.489334 c -0.079994,1.167044 0.4951727,-0.53946 0,0 z m -0.3445181,4.76957 c -1.0532977,0.877965 0.8169066,0.259339 0,0 z m -4.20411744,7.065134 c -0.91140561,3.3337 2.05450064,0.43544 0,0 z"
         id="path6118" />
      <path
         style="fill:#44ffff;fill-opacity:1;stroke-width:0.129498"
         d="m 10.252034,62.401543 c -3.67e-4,14.587161 -7.33e-4,29.174322 -0.0011,43.761487 -3.1610432,-0.65999 -6.6047382,1.07252 -9.58800705,-0.51091 -1.48424778,-1.42499 -0.54786816,-3.62436 -0.79177591,-5.44648 0,-1.994774 0,-3.989532 0,-5.984295 2.99976656,0.01927 4.64876116,-3.337415 3.37903756,-5.873708 -0.4876287,-2.818414 -5.8239083,-4.44489 -1.9851225,-7.080624 1.6836181,-0.707908 3.2485877,-2.959623 0.4186855,-3.272837 -3.8936159,0.07264 0.4775276,-5.91707 -2.0048686,-7.905125 0.61042192,-9.751399 -0.0657521,-19.523499 0.1855192,-29.283936 0.0108295,-7.388343 0.0311133,-14.776722 0.006749,-22.165061 3.4606563,0 6.9213127,0 10.3819688,0 -3.35e-4,14.587158 -7.81e-4,29.174354 -0.0011,43.761489 z M 3.3483692,76.12579 c 2.6410511,3.108469 1.0276776,-3.578225 0,0 z m 2.877524,0.247306 c 0.2418956,1.093883 0.9708987,-0.960563 0,0 z m -2.4811508,1.460801 c 0.7393717,0.103597 -0.2210125,-0.774279 0,0 z m 2.3249279,5.345087 c 0.8736298,1.506294 1.170692,-1.388147 0,0 z m 2.5388892,0.09065 c -0.1245924,1.457344 0.7666484,-1.021356 0,0 z m -5.1757648,0.882082 c 1.3661737,0.740181 0.1041477,-1.656728 0,0 z m 2.2410661,1.5e-5 c -1.2968212,1.624378 1.3547582,1.046573 0,0 z m 2.5627716,1.12519 c 0.2274092,0.910936 0.2274042,-0.910939 0,0 z M 5.535489,86.724463 c -1.1049849,1.727842 1.723406,4.02819 1.7379865,1.385068 C 7.0119943,87.359586 6.2284684,86.983508 5.535489,86.724463 Z m -0.7256803,4.282893 c -0.079994,1.167044 0.4951727,-0.53946 0,0 z m -0.7048853,5.292517 c 1.2312248,0.529849 -0.1489932,-1.58892 0,0 z m -3.90897942,6.623207 c -0.78307706,3.62181 2.12652392,-0.11511 0,0 z M 0.08658738,86.506573 C 2.7527081,85.960898 1.895244,90.429614 0.39691213,87.871723 0.22227962,87.435292 0.13785667,86.97114 0.08658738,86.506573 Z"
         id="path6116" />
      <path
         style="fill:#6ad3f1;fill-opacity:1;stroke-width:0.129498"
         d="m 10.252411,57.722536 c -0.08588,14.847543 0.218998,29.732943 -0.305416,44.554844 -1.2793423,1.188 0.188397,3.54002 -0.742882,3.74218 -2.4131709,0.1356 -6.9915516,1.28433 -7.7492876,-1.63479 C 3.725266,102.01394 6.8399657,99.282226 5.2888732,95.539731 4.4104088,92.099427 2.4517176,88.449473 3.8980955,84.885311 5.4631976,83.126942 8.2958071,89.613403 7.0110575,85.677018 5.1809323,83.703011 8.9254013,77.940062 4.0807065,80.096105 2.7065313,79.800654 2.4616524,75.505877 0.75804975,78.546873 -0.21080467,75.148521 0.44804188,71.328498 -0.19428797,67.887793 c 0.38360191,-6.835466 -0.14879914,-13.683049 0.05296,-20.524894 6.5263e-4,-9.574282 0.04404988,-19.148573 0.012479,-28.722845 3.46041997,0 6.92083997,0 10.38125997,0 0,13.027494 0,26.054988 0,39.082482 z M 3.3483692,76.12579 c 2.6410511,3.108469 1.0276776,-3.578225 0,0 z m 2.877524,0.247306 c 0.2418956,1.093883 0.9708987,-0.960563 0,0 z m -2.4811508,1.460801 c 0.7393717,0.103597 -0.2210125,-0.774279 0,0 z m 4.391101,2.360324 c 0.5871627,1.503316 0.321112,-1.346099 0,0 z m 1.1086783,2.503745 c -2.2995679,2.044066 1.2700333,-0.280082 0,0 z m -3.1748514,0.481018 c 0.8736298,1.506294 1.170692,-1.388147 0,0 z m 2.0002175,1.974351 c -0.5789409,1.373036 0.8635007,3.263695 0.3652659,0.767094 L 8.2846255,85.548798 Z M 5.5740795,86.668872 C 3.6914976,88.981275 8.8126777,90.701814 6.907477,87.794183 6.5182612,87.358957 6.0526116,86.999756 5.5740795,86.668872 Z m 2.4861722,2.434885 c 0.8791469,1.026925 0.6568155,-1.948756 0,0 z m -3.250443,1.903599 c -0.079994,1.167044 0.4951727,-0.53946 0,0 z m 0.9071004,4.825141 c 0.3254918,1.057947 0.7921751,-0.940287 0,0 z m 2.5498972,0.902851 c 0.4957269,1.430948 1.5151973,-1.076853 0,0 z m -1.5816191,1.366768 c -0.5401333,1.81623 1.429591,-1.01096 0,0 z m 2.2569677,1.38285 c 0.00311,1.183004 0.6059772,-0.51621 0,0 z m -3.5821514,3.500804 c 0.5620275,0.7598 -0.1482839,-0.87436 0,0 z M 4.2724182,82.794073 c 0.5785766,2.135734 -1.5235515,0.0057 0,0 z m 0.2908457,12.563588 c -0.060482,1.377899 -0.9686037,-0.859961 0,0 z"
         id="path6114" />
      <path
         style="fill:#929bbf;fill-opacity:1;stroke-width:0.129498"
         d="m 10.251883,49.657399 c -0.03364,15.925733 -0.003,31.854473 -0.05641,47.778327 -0.3820993,1.85761 -0.9308078,3.298174 -0.100319,4.970564 -1.3356787,1.05251 -2.0011597,2.71108 0.05826,3.43535 -2.7421691,0.0619 -6.3217773,1.40879 -8.4834194,-0.63167 C 2.5499891,101.99723 7.3078013,99.800676 6.340722,96.063733 4.1813182,93.890595 3.4456647,90.898517 3.7596168,87.871115 3.4811737,86.025481 4.8312904,83.625912 5.1591606,86.820434 4.3731328,89.543705 7.3995197,90.945208 8.3051095,87.904589 9.5120679,86.516877 7.6916972,84.387399 7.4232163,86.54301 6.2647565,83.869125 8.9374827,78.803923 4.2105806,79.825961 2.1545575,79.672535 3.4471578,77.33005 4.6205199,77.397543 5.3939746,75.368115 3.0480497,74.648158 2.7984295,76.818381 c -1.0478994,1.798225 -3.53272769,1.951028 -2.53827771,-0.69906 0.63692885,-3.433095 -0.84400421,-6.837127 -0.42437033,-10.319102 0.37183512,-7.22177 -0.0983392,-14.438095 0.0361462,-21.664564 -0.00196,-8.498534 0.002816,-16.997068 -7.766e-4,-25.495601 3.46074564,0 6.92149124,0 10.38223694,0 -5.11e-4,10.339113 -9.79e-4,20.67824 -0.0015,31.017345 z M 2.3908743,74.192 c -0.00472,1.413738 0.8944314,-0.458843 0,0 z m 3.449809,2.256344 c 1.0490257,1.192142 1.4845979,-1.261288 0,0 z m 2.2131826,3.629071 c 1.2146016,2.957387 0.4497646,-2.137471 0,0 z m 1.3116016,2.060387 c -2.8525681,1.915482 2.2756515,0.318121 0.2716072,-0.203909 l -0.1420445,0.10664 z m -4.8158744,3.222311 c -0.7544454,1.567925 1.3574078,-0.877565 0,0 z m 3.3846725,3.663024 c -0.1712122,2.813534 1.9892454,-2.380337 0,0 z m -0.050395,1.66127 c 0.3823829,0.789669 0.4049103,-0.614018 0,0 z M 4.811319,91.021835 c 0.6334189,0.969023 -0.1625228,-1.156592 0,0 z m 4.0871309,2.008958 c 1.0702041,0.987823 -0.092384,-0.890818 0,0 z m -0.5349786,3.487 c -2.1129346,1.978313 2.2093967,0.496513 0.4861433,-0.03019 z m -1.2355177,5.054967 c -0.709406,1.27753 0.4868667,0.53382 0,0 z m 0.3619381,0.56765 c -0.3727928,1.46996 0.8052184,-0.16472 0,0 z m -2.2769278,0.28058 c 0.5068932,3.06696 1.3906941,0.33914 0,0 z M 7.228743,80.848101 c 0.2913963,0.879082 -0.5541248,-0.10956 0,0 z m -3.0236679,2.104662 c -0.1108887,1.315541 -0.682074,0.209376 -0.1226948,-0.222088 z m 1.6630174,0.07797 c -0.2059965,0.660839 -0.139629,-0.598451 0,0 z m 1.1128225,4.170674 c 0.2335594,1.002314 -0.5764924,-0.569616 0,0 z M 5.9940786,97.547756 c -0.5595472,0.8921 -0.5708488,-0.963021 0,0 z m 0.5291419,0.54075 c -0.3569362,0.97535 -0.2602765,-0.86614 0,0 z"
         id="path6112" />
      <path
         style="fill:#ec37c2;fill-opacity:1;stroke-width:0.129498"
         d="m 10.251883,49.657399 c 0.01318,15.446261 -0.09107,30.892654 0.0057,46.338802 1.157835,2.313555 -2.9721504,4.573439 0.148735,6.146669 -1.227872,0.87386 -2.9068239,3.31092 -0.31104,3.52187 -2.7030985,0.37985 -6.2822983,1.62468 -8.4829721,-0.34575 1.3632563,-3.11348 4.7335548,-5.424774 5.6635166,-8.902823 C 4.687807,94.740357 5.5411634,90.666486 3.6467022,88.222141 3.4526684,86.234129 5.7493916,84.426309 5.2130363,87.470721 4.6537482,90.335049 8.0492987,90.882025 8.2452794,87.885904 8.8778735,86.670623 8.7955944,83.83915 7.4287277,86.254438 6.3445523,84.533752 8.9253279,78.467059 5.1611952,80.008913 1.7208354,80.251536 4.1375689,75.96613 6.5267201,76.914161 5.729152,73.903712 1.4033734,74.846411 -0.15590099,72.385179 c -1.00825081,-1.798168 0.46372264,-3.664244 0.07112326,-5.579211 -0.0148893,-16.055305 -0.0297786,-32.110609 -0.0446679,-48.165914 3.46094453,0 6.92188903,0 10.38283363,0 -5.11e-4,10.339113 -9.79e-4,20.67824 -0.0015,31.017345 z m -7.9617976,23.2239 c 0.2272361,0.647843 0.2272361,-0.647843 0,0 z m 6.1116769,4.908333 c 0.3688049,1.034502 0.1236227,-0.801213 0,0 z m -0.3478964,2.287783 c 1.2146016,2.957387 0.4497646,-2.137471 0,0 z m -0.064193,2.268327 c 0.6586061,-0.670679 -0.5786145,-1.060428 0,0 z m 1.3757949,-0.20794 c -2.630931,2.298881 0.9681412,1.217389 0.9440092,-0.26409 l -0.354767,0.05979 z m -1.4312019,6.885335 c 0.7880414,2.066943 2.1727251,-1.731203 0,0 z m 0.044461,1.749753 c 1.0179066,1.336852 -0.035892,-0.957837 0,0 z m 0.2868973,2.011112 c 1.2452054,1.948133 1.9632468,-1.225001 0,0 z M 8.060252,96.577479 c -2.1669244,2.527387 2.73898,-0.09994 0.5846007,-0.151115 z m -0.9322976,4.995281 c -0.709406,1.27753 0.4868667,0.53382 0,0 z m 0.3619381,0.56765 c -0.3727928,1.46996 0.8052184,-0.16472 0,0 z m -2.2769278,0.28058 c 0.4029443,1.62565 2.558041,3.47814 0.9390509,0.83587 -0.258024,-0.3324 -0.5689676,-0.63041 -0.9390509,-0.83587 z M 3.3466097,74.54044 C 4.990108,77.459941 -1.822323,79.858634 0.33464443,75.976791 0.84489477,74.552058 2.1380095,74.742826 3.3466097,74.54044 Z m -2.316386,2.167695 c 0.1435888,0.597631 0.2030373,-0.658714 0,0 z m 3.8992718,0.280043 c -0.4805015,0.361645 -0.00922,-0.40919 0,0 z m -0.3464149,0.09432 c -0.2796033,1.01057 -0.4839044,-0.832395 0,0 z M 7.228743,80.8481 c 0.2913963,0.879082 -0.5541248,-0.10956 0,0 z m -3.0236679,2.104662 c -0.1108887,1.315541 -0.682074,0.209376 -0.1226948,-0.222088 z m 1.6630174,0.07797 c -0.2059965,0.660839 -0.139629,-0.598451 0,0 z m -1.3697906,1.151843 c 1.4441191,0.133369 -0.2266027,1.113366 0,0 z m 2.4826131,3.018831 c 0.2335594,1.002314 -0.5764924,-0.569616 0,0 z m -2.9280394,4.977742 c 0.7015534,1.552172 -0.7619271,0.06697 0,0 z m 1.4624556,1.666556 c -0.2272363,0.647844 -0.2272363,-0.647844 0,0 z m -0.2644237,0.256009 c 0.7023767,1.423767 -0.4791184,-0.321193 0,0 z m 0.7431711,3.446043 c -0.5595472,0.8921 -0.5708488,-0.963021 0,0 z m 0.5291419,0.54075 c -0.3569362,0.97535 -0.2602765,-0.86614 0,0 z m 3.4765045,5.072814 c -0.3896098,0.34452 -0.06074,-0.94094 0,0 z"
         id="path6110" />
      <path
         style="fill:#46a4b6;fill-opacity:1;stroke-width:0.129498"
         d="m 10.252411,18.955021 c -1.609192,1.798419 -1.71108,-1.941369 0,0 z m -9.39856787,1.889083 c 1.23452137,1.100285 -1.26382421,-0.292191 0,0 z m 5.21042107,1.14337 c 0.7874234,2.729208 5.8542898,-1.478295 4.3400038,2.701916 -0.314532,5.733311 -0.04927,11.542267 -0.145637,17.304742 -0.0441,18.835861 -0.01902,37.70363 -0.03674,56.519424 -1.1232704,1.21741 -1.6036562,2.708174 0.184694,3.632204 -1.2322162,0.86986 -2.9045415,3.30912 -0.311313,3.51898 -2.7030985,0.37985 -6.2822983,1.62468 -8.4829721,-0.34575 1.3632591,-3.11348 4.7335529,-5.424774 5.66352,-8.902825 C 4.687829,94.740335 5.5411527,90.666487 3.6467018,88.22214 3.4526699,86.234128 5.7493915,84.42631 5.2130362,87.470721 4.6537485,90.335049 8.0492987,90.882025 8.2452794,87.885904 8.8778735,86.670623 8.7955944,83.83915 7.4287277,86.254438 6.3445523,84.533752 8.9253279,78.467059 5.1611952,80.008913 1.7208354,80.251536 4.1375689,75.96613 6.5267201,76.914161 5.7291107,73.903701 1.4033536,74.846371 -0.15600768,72.385183 -1.1643951,70.587091 0.30740939,68.720907 -0.0853453,66.805973 -0.10006288,52.243033 -0.11478046,37.680092 -0.12949804,23.117151 2.135794,24.040618 3.917201,20.009289 6.0642642,21.987474 Z m -0.044067,1.89185 C 4.6976118,25.704359 7.1534264,27.365022 7.0547387,24.647821 6.869436,24.233812 6.429389,24.007282 6.0201972,23.879324 Z M 2.2900854,72.881299 c 0.2272361,0.647843 0.2272361,-0.647843 0,0 z m 6.1116769,4.908333 c 0.3688049,1.034502 0.1236227,-0.801213 0,0 z m -0.3478964,2.287783 c 1.2146016,2.957387 0.4497646,-2.137471 0,0 z m -0.064193,2.268327 c 0.6586061,-0.670679 -0.5786145,-1.060428 0,0 z m 1.3757949,-0.20794 c -2.630931,2.298881 0.9681412,1.217389 0.9440092,-0.26409 l -0.354767,0.05979 z m -1.4312019,6.885335 c 0.7880414,2.066943 2.1727251,-1.731203 0,0 z m 0.044461,1.749753 c 1.0179066,1.336852 -0.035892,-0.957837 0,0 z m 0.2868973,2.011112 c 1.2452054,1.948133 1.9632468,-1.225001 0,0 z M 8.060252,96.577479 c -2.1669244,2.527387 2.73898,-0.09994 0.5846007,-0.151115 z m -0.9322976,4.995281 c -0.709406,1.27753 0.4868667,0.53382 0,0 z m 0.3619381,0.56765 c -0.3727928,1.46996 0.8052184,-0.16472 0,0 z m -2.2769278,0.28058 c 0.4029443,1.62565 2.558041,3.47814 0.9390509,0.83587 -0.258024,-0.3324 -0.5689676,-0.63041 -0.9390509,-0.83587 z M 3.3466097,74.54044 C 5.4510793,77.237158 -1.9264315,79.625082 0.64927594,76.470917 1.6578356,75.992837 2.1756647,74.594564 3.3466097,74.54044 Z m -2.316386,2.167695 c 0.1435888,0.597631 0.2030373,-0.658714 0,0 z m 0.755917,-2.1824 c -0.7025296,1.440475 -0.98247054,-0.706836 0,0 z m 3.1433548,2.462443 c -0.4805015,0.361645 -0.00922,-0.40919 0,0 z m -0.3464149,0.09432 c -0.2796033,1.01057 -0.4839044,-0.832395 0,0 z M 7.228743,80.8481 c 0.2913963,0.879082 -0.5541248,-0.10956 0,0 z m -3.0236679,2.104662 c -0.1108887,1.315541 -0.682074,0.209376 -0.1226948,-0.222088 z m 1.6630174,0.07797 c -0.2059965,0.660839 -0.139629,-0.598451 0,0 z m -1.3697906,1.151843 c 1.4441191,0.133369 -0.2266027,1.113366 0,0 z m 2.4826131,3.018831 c 0.2335594,1.002314 -0.5764924,-0.569616 0,0 z m -2.9280394,4.977742 c 0.7015534,1.552172 -0.7619271,0.06697 0,0 z m 1.4624556,1.666556 c -0.2272363,0.647844 -0.2272363,-0.647844 0,0 z m -0.2644237,0.256009 c 0.7023767,1.423767 -0.4791184,-0.321193 0,0 z m 0.7431711,3.446043 c -0.5595472,0.8921 -0.5708488,-0.963021 0,0 z m 0.5291419,0.54075 c -0.3569362,0.97535 -0.2602765,-0.86614 0,0 z m 3.4765045,5.072814 c -0.3896098,0.34452 -0.06074,-0.94094 0,0 z"
         id="path6108" />
      <path
         style="fill:#d31b8c;fill-opacity:1;stroke-width:0.129498"
         d="m 10.252411,18.955021 c -1.609192,1.798419 -1.71108,-1.941369 0,0 z m -9.39856787,1.889083 c 1.23452137,1.100285 -1.26382421,-0.292191 0,0 z m 5.21042107,1.14337 c 0.5937998,3.012524 5.7310208,-1.735761 4.3285718,2.47173 -0.312829,5.378661 -0.06268,10.827744 -0.142805,16.233629 0.0082,13.406906 0.04094,26.814336 -0.115203,40.220616 C 8.3861051,81.092641 6.8101866,86.543857 7.4370122,82.588088 9.5740258,80.966672 8.2215141,78.756732 5.7217807,79.506634 1.8231282,80.059457 4.6085974,75.79675 7.1289042,77.141034 9.76602,77.014891 3.7940661,74.939916 2.5188511,74.189315 -0.40425198,72.959027 -0.9405538,69.527078 -0.08533865,66.817445 -0.10005845,52.250679 -0.11477824,37.683914 -0.12949804,23.117148 2.1357554,24.035943 3.9164608,20.014675 6.0642642,21.987474 Z m -0.044067,1.89185 C 4.6976118,25.704359 7.1534264,27.365022 7.0547387,24.647821 6.869436,24.233812 6.429389,24.007282 6.0201972,23.879324 Z M 2.2900854,72.881299 c 0.2272361,0.647843 0.2272361,-0.647843 0,0 z m 3.6284015,0.499152 c 0.1435888,0.597631 0.2030373,-0.658714 0,0 z m 1.9769759,1.242028 c -0.7647837,2.134372 1.0728907,-1.010448 0,0 z m -4.5488531,-0.08204 c 1.8940029,2.888186 -5.8348283,4.77567 -2.41767186,1.709213 0.88662226,-0.4642 1.36760276,-1.55015 2.41767186,-1.709213 z m -2.316386,2.167695 c 0.1435888,0.597631 0.2030373,-0.658714 0,0 z m 0.755917,-2.1824 c -0.7025296,1.440475 -0.98247054,-0.706836 0,0 z m 3.1433548,2.462443 c -0.4805015,0.361645 -0.00922,-0.40919 0,0 z m -0.3464149,0.09432 c -0.2796033,1.01057 -0.4839044,-0.832395 0,0 z m -1.083528,0.457557 c -0.2059964,0.660839 -0.139629,-0.598451 0,0 z m 6.7528584,3.660452 c -0.218621,1.2094 -0.0736,-1.155798 0,0 z m -0.0095,7.919423 c 0.600077,2.392709 0.529521,6.382296 -2.0017708,7.438955 -2.9954637,-1.728302 -3.0685266,-5.349789 -4.2422527,-8.344037 -0.2530693,-1.554214 5.3636639,5.153436 5.0968643,0.136812 -1.2056917,-1.205252 -0.5933064,-6.134308 1.3737392,-4.347716 -0.0694,1.712384 -0.38692,3.369486 -0.22658,5.115986 z m -4.7401185,0.277772 c 0.433451,-0.125715 -0.9115842,-0.846882 0,0 z m 2.7338079,3.445733 c 1.4361207,2.271163 1.8487086,-1.511873 0,0 z m 0.655128,1.00227 c 0.1435888,0.597631 0.2030373,-0.658714 0,0 z m -0.5744969,0.332769 c -0.2855126,1.050135 1.1128098,-1.311657 0,0 z m -3.487297,-9.450622 c -0.6171802,0.504382 0.088926,-0.783143 0,0 z m 0.4837868,1.186873 c -0.1284641,1.306933 -0.667997,-0.772441 0,0 z m 2.5857323,0.53406 c 0.494156,1.673037 -0.7901867,-0.983611 0,0 z m 0.1355689,1.730038 c 0.4004617,1.860907 -1.2649244,0.517093 0,0 z m -3.997961,3.947579 c 0.7635404,0.54524 -0.5917164,0.203714 0,0 z m 1.4782377,1.719303 c -0.2272363,0.647844 -0.2272363,-0.647844 0,0 z m 4.3600698,3.514922 c -2.6308866,1.47515 2.009952,7.391474 -1.8494265,4.856304 -1.7846047,-0.47283 2.8372735,4.09299 -0.8191726,3.76897 -2.0123136,0.9922 -8.2430952,0.23996 -4.2608273,-2.34056 2.1971473,-2.11563 3.3793398,-5.862794 6.9294264,-6.284714 z m -4.8096399,4.843184 c -0.2882738,1.63104 2.7603112,3.51036 1.2135225,0.88505 -0.3418457,-0.15435 -1.3074395,-2.34369 -1.2135225,-0.88505 z m 0.1941488,-2.876634 c 0.3720446,1.266954 -0.9508282,-0.32673 0,0 z m 4.8665151,0.46399 c 1.151664,0.893554 -0.5709212,0.691314 0,0 z m 0.125986,5.772434 c -0.378389,2.33714 -0.455366,-1.74666 0,0 z"
         id="path6106" />
      <path
         style="fill:#bf1057;fill-opacity:1;stroke-width:0.129498"
         d="m 10.252411,51.485176 c -0.03826,9.294985 0.08274,18.591351 -0.120947,27.885106 0.843152,1.933684 -3.0377776,4.348714 -2.7976503,4.443562 C 7.8032506,81.888361 9.3866701,78.195053 5.7628869,79.31761 4.2152387,79.92545 2.1566152,78.693784 4.700922,77.979487 6.0658138,76.89293 10.204768,77.493927 6.8080984,76.108192 4.2782591,74.603021 0.2502829,74.13231 -0.4485197,70.737612 -0.63810412,68.873704 0.1585041,67.098469 -0.08749314,65.218104 -0.10150821,52.174814 -0.11552328,39.131524 -0.12953836,26.088234 2.8965539,25.899713 6.2513294,26.9165 6.0638928,30.472 c 2.2594289,2.236363 0.8512248,-3.55898 1.9470176,-4.758328 2.8884216,-3.149905 2.2107206,2.244502 2.2414636,4.089716 0.03316,7.227244 -0.02948,14.454544 3.7e-5,21.681788 z M 2.2900854,72.881299 c 0.2272361,0.647843 0.2272361,-0.647843 0,0 z m 3.6284015,0.499152 c 0.1435888,0.597631 0.2030373,-0.658714 0,0 z m 1.9769759,1.242028 c -0.7647837,2.134372 1.0728907,-1.010448 0,0 z M 3.3466097,74.540439 C 5.251963,77.414494 -2.4899874,79.30681 0.98235504,76.311242 1.9163468,75.898255 2.2532949,74.645175 3.3466097,74.540439 Z m -2.316386,2.167695 c 0.1435888,0.597631 0.2030373,-0.658714 0,0 z m 0.6299308,-2.214685 c -0.5565418,0.548905 -0.3333267,-0.414369 0,0 z m 3.269341,2.494728 c -0.4805015,0.361645 -0.00922,-0.40919 0,0 z m -0.3464149,0.09432 c -0.2796033,1.01057 -0.4839044,-0.832395 0,0 z m -1.083528,0.457557 c -0.2059964,0.660839 -0.139629,-0.598451 0,0 z m 6.7528584,3.660452 c -0.218621,1.2094 -0.0736,-1.155798 0,0 z m -0.0095,7.919423 c 0.600077,2.392709 0.529521,6.382296 -2.0017708,7.438955 -2.9954637,-1.728302 -3.0685266,-5.349789 -4.2422527,-8.344037 -0.2530693,-1.554214 5.3636639,5.153436 5.0968643,0.136812 -1.2056917,-1.205252 -0.5933064,-6.134308 1.3737392,-4.347716 -0.0694,1.712384 -0.38692,3.369486 -0.22658,5.115986 z m -4.7401185,0.277772 c 0.433451,-0.125715 -0.9115842,-0.846882 0,0 z m 2.7338079,3.445733 c 1.4361207,2.271163 1.8487086,-1.511873 0,0 z m 0.655128,1.00227 c 0.1435888,0.597631 0.2030373,-0.658714 0,0 z m -0.5744969,0.332769 c -0.2855126,1.050135 1.1128098,-1.311657 0,0 z m -3.487297,-9.450622 c -0.6171802,0.504382 0.088926,-0.783143 0,0 z m 0.4837868,1.186873 c -0.1284641,1.306933 -0.667997,-0.772441 0,0 z m 2.5857323,0.53406 c 0.494156,1.673037 -0.7901867,-0.983611 0,0 z m 0.1355689,1.730038 c 0.4004617,1.860907 -1.2649244,0.517093 0,0 z m -3.997961,3.947579 c 0.7635404,0.54524 -0.5917164,0.203714 0,0 z m 1.4782377,1.719303 c -0.2272363,0.647844 -0.2272363,-0.647844 0,0 z m 4.3600698,3.514922 c -2.5917407,1.0584 1.202185,7.597504 -2.4429402,4.623054 -0.2785541,-0.55166 3.0222342,3.50327 -0.021556,4.00815 -1.5063552,0.74125 -7.46261811,0.7714 -4.8815137,-1.47587 2.1325126,-2.63639 3.6034971,-6.497304 7.3460099,-7.155334 z m -3.0123262,2.60009 c -0.2326883,2.038804 0.9505698,0.531434 0.2969955,-0.37931 z m -1.7973137,2.243094 c -0.2882738,1.63104 2.7603112,3.51036 1.2135225,0.88505 -0.3418457,-0.15435 -1.3074395,-2.34369 -1.2135225,-0.88505 z m 0.1941488,-2.876634 c 0.3720446,1.266954 -0.9508282,-0.32673 0,0 z m 4.8665151,0.46399 c 1.151664,0.893554 -0.5709212,0.691314 0,0 z m -0.100789,1.547014 c 0.514432,1.96026 -1.7541565,-1.12281 0,0 z m 0.226775,4.22542 c -0.378389,2.33714 -0.455366,-1.74666 0,0 z"
         id="path6104" />
      <path
         style="fill:#8b1787;fill-opacity:1;stroke-width:0.129498"
         d="m 0.5262791,26.380636 c 3.2625741,-0.210679 4.4473681,3.721803 5.9161623,5.971538 2.1316513,3.133013 0.6020762,-4.922794 3.2004592,-3.655165 1.2360324,4.65231 0.3392694,9.564375 0.6063824,14.320482 0.07491,12.679642 0.0679,25.361097 -0.204611,38.038571 -1.7287127,0.357839 -3.3939715,5.385427 -2.3927272,1.21925 C 9.6777483,80.126945 7.2911566,78.936637 5.0404347,79.320137 1.5834208,78.594677 6.7232961,75.927241 8.3528026,77.2852 5.84487,74.81013 1.1538282,75.003774 -0.20236444,71.258359 -0.71031761,67.850504 0.25273301,64.36318 -0.08301565,60.889862 -0.0355629,49.309435 -0.24595377,37.727587 -0.00320649,26.148322 c 0.1764952,0.07744 0.35299039,0.154876 0.52948559,0.232314 z m 1.7638063,46.500663 c 0.2272361,0.647843 0.2272361,-0.647843 0,0 z m 3.6284015,0.499152 c 0.1435888,0.597631 0.2030373,-0.658714 0,0 z m 1.9769759,1.242028 c -0.7647837,2.134372 1.0728907,-1.010448 0,0 z M 3.3466097,74.540439 C 5.251963,77.414494 -2.4899874,79.30681 0.98235504,76.311242 1.9163468,75.898255 2.2532949,74.645175 3.3466097,74.540439 Z m -2.316386,2.167695 c 0.1435888,0.597631 0.2030373,-0.658714 0,0 z m 0.6299308,-2.214685 c -0.5565418,0.548905 -0.3333267,-0.414369 0,0 z m 3.269341,2.494728 c -0.4805015,0.361645 -0.00922,-0.40919 0,0 z m -0.3464149,0.09432 c -0.2796033,1.01057 -0.4839044,-0.832395 0,0 z m -1.083528,0.457557 c -0.2059964,0.660839 -0.139629,-0.598451 0,0 z m 6.7528584,3.660452 c -0.218621,1.2094 -0.0736,-1.155798 0,0 z m -0.0095,7.919423 c 0.600077,2.392709 0.529521,6.382296 -2.0017708,7.438955 -2.9954637,-1.728302 -3.0685266,-5.349789 -4.2422527,-8.344037 -0.2530693,-1.554214 5.3636639,5.153436 5.0968643,0.136812 -1.2056917,-1.205252 -0.5933064,-6.134308 1.3737392,-4.347716 -0.0694,1.712384 -0.38692,3.369486 -0.22658,5.115986 z m -4.7401185,0.277772 c 0.433451,-0.125715 -0.9115842,-0.846882 0,0 z m 2.7338079,3.445733 c 1.4361207,2.271163 1.8487086,-1.511873 0,0 z m 0.655128,1.00227 c 0.1435888,0.597631 0.2030373,-0.658714 0,0 z m -0.5744969,0.332769 c -0.2855126,1.050135 1.1128098,-1.311657 0,0 z M 7.6598364,95.78449 c 0.9454587,1.162201 0.6644362,-1.163493 0,0 z M 4.8299665,84.727853 c -0.6171802,0.504382 0.088926,-0.783143 0,0 z m 0.4837868,1.186873 c -0.1284641,1.306933 -0.667997,-0.772441 0,0 z m 2.5857323,0.53406 c 0.494156,1.673037 -0.7901867,-0.983611 0,0 z m 0.1355689,1.730038 c 0.4004617,1.860907 -1.2649244,0.517093 0,0 z m -3.997961,3.947579 c 0.7635404,0.54524 -0.5917164,0.203714 0,0 z m 1.4782377,1.719303 c -0.2272363,0.647844 -0.2272363,-0.647844 0,0 z m 4.3600698,3.51492 c 0.05082,1.28971 -1.0505793,2.770934 -1.6198369,1.40453 -4.0612805,0.91917 3.7181499,5.321634 -0.3498441,3.379744 -0.9584531,-0.32214 2.47794,5.57732 -1.3493339,4.16069 -1.9519268,0.0627 -7.39408788,-0.0152 -3.4697205,-2.60754 1.9399487,-2.3802 3.3774855,-5.835334 6.7887354,-6.337424 z m -4.8096399,4.843184 c -0.2882738,1.63104 2.7603112,3.51036 1.2135225,0.88505 -0.3418457,-0.15435 -1.3074395,-2.34369 -1.2135225,-0.88505 z m 1.1550926,-0.0487 c -0.3757533,3.23064 3.2253335,1.12935 0,0 z M 5.2599099,99.327186 c 0.3720446,1.266954 -0.9508282,-0.32673 0,0 z m 4.8665151,0.46399 c 1.151664,0.893554 -0.5709212,0.691314 0,0 z m -0.125986,1.541834 c -0.8067247,0.80946 -0.8629554,-1.11782 0,0 z m 0.251972,4.2306 c -0.378389,2.33714 -0.455366,-1.74666 0,0 z"
         id="path6102" />
      <path
         style="fill:#5d3480;fill-opacity:1;stroke-width:0.129498"
         d="m 10.134272,27.587522 c 0.142166,17.807108 0.286079,35.617547 -0.08024,53.423019 -1.4909253,0.546049 -3.5305566,5.536701 -2.6094147,1.405728 2.6041537,-1.84169 0.2465648,-3.527098 -2.0384375,-2.89525 -3.8096434,0.239317 -0.055452,-3.774481 2.0023236,-2.286746 2.1553969,-0.06395 -2.2357893,-1.931397 -3.1629205,-2.11249 -2.7421362,-0.957848 -5.43082,-3.537625 -4.69151142,-6.694481 0.80142463,-3.46302 0.12778972,-7.113017 0.31953864,-10.658291 -0.0297082,-9.20725 0.02662839,-18.4145 0.0112235,-27.621759 C 1.4014264,26.342345 5.1430697,29.370719 6.2101965,31.786805 7.0583963,33.85752 8.5624393,33.637067 7.8359873,31.237981 7.3833583,29.682993 7.9890026,27.0216 10.134272,27.587522 Z M 0.54244836,68.814448 c 1.23519974,0.826459 1.31490664,-1.199844 0,0 z m 2.10039824,0.240014 c 0.4928588,0.691185 0.8003136,-0.499979 0,0 z m 1.1497566,1.913419 c 0.3732348,1.055721 0.5024336,-0.90692 0,0 z m -0.3938396,1.071677 c -0.08306,1.27713 0.6111482,-0.545191 0,0 z m -1.1086782,0.841741 c 0.2272361,0.647843 0.2272361,-0.647843 0,0 z m 3.6284015,0.499152 c 0.1435888,0.597631 0.2030373,-0.658714 0,0 z m 1.9769759,1.242028 c -0.7647837,2.134372 1.0728907,-1.010448 0,0 z M 3.3466097,74.540439 C 5.2145672,77.123691 -1.9041702,79.242408 0.77246601,76.523742 1.9369196,76.219808 2.1866291,74.668915 3.3466097,74.540439 Z m -2.316386,2.167695 c 0.1435888,0.597631 0.2030373,-0.658714 0,0 z m 3.8992718,0.280043 c -0.4805015,0.361645 -0.00922,-0.40919 0,0 z m -0.3464149,0.09432 c -0.2796033,1.01057 -0.4839044,-0.832395 0,0 z m -1.083528,0.457557 c -0.2059964,0.660839 -0.139629,-0.598451 0,0 z m 6.5512804,5.307461 c -0.4533954,1.509322 -1.564348,0.715566 0,0 z m -1.4614394,1.347906 c -0.2059932,0.660845 -0.1396322,-0.59845 0,0 z m -3.7594271,0.53243 c -0.6171802,0.504382 0.088926,-0.783143 0,0 z m 0.4837868,1.186873 c -0.1284641,1.306933 -0.667997,-0.772441 0,0 z m 2.5857323,0.53406 c 0.494156,1.673037 -0.7901867,-0.983611 0,0 z M 4.6851678,87.27795 c 2.0975023,2.344663 4.6050105,4.713464 5.3750612,7.861213 C 9.0209246,97.876126 6.979432,95.019048 5.4404235,94.323237 6.5780623,91.996632 2.3734703,88.992795 4.2382741,87.136985 Z m 0.8176567,2.119751 c 0.433451,-0.125715 -0.9115842,-0.846882 0,0 z m 2.7338079,3.445733 c 1.4361207,2.271163 1.8487086,-1.511873 0,0 z m 0.655128,1.00227 c 0.1435888,0.597631 0.2030373,-0.658714 0,0 z m -0.5744969,0.332769 c -0.2855126,1.050135 1.1128098,-1.311657 0,0 z m 0.7105789,-6.705232 c 1.3634966,1.098439 0.4194755,5.244283 -0.4210438,1.908885 -0.00748,-0.658776 0.1714704,-1.304847 0.4210438,-1.908885 z m -0.9927879,0.705581 c 0.4004617,1.860907 -1.2649244,0.517093 0,0 z m -3.997961,3.947579 c 0.7635404,0.54524 -0.5917164,0.203714 0,0 z m 1.4782377,1.719303 c -0.2272363,0.647844 -0.2272363,-0.647844 0,0 z m 4.3591218,3.507402 c 1.203609,3.124744 -2.5583671,0.28907 0,0 z m -1.033087,0.0521 c -0.00341,0.63563 -0.4730696,-0.24739 0,0 z m -0.7040674,1.38512 c -2.8338983,-0.45208 0.3262461,5.041734 -2.2103629,3.055984 1.1811725,2.14561 -2.1983318,-0.7915 -0.5429903,1.65173 0.3848974,2.95172 4.5220646,-1.3351 3.2710577,2.2263 -1.782695,1.00317 -8.06767402,1.36733 -6.0630746,-1.87316 2.2347484,-0.85807 2.9881033,-6.158344 5.5453701,-5.060854 z m 0.4300136,0.7642 c -0.3418826,1.518204 -0.2976907,-0.93707 0,0 z m -3.3074023,-0.22731 c 0.3720446,1.266954 -0.9508282,-0.32673 0,0 z m 4.8665151,0.46399 c 1.151664,0.893554 -0.5709212,0.691314 0,0 z m -0.4547255,1.493124 c -0.7643778,0.63046 -0.3788373,-0.43048 0,0 z m -0.9574866,0.69657 c 1.9320851,2.7757 -2.9060149,-2.091054 0,0 z M 7.9531022,101.957 c 0.3377519,1.44524 0.561395,-0.85771 0,0 z m 2.2993088,1.2161 c -0.298707,-0.12431 -0.188647,-0.0785 0,0 z m -3.5852063,0.91718 c 0.7068605,1.24235 -0.6978939,-0.76266 0,0 z m 3.5852063,1.47338 c -0.378389,2.33714 -0.455366,-1.74666 0,0 z"
         id="path6100" />
      <path
         style="fill:#8b0c51;fill-opacity:1;stroke-width:0.129498"
         d="M 10.149412,27.622546 C 10.297044,44.705038 10.28111,61.788945 10.101232,78.871129 9.3085925,78.371553 9.7297066,81.770114 8.9471899,79.151697 9.5809509,76.616296 7.4107971,69.826461 4.4506878,74.070619 3.4081192,72.410404 2.3384019,70.885763 0.88455094,73.259463 -1.6166081,66.445636 0.69584259,59.14333 -0.12202447,52.126797 0.29500467,44.525441 -1.0396001,36.826689 0.60732607,29.310661 3.0325845,26.515743 5.6239171,30.490845 6.7042153,32.53909 8.8144691,35.498323 7.2296357,29.702158 7.9826787,28.624649 8.2891225,27.740155 9.3005211,27.373951 10.149412,27.622546 Z M 0.64167537,68.485888 c 0.83073993,1.598445 4.49603013,0.839573 1.39991663,0.09028 -0.4631118,-0.07187 -0.9319969,-0.09344 -1.39991663,-0.09028 z m 4.89297373,2.411279 c 0.3223428,0.689344 0.2352983,-0.683785 0,0 z m -2.2562949,0.11231 c -0.5247725,3.235361 1.8121862,-1.256755 0,0 z m 6.2685343,2.038206 c 0.2272361,0.647843 0.2272361,-0.647843 0,0 z m 0,3.786812 c 0.019367,2.109424 0.9821325,-0.114582 0,0 z M 7.3186128,73.223762 c -0.3652895,1.909613 -1.8346962,-1.200321 0,0 z M 7.98466,73.71322 c -0.1957271,0.629654 -0.2700961,-0.743346 0,0 z m -5.0005897,2.143454 c -0.442901,3.404384 -1.8102635,-1.365169 0,0 z M 8.085449,75.70983 c -0.3823815,0.789667 -0.4049112,-0.614017 0,0 z m -0.14088,1.526114 c 1.4373433,3.922686 -7.25860036,1.944245 -2.6358422,0.166051 0.831279,-0.33111 1.7777374,-0.541368 2.6358422,-0.166051 z m -7.04061966,0.06793 c -0.2073234,2.982504 -2.52123064,-0.121888 0,0 z m 8.76522716,4.063023 c -0.7133535,1.655709 -0.2887523,-1.965721 0,0 z m -1.1805718,0 c -0.2059965,0.660839 -0.139629,-0.598451 0,0 z m -0.6583335,0.08781 c 0.5655825,1.906238 -0.9628963,0.790155 0,0 z m 0.1846255,1.442921 c 1.0197741,1.857153 -1.8035903,3.064433 -0.3583148,0.624318 L 7.820686,83.223987 Z m -0.1814201,3.627175 c -0.2272361,0.647843 -0.2272361,-0.647843 0,0 z m -3.1936283,0.845963 c 0.5255287,1.802648 4.34397,4.906977 2.929151,6.030351 -1.4087372,-0.4939 -5.5263943,-5.265784 -2.929151,-6.030351 z m 3.0928394,1.483415 c -0.2059999,0.660839 -0.1396251,-0.598454 0,0 z m 1.0078893,1.331073 c -0.4234382,0.949601 -0.4110906,-0.768428 0,0 z m 1.511834,0.410739 c -0.246564,0.916943 -0.365055,-0.570142 -0.06962,-0.341281 z m 0,2.150415 c -0.286709,1.355003 -0.697445,-0.91772 0,0 z m -0.06719,0.711069 c 1.928158,2.061739 -2.3695916,4.563209 -1.7779348,1.534344 0.4173479,-0.684053 1.1038951,-1.136044 1.7779348,-1.534344 z m -0.4367517,1.136958 c 0.2274067,0.910935 0.2274067,-0.910935 0,0 z m -3.8803768,0.415961 c -0.3083496,0.705014 -0.2295086,-0.613106 0,0 z m 3.9664644,2.53805 c 1.0061981,3.057404 -2.7497529,0.0433 0,0 z m -2.1753798,1.27663 c 1.839752,1.402284 -1.4652622,0.6342 0,0 z m -1.2367455,0.32455 c 0.242785,1.302284 -0.855629,-0.22278 0,0 z m -1.2624465,0.17985 c 0.3391088,1.242164 -0.771614,-0.215 0,0 z m 3.2110325,0.28422 c 0.7636031,0.545334 -0.5916968,0.20365 0,0 z m 1.8813934,0.471424 c -0.227435,0.91091 -0.227378,-0.910954 0,0 z m -3.2233309,0.66934 c -0.018367,0.70455 -0.452468,-1.126034 0,0 z m 0.8232945,0.52581 c -0.4804819,0.36169 -0.00927,-0.40916 0,0 z m -1.5811264,0.3855 c -0.1436288,0.59761 -0.2029999,-0.65875 0,0 z m -1.2695228,0.55158 c -0.9175951,2.98482 3.1871052,1.95897 3.5124699,2.74865 -0.8925218,2.31355 -7.1822648,2.23823 -6.2176516,-0.69357 1.037781,-0.37457 1.5028037,-2.72489 2.7051817,-2.05508 z m 2.1187818,0.016 c -0.063938,1.18059 -0.8004634,-1.07737 0,0 z m 3.1319038,3.3425 c -0.3862733,2.25392 -0.4112294,-1.80635 0,0 z"
         id="path6098" />
      <path
         style="fill:#4b055c;fill-opacity:1;stroke-width:0.129498"
         d="m 5.3834652,32.587182 c 0.3846348,2.04812 3.415238,7.467065 4.7661698,3.137121 0.145159,14.272478 0.216541,28.547943 -0.07404,42.819144 C 8.8624585,81.888582 8.6889318,76.552554 8.7205143,75.281522 8.5909875,73.018745 5.4441532,71.472555 4.2594356,73.921048 3.3023379,72.37269 2.2803695,71.081923 1.0322822,73.286402 -1.5705413,68.028591 0.71474819,62.030354 -0.14500392,56.470179 0.09299626,49.177561 -0.34003852,41.853642 0.02807248,34.578788 0.68218551,32.3467 3.4882113,32.130966 5.3834652,32.587182 Z M 0.64167537,68.485888 c 0.83073993,1.598445 4.49603013,0.839573 1.39991663,0.09028 -0.4631118,-0.07187 -0.9319969,-0.09344 -1.39991663,-0.09028 z m 4.89297373,2.411279 c 0.3223428,0.689344 0.2352983,-0.683785 0,0 z m -2.2562949,0.11231 c -0.5247725,3.235361 1.8121862,-1.256755 0,0 z m 6.2685343,2.038206 c 0.2272361,0.647843 0.2272361,-0.647843 0,0 z m 0,3.786812 c 0.019367,2.109424 0.9821325,-0.114582 0,0 z M 7.2085853,73.08096 c -0.042847,1.9308 -1.9757153,-0.685974 0,0 z M 7.98466,73.71322 c -0.1957271,0.629654 -0.2700961,-0.743346 0,0 z m -5.0005897,2.143454 c -0.442901,3.404384 -1.8102635,-1.365169 0,0 z M 8.085449,75.70983 c -0.3823815,0.789667 -0.4049112,-0.614017 0,0 z m -0.14088,1.526114 c 1.4373433,3.922686 -7.25860036,1.944245 -2.6358422,0.166051 0.831279,-0.33111 1.7777374,-0.541368 2.6358422,-0.166051 z m -7.04061966,0.06793 c -0.2073234,2.982504 -2.52123064,-0.121888 0,0 z m 8.76522716,4.063023 c -0.7133535,1.655709 -0.2887523,-1.965721 0,0 z m -1.1805718,0 c -0.2059965,0.660839 -0.139629,-0.598451 0,0 z m -0.6583335,0.08781 c 0.5655825,1.906238 -0.9628963,0.790155 0,0 z m 0.1846255,1.442921 c 1.0197741,1.857153 -1.8035903,3.064433 -0.3583148,0.624318 L 7.820686,83.223987 Z m -0.1814201,3.627175 c -0.2272361,0.647843 -0.2272361,-0.647843 0,0 z m -3.1936283,0.845963 c 0.5255287,1.802648 4.34397,4.906977 2.929151,6.030351 -1.4087372,-0.4939 -5.5263943,-5.265784 -2.929151,-6.030351 z m 3.0928394,1.483415 c -0.2059999,0.660839 -0.1396251,-0.598454 0,0 z m 1.0078893,1.331073 c -0.4234382,0.949601 -0.4110906,-0.768428 0,0 z m 1.511834,0.410739 c -0.246564,0.916943 -0.365055,-0.570142 -0.06962,-0.341281 z m 0,2.150415 c -0.286709,1.355003 -0.697445,-0.91772 0,0 z m -0.06719,0.711069 c 1.918855,1.936806 -1.8924289,4.211349 -1.5217003,1.349038 0.3285874,-0.615305 0.9345719,-1.011664 1.5217003,-1.349038 z m -0.4367517,1.136958 c 0.2274067,0.910935 0.2274067,-0.910935 0,0 z m -3.8803768,0.415961 c -0.3083496,0.705014 -0.2295086,-0.613106 0,0 z m 3.9307683,2.99491 c -0.2059605,0.66088 -0.1396676,-0.59843 0,0 z m -2.1439289,0.79297 c 0.1092205,1.340314 -0.8224732,-0.42716 0,0 z m -1.2325003,0.35135 c 0.242785,1.302284 -0.855629,-0.22278 0,0 z m -1.2624465,0.17985 c 0.3391088,1.242164 -0.771614,-0.215 0,0 z m 5.0924259,0.755644 c -0.227435,0.91091 -0.227378,-0.910954 0,0 z m -5.2506856,2.13223 c -0.9963651,2.94514 3.3120856,1.98319 3.5384312,2.8792 -1.0005792,2.34886 -7.92409744,1.92469 -5.9633081,-1.12877 0.9933527,-0.27583 1.2707812,-2.48975 2.4248769,-1.75043 z m 2.1262287,0.0308 c -0.1710961,0.87829 -0.5986059,-1.41597 0,0 z m 3.1244569,3.32769 c -0.3862733,2.25392 -0.4112294,-1.80635 0,0 z"
         id="path6096" />
      <path
         style="fill:#44034b;fill-opacity:1;stroke-width:0.129498"
         d="m 5.3834652,32.585877 c 0.4036505,2.066312 3.5484881,7.613716 4.5934178,3.030286 0.311994,-0.237157 0.203336,3.89233 0.281733,5.346491 0.05535,4.992663 -0.0711,9.985464 -0.0062,14.978089 C 10.035974,53.840399 5.4570796,53.293906 7.6536028,50.926461 5.0380021,48.546746 0.61508604,47.738739 -0.46362649,43.970981 -0.3366714,41.246091 -0.33105036,38.55137 -0.0907025,35.797582 0.25924469,33.145094 2.9974622,31.952936 5.3834652,32.585877 Z M 0.0727289,47.390681 c 1.3247306,1.747758 4.9570249,3.327583 3.4712235,1.512436 4.903307,1.765656 -3.90239248,6.776344 -3.2846492,1.815817 -0.10515965,-1.106177 -0.28499402,-2.213465 -0.1865743,-3.328253 z m 7.2568031,7.60707 c 3.586625,1.5174 3.332092,6.05419 2.898085,9.264726 -0.158568,2.379396 -0.06833,4.832538 -3.0758325,3.579571 C 5.2420715,67.681329 -0.62935261,66.992649 1.4638503,64.585796 2.9798467,64.148984 9.241884,64.303092 6.5407711,61.923516 4.9445197,60.975108 -1.4842603,60.686706 1.269921,57.83622 3.4789086,57.228403 4.9653577,55.204922 7.329532,54.997751 Z m -0.8063115,0.745977 c 0.647931,0.869197 -0.023912,-0.587766 0,0 z m -6.19309168,0.180881 c 0.0848045,1.276417 -0.86051678,-0.769484 0,0 z m 6.39466958,15.792 c -0.2272338,0.647846 -0.2272387,-0.647844 0,0 z m 3.0740624,0.157258 c 0.8499312,1.058699 -2.0128641,-0.251393 0,0 z m -1.2598616,0.508279 c -0.2272363,0.647843 -0.2272363,-0.647843 0,0 z M 8.085449,72.714915 c -0.3186419,0.77117 -0.4714633,-0.440108 0,0 z m -2.7213012,0 c -0.1957273,0.629654 -0.2700962,-0.743346 0,0 z m 4.8882632,0.451049 c 0.03522,1.551688 -0.4983521,-0.689874 0,0 z m -3.0562125,-0.0183 c -0.3310748,2.131155 -1.6870317,-0.510727 0,0 z m -2.1139045,0.49816 c -0.2812686,0.833717 -0.6451471,-0.95093 0,0 z m 3.9424626,1.243977 c -0.4167278,2.411119 -1.2206744,-0.87051 0,0 z m -6.0399819,0.972325 c -0.1906795,3.896612 -3.52846999,-1.206904 0,0 z M 8.085449,75.70983 c -0.3823815,0.789667 -0.4049112,-0.614017 0,0 z m 2.166962,0.402096 c -0.150058,1.193243 -0.4535623,-0.831716 0,0 z M 7.944569,77.227505 C 9.4096732,81.140987 0.68919629,79.197157 5.3118501,77.41938 6.1431175,77.099226 7.0837874,76.843351 7.944569,77.227505 Z m -7.04061966,0.07636 c -0.20732767,2.982488 -2.52122144,-0.121867 0,0 z m 6.92632186,4.150837 c 0.5655825,1.906238 -0.9628963,0.790155 0,0 z m 0.1846255,1.442921 c 1.0197741,1.857153 -1.8035903,3.064433 -0.3583148,0.624318 L 7.820686,83.223982 Z m -0.1814201,3.627175 c -0.2272361,0.647843 -0.2272361,-0.647843 0,0 z m -3.1936283,0.845968 c 0.5112849,1.812125 4.3235786,4.91065 2.925546,6.034129 -1.4041405,-0.503432 -5.5234319,-5.267766 -2.925546,-6.034129 z m 3.0928394,1.483415 c -0.2059999,0.660839 -0.1396251,-0.598454 0,0 z m 2.5197233,1.782687 c -0.3850774,1.174066 -0.0471,-1.853563 0,0 z m 0,2.098328 c -0.06855,1.178554 -0.7657853,-0.589358 0,0 z m -0.06719,0.722281 c 1.902576,1.950022 -1.8903524,4.215849 -1.5128447,1.340263 0.3256899,-0.612266 0.9281898,-1.006664 1.5128447,-1.340263 z m -0.4367517,1.136958 c 0.2274067,0.910935 0.2274067,-0.910935 0,0 z m -3.8803768,0.415961 c -0.3083496,0.705014 -0.2295086,-0.613106 0,0 z m 3.9307683,2.99491 c -0.2059605,0.66088 -0.1396676,-0.59843 0,0 z m -2.166962,0.83193 c -0.3465629,1.434704 -0.1597965,-1.09517 0,0 z m -2.4719137,0.49224 c 0.3391088,1.242164 -0.771614,-0.215 0,0 z m 5.0924259,0.755644 c -0.227435,0.91091 -0.227378,-0.910954 0,0 z m -5.2506856,2.13223 c -0.8730542,2.81596 3.247301,2.26174 3.4962486,2.89267 -1.0905547,2.09128 -7.1697536,2.0901 -6.1809498,-0.8498 1.0288069,-0.37623 1.4854306,-2.71649 2.6847012,-2.04287 z m 2.0758342,-0.0524 c -0.1957271,0.62964 -0.2700949,-0.74333 0,0 z m 3.1748514,3.41088 c -0.3862733,2.25392 -0.4112294,-1.80635 0,0 z"
         id="path6094" />
      <path
         style="fill:#4a092e;fill-opacity:1;stroke-width:0.129498"
         d="m 5.3834652,32.587182 c 0.5339619,2.139785 3.5704502,7.791464 4.6798288,2.898513 0.464275,6.744479 0.02278,13.505388 0.180729,20.25668 C 9.990657,51.079089 5.1264371,49.231968 2.0424859,46.625319 -0.7818792,44.711006 -0.05871519,41.239368 0.03074918,38.361476 -0.30326533,35.489369 1.3763253,31.894698 4.7766578,32.538132 Z m -2.5390407,8.514737 c 0.1678476,0.710325 0.3196939,-0.701874 0,0 z M 1.851753,41.227656 c -1.10468226,1.955181 1.4427266,-0.02646 0,0 z m -1.67823516,0.779556 c -0.1125813,0.644954 0.4628508,-0.231786 0,0 z m 1.61262286,7.022934 c 2.6808986,1.729873 -1.56166624,0.261966 -1.08533519,-0.312393 l 0.41696159,0.09907 z m 2.6189689,2.013228 c 0.4843538,1.277809 -0.7883567,-0.303763 0,0 z m 3.5262371,1.033402 c 0.3896465,0.989512 -0.7553739,-0.519118 0,0 z m -0.5010258,0.83842 c -0.1886121,0.772101 -0.608986,-1.055196 0,0 z m 1.8621602,3.593283 c 4.1897969,2.73636 -2.7749734,6.46673 -2.3832173,1.3588 0.1400856,-1.044329 1.3732949,-2.060993 2.3832173,-1.3588 z M 7.1784652,73.214378 c -0.4486402,1.790748 -1.2479758,-0.773044 0,0 z m 1.7289097,1.587515 c 0.096358,1.386087 -0.9582581,-0.510498 0,0 z m -5.9652752,0.771329 c 0.2934351,3.703514 -3.59532803,0.12189 0,0 z m 4.9293697,1.60094 c 1.4134695,4.04681 -7.03768102,1.681029 -2.444484,0.182033 0.8043739,-0.291586 1.6151637,-0.228688 2.444484,-0.182033 z m -6.99242906,0.127119 c -0.2190185,2.849026 -2.39928834,-0.102661 0,0 z M 7.7750081,81.51171 c 0.494438,1.681965 -0.7739926,-0.117211 0,0 z m 0.324686,1.603501 c 0.7480773,2.816416 -2.10164,1.268162 0,0 z m -0.2662175,3.419411 c -0.3810228,0.275157 0.050443,-0.690001 0,0 z m -3.2458609,0.848767 c 0.7606073,1.72819 4.1504677,4.808694 2.9620188,6.075125 C 6.0195421,92.795568 2.4405938,88.488896 4.5876157,87.383389 Z M 10.19887,90.40041 c 0.462389,1.061427 -0.169766,0.753574 -0.121227,-0.04861 z m 0.05354,2.363799 c -0.254243,1.138714 -0.456273,-0.763826 0,0 z m -0.06632,0.694711 c 1.45387,1.603961 -1.1437485,4.303776 -1.5976461,1.662248 0.1557313,-0.811631 0.9247106,-1.29772 1.5976461,-1.662248 z m -0.4376267,1.135515 c 0.2531827,0.913055 0.2610587,-0.887715 0,0 z m -3.9118704,0.363236 c -0.4805215,0.361619 -0.00918,-0.409208 0,0 z m 3.9622649,3.047635 c -0.2059605,0.66088 -0.1396676,-0.59843 0,0 z m -4.6460226,1.30508 c 0.43332,0.961524 -0.7020897,-0.0867 0,0 z m 5.0995728,0.774734 c -0.227435,0.91091 -0.227378,-0.910954 0,0 z m -5.3132775,2.02736 c -1.0020266,2.88247 3.4304936,2.45149 3.4479262,3.07644 -1.2854093,2.52269 -8.5857792,1.30771 -5.5427167,-1.8136 0.6687669,-0.46278 1.2645927,-1.11477 2.0947905,-1.26284 z m 5.3132775,3.46332 c -0.4211279,2.2371 -0.3934856,-1.80842 0,0 z"
         id="path6092" />
      <path
         style="fill:#290720;fill-opacity:1;stroke-width:0.129498"
         d="m 10.252411,45.5111 c -0.195808,2.537437 0.577132,5.574589 -0.7181068,7.759186 C 8.2525518,50.366291 5.6059979,48.594022 2.779745,47.140679 0.18705001,46.334976 -1.1275686,42.790914 2.392152,42.235456 c 2.4647352,-0.457782 6.2732253,-3.699085 8.06291,-0.802127 0.351246,1.357255 -0.08976,2.730921 -0.202651,4.077771 z m -8.4662703,3.519046 c 2.6808986,1.729873 -1.56166624,0.261966 -1.08533519,-0.312393 l 0.41696159,0.09907 z m 2.6189689,2.013228 c 0.4843538,1.277809 -0.7883567,-0.303763 0,0 z m 4.1338896,5.88824 c 4.7687888,1.107236 -2.6540176,5.464684 -0.7317726,0.41203 0.105484,-0.422405 0.3690601,-0.37117 0.7317726,-0.41203 z M 7.1043004,73.248019 c -0.7595688,1.950601 -0.9591986,-0.904454 0,0 z m -4.1086925,3.260325 c -0.274745,1.372768 -1.4161986,-0.576657 0,0 z m -1.2094672,0.199791 c -0.6491264,1.45922 -0.030903,-1.162413 0,0 z m 6.1743355,0.928434 c 0.3372131,3.616668 -6.8208996,0.971043 -2.2547815,-0.01463 0.6677389,0.09684 1.9451464,-1.018253 2.2547815,0.01463 z m -7.75304279,0.145626 c 0.84845749,1.409104 -1.50710111,1.362908 0,0 z M 7.7326877,81.59683 c 0.3329589,1.341338 -0.5986778,-0.350863 0,0 z m 0.2747432,1.462149 c 0.9160808,2.512569 -2.3185703,1.738334 0,0 z m -3.4198152,4.32441 c 0.9781808,1.219847 3.8791914,4.830792 2.4025819,5.503499 C 5.892375,92.178944 2.2781209,87.793388 4.5876157,87.383389 Z M 10.19887,90.40041 c 0.462389,1.061427 -0.169766,0.753574 -0.121227,-0.04861 z m 0.05354,2.363799 c -0.227407,0.910935 -0.227407,-0.910935 0,0 z m -0.009,2.320249 c -0.8110944,3.603858 -1.5436309,-3.361459 -0.101895,-0.9201 -0.09033,1.337302 -0.4052937,4.054118 0.101895,0.9201 z M 8.4382102,93.679322 c -0.3054899,0.738739 -0.2577144,-0.672096 0,0 z m -3.285372,5.631064 c 0.43332,0.961524 -0.7020897,-0.0867 0,0 z m 5.0995728,0.784554 c -0.363003,0.54942 0.01926,-1.069274 0,0 z m -5.3132775,2.01754 c -1.4009159,3.11891 6.7026395,2.61831 1.8671826,4.27005 -2.5561179,0.69918 -6.89661975,-0.8789 -3.0837256,-3.30332 0.3932062,-0.33737 0.8015156,-0.65676 1.216543,-0.96673 z m 5.3132775,3.46332 c -0.5977663,2.30949 -0.247765,-1.68752 0,0 z"
         id="path6090" />
    </g>
  </g>
  <g
     inkscape:groupmode="layer"
     id="layer4"
     inkscape:label="Layer2"
     style="display:inline">
    <rect
       style="fill:#000000;fill-opacity:1"
       id="rect15079"
       width="10.16"
       height="31.43298"
       x="-2.5897027e-08"
       y="97.067017"
       ry="5.0799999" />
    <rect
       style="display:inline;fill:#000000;fill-opacity:1"
       id="rect15079-2"
       width="10.16"
       height="19.371714"
       x="-1.8003364e-07"
       y="109.12829"
       ry="0" />
    <rect
       style="display:inline;fill:#000000;fill-opacity:0.674541"
       id="rect15079-8"
       width="10.16"
       height="31.43298"
       x="2.0724143e-16"
       y="46.218285"
       ry="5.0799999" />
    <rect
       style="display:inline;fill:#ececec;fill-opacity:0.98432"
       id="rect15079-3"
       width="10.16"
       height="31.43298"
       x="0"
       y="0"
       ry="5.0799999" />
    <rect
       style="display:inline;fill:#ececec;fill-opacity:0.98432"
       id="rect15079-3-5"
       width="10.16"
       height="14.334105"
       x="-4.4408921e-16"
       y="1.7763568e-15"
       ry="0" />
  </g>
  <g
     inkscape:groupmode="layer"
     id="layer1"
     inkscape:label="Layer3"
     style="display:inline">
    <g
       aria-label="sulafat"
       transform="scale(0.96107328,1.0405034)"
       id="text24448"
       style="font-size:3.51553px;line-height:1.25;font-family:'Tinos Nerd Font';-inkscape-font-specification:'Tinos Nerd Font';fill:#ececec;fill-opacity:0.98432;stroke:#ffffff;stroke-width:0">
      <path
         d="m 1.8280285,116.72067 q 0,0.24032 -0.1527745,0.36391 -0.1510579,0.12359 -0.4480241,0.12359 -0.1201597,0 -0.26606796,-0.0257 -0.14419166,-0.024 -0.2265869,-0.0549 v -0.39653 h 0.0772455 l 0.0841118,0.22487 q 0.12874256,0.11673 0.33473066,0.11673 0.3330141,0 0.3330141,-0.28495 0,-0.20943 -0.2626348,-0.29869 l -0.1527745,-0.0498 q -0.17337336,-0.0566 -0.25233546,-0.11501 -0.0789621,-0.0584 -0.12187629,-0.14247 -0.0429142,-0.0858 -0.0429142,-0.20599 0,-0.21286 0.14419166,-0.33473 0.14590819,-0.12359 0.39309389,-0.12359 0.1768065,0 0.4428744,0.0532 v 0.3519 h -0.080679 l -0.072096,-0.18711 q -0.090978,-0.0807 -0.2866668,-0.0807 -0.1390419,0 -0.2128543,0.0687 -0.0720958,0.0687 -0.0720958,0.18539 0,0.0978 0.0652295,0.16479 0.066946,0.0669 0.2008384,0.11158 0.2523354,0.0858 0.329581,0.12531 0.077245,0.0395 0.1304591,0.0978 0.05493,0.0567 0.084112,0.13046 0.030898,0.0738 0.030898,0.18196 z"
         id="path29678" />
      <path
         d="m 2.4923401,116.7138 q 0,0.29525 0.2746508,0.29525 0.2128543,0 0.3982436,-0.0532 v -1.27541 l -0.2437526,-0.0429 v -0.0772 h 0.5269862 v 1.49341 l 0.2042716,0.0429 v 0.0772 H 3.1824002 l -0.013733,-0.13046 q -0.1218762,0.067 -0.281517,0.11673 -0.1596408,0.0481 -0.2677845,0.0481 -0.4119762,0 -0.4119762,-0.47377 v -1.05397 l -0.2059881,-0.0429 v -0.0772 h 0.4909383 z"
         id="path29680" />
      <path
         d="m 4.3427998,117.05368 0.2763673,0.0429 v 0.0772 H 3.7831988 v -0.0772 l 0.2746508,-0.0429 v -2.20064 l -0.2746508,-0.0412 v -0.0773 h 0.559601 z"
         id="path29682" />
      <path
         d="m 5.4877504,115.52422 q 0.2643514,0 0.3879442,0.10815 0.1253094,0.10814 0.1253094,0.33129 v 1.09002 l 0.2008384,0.0429 v 0.0772 H 5.758968 l -0.032615,-0.16135 q -0.1956887,0.19568 -0.4995212,0.19568 -0.4136927,0 -0.4136927,-0.48063 0,-0.16136 0.061796,-0.26607 0.063513,-0.10643 0.2008384,-0.16136 0.1373254,-0.0567 0.3982436,-0.0618 l 0.2420361,-0.007 v -0.25234 q 0,-0.1665 -0.061797,-0.24547 -0.06008,-0.079 -0.1871058,-0.079 -0.1716568,0 -0.3141319,0.0807 l -0.058363,0.20084 h -0.096128 v -0.3519 q 0.2780839,-0.0601 0.4892217,-0.0601 z m 0.2283035,0.82739 -0.2248704,0.007 q -0.23002,0.009 -0.3124153,0.0893 -0.080679,0.0807 -0.080679,0.2695 0,0.30211 0.2454691,0.30211 0.1167266,0 0.2008384,-0.0258 0.085828,-0.0275 0.1716568,-0.0687 z"
         id="path29684" />
      <path
         d="m 6.6361342,115.70446 h -0.278084 v -0.0841 l 0.278084,-0.067 v -0.11329 q 0,-0.35705 0.1407585,-0.5493 0.1424751,-0.19226 0.3982436,-0.19226 0.1321757,0 0.2454692,0.0326 v 0.35189 h -0.084112 l -0.077246,-0.21113 q -0.058363,-0.0361 -0.1407585,-0.0361 -0.1081437,0 -0.1527745,0.0961 -0.044631,0.0961 -0.044631,0.36048 v 0.26778 h 0.4291419 v 0.14419 H 6.9210843 v 1.33549 l 0.3484632,0.0566 v 0.0772 H 6.3975313 v -0.0772 l 0.2386029,-0.0566 z"
         id="path29686" />
      <path
         d="m 8.218809,115.52422 q 0.2643514,0 0.3879442,0.10815 0.1253094,0.10814 0.1253094,0.33129 v 1.09002 l 0.2008384,0.0429 v 0.0772 H 8.4900266 l -0.032615,-0.16135 q -0.1956887,0.19568 -0.4995212,0.19568 -0.4136927,0 -0.4136927,-0.48063 0,-0.16136 0.061796,-0.26607 0.063513,-0.10643 0.2008384,-0.16136 0.1373254,-0.0567 0.3982436,-0.0618 l 0.242036,-0.007 v -0.25234 q 0,-0.1665 -0.061796,-0.24547 -0.06008,-0.079 -0.1871058,-0.079 -0.1716568,0 -0.3141319,0.0807 l -0.058363,0.20084 H 7.729587 v -0.3519 q 0.2780839,-0.0601 0.4892217,-0.0601 z m 0.2283034,0.82739 -0.2248703,0.007 q -0.23002,0.009 -0.3124153,0.0893 -0.080679,0.0807 -0.080679,0.2695 0,0.30211 0.2454691,0.30211 0.1167266,0 0.2008384,-0.0258 0.085828,-0.0275 0.1716567,-0.0687 z"
         id="path29688" />
      <path
         d="m 9.5542981,117.20817 q -0.1647904,0 -0.2471857,-0.0978 -0.080679,-0.0978 -0.080679,-0.27465 V 115.7045 H 9.0152959 v -0.0772 l 0.214571,-0.0669 0.1733733,-0.36563 h 0.1081437 v 0.36563 h 0.369062 v 0.14419 h -0.369062 v 1.10032 q 0,0.11158 0.04978,0.16822 0.051497,0.0567 0.1338923,0.0567 0.099561,0 0.242036,-0.0275 v 0.11157 q -0.06008,0.0412 -0.1733733,0.067 -0.1132935,0.0275 -0.2094213,0.0275 z"
         id="path29690" />
    </g>
    <path
       style="fill:none;stroke:#000000;stroke-width:0.021294px;stroke-linecap:butt;stroke-linejoin:miter;stroke-opacity:1"
       d="m 6.7757925,124.80585 -0.790562,3.08779"
       id="path30692" />
    <path
       style="fill:none;stroke:#000000;stroke-width:0.021294px;stroke-linecap:butt;stroke-linejoin:miter;stroke-opacity:1"
       d="m 5.9852305,127.89364 1.434138,-0.46263"
       id="path30696" />
    <circle
       style="fill:#000000;fill-opacity:0.98432;stroke:#ffffff;stroke-width:0"
       id="path29809"
       cx="5.9964118"
       cy="127.83977"
       r="0.11107892" />
    <circle
       style="fill:#000000;fill-opacity:0.98432;stroke:#ffffff;stroke-width:0"
       id="path29811"
       cx="6.7754626"
       cy="124.81882"
       r="0.083514526" />
    <circle
       style="fill:#000000;fill-opacity:0.98432;stroke:#ffffff;stroke-width:0"
       id="path29813"
       cx="7.4204459"
       cy="127.41852"
       r="0.11470279" />
    <path
       style="fill:none;stroke:#000000;stroke-width:0.021294px;stroke-linecap:butt;stroke-linejoin:miter;stroke-opacity:1"
       d="m 8.2305365,122.66894 1.163074,0.63611"
       id="path30704" />
    <path
       style="fill:none;stroke:#e8e8e8;stroke-width:0.021294px;stroke-linecap:butt;stroke-linejoin:miter;stroke-opacity:1"
       d="m 8.2495915,122.69256 1.163074,0.6361"
       id="path30704-8" />
    <circle
       style="fill:#000000;fill-opacity:0.98432;stroke:#ffffff;stroke-width:0"
       id="path29815"
       cx="9.3476915"
       cy="123.35316"
       r="0.19988205" />
    <path
       style="fill:none;stroke:#e8e8e8;stroke-width:0.021294px;stroke-linecap:butt;stroke-linejoin:miter;stroke-opacity:1"
       d="m 9.4126655,123.32866 -1.185846,0.93939"
       id="path30702-2" />
    <circle
       style="fill:#000000;fill-opacity:0.98432;stroke:#ffffff;stroke-width:0"
       id="path29817"
       cx="8.229764"
       cy="122.76501"
       r="0.10089224" />
    <path
       style="fill:none;stroke:#e8e8e8;stroke-width:0.021294px;stroke-linecap:butt;stroke-linejoin:miter;stroke-opacity:1"
       d="m 8.2495915,122.69256 -0.02277,1.57549"
       id="path30700-6" />
    <path
       style="fill:none;stroke:#000000;stroke-width:0.021294px;stroke-linecap:butt;stroke-linejoin:miter;stroke-opacity:1"
       d="m 7.4193685,127.43101 0.788396,-3.18657"
       id="path30694" />
    <path
       style="fill:none;stroke:#000000;stroke-width:0.021294px;stroke-linecap:butt;stroke-linejoin:miter;stroke-opacity:1"
       d="m 8.2077645,124.24444 -1.431972,0.56141"
       id="path30698" />
    <path
       style="fill:none;stroke:#000000;stroke-width:0.021294px;stroke-linecap:butt;stroke-linejoin:miter;stroke-opacity:1"
       d="m 8.2305365,122.66894 -0.02277,1.5755"
       id="path30700" />
    <path
       style="fill:none;stroke:#e8e8e8;stroke-width:0.021294px;stroke-linecap:butt;stroke-linejoin:miter;stroke-opacity:1"
       d="m 6.7948485,124.82946 -0.790563,3.08779"
       id="path30692-6" />
    <path
       style="fill:none;stroke:#e8e8e8;stroke-width:0.021294px;stroke-linecap:butt;stroke-linejoin:miter;stroke-opacity:1"
       d="m 6.0042855,127.91725 1.434138,-0.46262"
       id="path30696-7" />
    <path
       style="fill:none;stroke:#e8e8e8;stroke-width:0.021294px;stroke-linecap:butt;stroke-linejoin:miter;stroke-opacity:1"
       d="m 7.4384235,127.45463 0.788396,-3.18658"
       id="path30694-7" />
    <path
       style="fill:none;stroke:#e8e8e8;stroke-width:0.021294px;stroke-linecap:butt;stroke-linejoin:miter;stroke-opacity:1"
       d="m 8.2268195,124.26805 -1.431971,0.56141"
       id="path30698-6" />
    <circle
       style="fill:#000000;fill-opacity:0.98432;stroke:#ffffff;stroke-width:0"
       id="path29819"
       cx="8.1903868"
       cy="124.2718"
       r="0.090902202" />
    <circle
       style="fill:#f2f2f2;fill-opacity:0.98432;stroke:#ffffff;stroke-width:0"
       id="path29809-5"
       cx="5.9524674"
       cy="127.91299"
       r="0.11443714" />
    <circle
       style="fill:#f2f2f2;fill-opacity:0.98432;stroke:#ffffff;stroke-width:0"
       id="path29811-9"
       cx="6.7550693"
       cy="124.80071"
       r="0.086039402" />
    <circle
       style="fill:#f2f2f2;fill-opacity:0.98432;stroke:#ffffff;stroke-width:0"
       id="path29813-2"
       cx="7.4195533"
       cy="127.47902"
       r="0.11817057" />
    <path
       style="fill:none;stroke:#000000;stroke-width:0.021294px;stroke-linecap:butt;stroke-linejoin:miter;stroke-opacity:1"
       d="m 9.3936105,123.30505 -1.185846,0.93939"
       id="path30702" />
    <circle
       style="fill:#f2f2f2;fill-opacity:0.98432;stroke:#ffffff;stroke-width:0"
       id="path29815-6"
       cx="9.4050665"
       cy="123.29073"
       r="0.20592503" />
    <circle
       style="fill:#f2f2f2;fill-opacity:0.98432;stroke:#ffffff;stroke-width:0"
       id="path29817-8"
       cx="8.2533388"
       cy="122.68481"
       r="0.10394249" />
    <circle
       style="fill:#f2f2f2;fill-opacity:0.98432;stroke:#ffffff;stroke-width:0"
       id="path29819-5"
       cx="8.2127714"
       cy="124.23716"
       r="0.093650423" />
  </g>
  <g
     inkscape:groupmode="layer"
     id="layer2"
     inkscape:label="components"
     style="display:none">
    <circle
       style="fill:#0000ff"
       id="path951"
       cx="5.0799999"
       cy="114.2661"
       r="4.1654868"
       inkscape:label="Right"
       inkscape:transform-center-y="8.3844213" />
    <circle
       style="fill:#0000ff"
       id="path951-8"
       cx="5.0799999"
       cy="104.40625"
       r="4.1654868"
       inkscape:label="Left" />
    <circle
       style="display:inline;fill:#00ff00"
       id="path951-4"
       cx="5.0799999"
       cy="22.259804"
       r="4.1654868"
       inkscape:label="Right"
       inkscape:transform-center-y="8.3844213" />
    <circle
       style="display:inline;fill:#00ff00"
       id="path951-8-1"
       cx="5.0799999"
       cy="12.399956"
       r="4.1654868"
       inkscape:label="Left" />
    <circle
       style="fill:#ff0000"
       id="path951-8-8"
       cx="5.0799999"
       cy="69.693031"
       r="4.1654868"
       inkscape:label="Knob" />
    <circle
       style="display:inline;fill:#ff00ff"
       id="path951-8-8-2-0"
       cx="5.0799999"
       cy="54.70327"
       inkscape:label="LED2"
       r="1.2402273" />
    <circle
       style="display:inline;fill:#ff00ff"
       id="path951-8-8-2-0-7"
       cx="5.0799999"
       cy="58.183052"
       inkscape:label="LED3"
       r="1.2402273" />
    <circle
       style="display:inline;fill:#ff00ff"
       id="path951-8-8-2-0-1"
       cx="5.0799999"
       cy="51.223488"
       inkscape:label="LED1"
       r="1.2402273" />
  </g>
</svg>
