<?xml version="1.0" encoding="UTF-8" standalone="no"?>
<!-- Created with Inkscape (http://www.inkscape.org/) -->

<svg
   width="10.16mm"
   height="128.5mm"
   viewBox="0 0 10.16 128.5"
   version="1.1"
   id="svg5"
   inkscape:version="1.1 (c4e8f9ed74, 2021-05-24)"
   sodipodi:docname="Sulafat.svg"
   xmlns:inkscape="http://www.inkscape.org/namespaces/inkscape"
   xmlns:sodipodi="http://sodipodi.sourceforge.net/DTD/sodipodi-0.dtd"
   xmlns="http://www.w3.org/2000/svg"
   xmlns:svg="http://www.w3.org/2000/svg">
  <sodipodi:namedview
     id="namedview7"
     pagecolor="#ffffff"
     bordercolor="#666666"
     borderopacity="1.0"
     inkscape:pageshadow="2"
     inkscape:pageopacity="0.0"
     inkscape:pagecheckerboard="0"
     inkscape:document-units="mm"
     showgrid="false"
     inkscape:snap-page="true"
     inkscape:snap-midpoints="true"
     inkscape:snap-object-midpoints="true"
     inkscape:snap-smooth-nodes="true"
     inkscape:snap-intersection-paths="true"
     inkscape:zoom="3.920673"
     inkscape:cx="47.950951"
     inkscape:cy="417.91295"
     inkscape:window-width="1911"
     inkscape:window-height="1043"
     inkscape:window-x="4"
     inkscape:window-y="16"
     inkscape:window-maximized="1"
     inkscape:current-layer="layer1" />
  <defs
     id="defs2" />
  <g
     inkscape:label="Layer1"
     inkscape:groupmode="layer"
     id="g3368"
     style="display:inline">
    <rect
       style="display:inline;fill:#cccccc"
       id="rect846-7"
       width="10.16"
       height="128.5"
       x="-3.5762787e-07"
       y="-4.7758222e-06" />
    <path
       style="fill:#f6f6fe;stroke-width:0.0550107"
       d="M 6.5313592,74.891961 C 5.8820906,72.802244 4.4804697,69.510991 5.8643275,67.30279 6.1018767,62.117857 3.9980284,62.122043 2.9762787,60.902504 1.3109411,60.493966 2.4536018,53.435426 0.95141998,51.628617 0.43897008,50.195098 -0.29434159,48.998783 -0.06618717,46.333659 -0.33498737,42.126495 1.1441995,45.794095 1.8436479,44.450966 c 1.6133637,0.749008 3.2901647,0.277988 4.8131283,2.655958 0.6665969,1.667151 1.3975989,3.157861 1.6645285,-0.735995 0.4985492,-1.173144 1.9892623,-1.499592 0.8359634,0.980039 -0.8828136,4.592089 1.6119049,0.234484 0.9468459,5.091313 0.0017,2.289168 6.07e-4,4.578349 9.25e-4,6.867523 -0.5255045,1.484592 -2.5334542,4.106198 -1.3506001,6.242623 0.6263046,0.937072 1.6546811,-0.55678 1.3505991,2.941787 0.075,2.985035 0.09133,6.09795 -0.9835525,3.660943 C 7.9295007,70.32684 7.5405666,75.55075 6.5313684,74.891961 Z M 8.516732,54.653746 C 8.2749093,52.196585 5.5789881,52.291579 7.4350221,53.280882 7.8943457,52.961296 8.1328213,54.933474 8.516732,54.653746 Z M 6.1283733,49.988191 c 1.5392642,-2.070511 -2.3454516,-4.880514 -1.38613,-2.433648 0.5019123,0.602842 0.8018803,3.152644 1.38613,2.433648 z M 9.4515227,44.995356 C 9.7130624,43.02386 10.299077,41.388755 10.105008,44.533227 9.9354615,44.944231 9.6657895,45.103373 9.4515227,44.995356 Z M 3.1714975,44.409822 c -0.8430813,-0.909807 0.635087,-3.701772 0.4504235,-6.038296 0.5953101,-3.035999 1.8074112,3.781211 1.7170607,4.976847 -0.7123303,0.608193 -1.4196566,1.426484 -2.1674842,1.061449 z m 6.6925681,-9.551458 c -0.8293086,-0.557488 -1.3154801,-2.819846 0.00345,-2.60862 0.6397964,-1.642185 0.3190244,4.29245 -0.00345,2.60862 z M 9.9911837,29.818301 C 9.0973236,25.368974 6.9717364,21.953598 5.8847479,18.118102 6.7697282,15.05724 8.47792,22.323153 9.4235555,23.451773 c 0.9444635,-0.0011 0.7239275,6.464543 0.5939355,6.537901 z M 9.2711567,11.183357 C 7.6974785,10.227619 6.2677551,7.3483823 4.9647187,4.2443035 4.3991948,3.2147746 4.1530847,1.0350322 4.9529645,2.789115 6.535441,4.7505312 8.0138411,7.7152594 9.39571,10.959548 9.4984764,11.262698 9.301194,11.405145 9.2711567,11.183357 Z M 4.2061039,1.905835 c -0.092983,-0.4627977 0.1688566,0.6018258 0,0 z"
       id="path5042"
       sodipodi:nodetypes="scccccccccccccsscccccccccccccccccccccccccccc" />
    <path
       style="fill:#facefd;stroke-width:0.0550107"
       d="m 5.3095914,68.81441 c 0.3397974,-1.062022 0.3538501,-0.353209 0,0 z m 0.3359861,-0.856282 c 0.17478,-1.240708 0.4026173,-0.519262 0,0 z M 5.8652026,66.667624 C 5.2073448,61.855095 3.4038761,62.281128 2.1811516,60.29686 1.2462092,58.56324 2.318043,53.635841 0.96995071,52.330825 0.38037077,51.944558 -0.64859359,46.870614 0.41194533,50.133993 1.3224591,52.264373 2.23954,55.117757 1.9777957,59.159929 c 1.0807045,3.18021 2.8686053,1.736862 3.8386331,5.67599 0.1268523,-0.04247 0.2076969,2.740114 0.048774,1.831705 z M 8.2813452,55.101019 C 7.9321474,53.495361 5.4523879,52.72467 7.5115368,52.339991 c 0.082839,-0.427786 1.7635293,2.715358 0.7698084,2.761028 z M 5.6068103,50.474285 c -0.4591807,-1.11425 -2.0823986,-4.741989 -0.3786572,-3.86321 0.7848068,-0.07553 2.4543749,3.792346 0.3786572,3.86321 z M 9.3414251,49.865767 C 8.017581,49.400241 9.0164927,43.074817 8.8885528,45.65821 8.2986884,46.212045 7.7784558,51.906278 6.8883059,47.953067 5.4137657,45.27415 3.8781369,45.082747 2.2657378,44.631019 1.6052702,43.810747 -0.19276028,46.378112 -0.06618717,42.361191 -0.28702216,38.756396 0.21435482,40.57829 0.74674162,39.180277 1.8495242,40.220213 2.6787435,38.04789 1.530298,37.607597 0.92602601,35.935373 -0.25048503,39.863128 -0.06618717,36.102692 0.03259657,33.349682 1.5511289,33.683266 2.2690176,32.354974 c 1.4701818,-0.298973 2.050859,5.448597 3.0626037,8.134381 0.8978804,1.335892 1.8854117,1.994826 2.8192632,2.950293 0.7896624,0.438408 1.6399592,-1.168695 1.9322005,-3.754986 0.290466,2.415204 -0.333328,3.61143 -0.6318737,5.309113 0.9829877,-1.902068 0.6745977,3.317551 0.4829981,4.720302 -0.1917599,0.171852 -0.3955942,0.297181 -0.5927843,0.15169 z M 4.1094838,44.376585 c 0.6315702,-0.496538 2.0073013,-0.822638 0.9059776,-3.429773 -0.3146055,-2.868133 -1.456945,-5.346987 -1.5666072,-0.79498 -0.00797,1.934464 -1.23999,4.443033 -0.00754,4.300993 0.2227749,0.01826 0.4466003,0.01751 0.6681718,-0.07624 z M 7.0538499,36.389848 C 6.4887856,35.933814 5.9012374,33.761726 6.9616844,34.364902 9.4485712,29.313522 9.3180757,33.59308 8.8525388,36.393317 8.5788515,36.745271 7.3325445,36.628554 7.0538499,36.389848 Z M 9.9675811,34.700775 C 9.4027911,33.445672 7.379994,33.513164 8.8005239,30.690313 9.8576379,27.614179 7.4135411,24.431971 6.7387074,22.699684 5.9269002,21.819478 5.4605568,20.055673 6.4530771,18.538388 7.9798722,15.460274 5.1828067,15.345002 4.9927697,11.594508 4.210631,7.2132704 3.0823161,3.3178291 1.6235912,1.8118444 0.50101453,-0.1750331 1.5693306,0.3348098 2.1272635,0.28054753 4.7711,0.15105257 7.4292138,0.51897186 10.064107,0.14574438 10.142253,8.5282335 10.077749,16.943059 10.089758,25.339748 8.9750044,23.19861 8.0245632,20.194601 6.9526982,17.833148 c -1.0680946,2.316621 1.1477974,4.960665 1.589335,7.108153 0.8609473,1.490697 2.5362228,7.81518 0.5939866,7.82287 0.056059,0.383061 1.4170862,1.887284 0.8315613,1.936604 z M 9.4195464,11.184854 C 8.5308951,8.5311042 7.3916456,6.7612482 6.348094,4.7961002 5.7956176,3.8457881 3.4475444,0.13078609 4.9647187,4.2443035 6.2921079,7.4342275 7.7585835,10.290041 9.3626488,11.285267 l 0.056898,-0.10041 z M 4.2710887,2.0418097 c -0.099921,-0.3929697 -0.1478558,-0.2833073 0,0 z M -0.06618717,7.0287734 C 0.04847602,4.0262685 -0.53811095,-1.28598 0.83721815,0.29586967 1.6296565,1.596563 0.85084042,3.2279757 0.85408395,5.4893873 0.01358608,7.8156887 0.82818564,12.661492 -0.06618717,13.959826 Z"
       id="path5040"
       sodipodi:nodetypes="ccccccccccccccccccccccccccccccccscccsscccccccccccccccccsccccsccccccc" />
    <path
       style="fill:#e7a9fd;stroke-width:0.0550107"
       d="M 5.1747097,64.591146 C 4.190208,61.006026 2.3549903,62.752652 1.510903,58.72256 2.1293599,54.377949 0.32974605,52.165173 0.01179203,50.11161 1.0696036,52.002841 2.1565362,54.8344 1.7838935,59.25942 c 1.0445746,3.187539 2.7915243,2.024867 3.7332149,5.749008 4.047e-4,0.738147 -0.3099761,-0.373155 -0.3423987,-0.417282 z M 7.9822086,43.301547 C 6.792044,41.703059 5.2278964,41.958929 4.5319502,37.589418 3.8047733,33.298017 2.1545129,31.277323 0.82611851,34.480566 -0.04001826,36.839917 -0.33285124,32.878496 0.02327619,30.599009 1.1263644,29.779251 2.6472248,27.885088 3.4972091,31.464983 4.4284047,34.097502 4.6600109,39.694013 6.057924,40.030108 6.9664068,41.50391 9.3298004,39.845743 7.2644198,38.203164 6.130427,37.648167 5.8995129,33.354359 4.7373231,31.79206 4.3108288,29.85412 2.702904,29.845759 2.8736916,27.882438 3.5795181,28.594931 4.9383079,27.968968 3.7671085,25.339876 3.186381,24.233742 2.8808516,22.69919 3.3196562,21.189706 2.5176032,17.382666 0.41493285,21.315618 -0.06173759,16.560392 -0.261119,13.713008 0.51391733,12.722717 0.07255467,9.535753 0.54488473,7.0280373 0.44799242,3.6425474 0.85709033,1.8297098 0.70465503,-0.19485115 -0.06254795,0.38479682 1.0264001,0.24262994 1.7021226,0.22922869 3.7033928,0.23800226 2.0094661,0.301113 1.4337776,0.3177906 0.58581841,-0.00935484 1.6241046,1.8121058 3.1951692,3.3821797 4.3167973,7.7847902 5.1634964,12.395976 c 0.2806913,3.171394 2.7942076,3.218347 1.2895798,6.142409 -1.5256341,2.44878 0.4391119,4.113435 1.0485374,5.661788 1.0965616,1.655983 2.4410021,6.062635 0.7379215,8.270459 -0.5856861,1.050226 -1.2076437,2.350893 -1.8929325,1.977395 0.7794052,3.41734 2.2218581,-0.523947 2.4377823,4.076335 0.9840033,4.023693 1.7579371,-4.458336 0.175237,-3.849543 -0.7915935,-1.030056 1.1640921,-1.668605 1.1460331,0.838851 0.17174,3.652092 -0.2733776,7.624426 -1.4885714,7.955526 -0.2122071,0.0881 -0.42861,0.02013 -0.634875,-0.167649 z M 1.0136238,41.293224 C -0.21166795,42.679635 -0.58505663,36.21276 0.82268966,37.005289 1.5197409,35.351923 3.6889259,39.299861 2.5320124,41.300083 2.0783325,41.385603 1.4749222,41.506212 1.0136238,41.293224 Z M 6.2205687,0.22158687 c 0.7086445,-0.0117522 2.5130709,-0.02857 2.486707,0.0223518 -0.7338541,-0.001582 -2.2914911,0.0267529 -2.486707,-0.0223518 z"
       id="path5038"
       sodipodi:nodetypes="cccccccccccccccccccccccccccccccccccccccc" />
    <path
       style="fill:#b0d7fe;stroke-width:0.0550107"
       d="M 5.5085252,100.98421 C 4.9255388,101.23392 3.80508,99.276166 4.8150029,99.673941 c 1.9270564,-1.181216 3.0603896,1.563489 1.4684461,1.158619 -0.2004558,0.2185 -0.5533365,0.32921 -0.7749238,0.15165 z M 9.8290373,88.536596 C 8.7922558,85.22437 7.7206452,82.048288 6.5035091,79.529523 5.4976423,76.898741 3.9908733,74.745955 2.7927112,75.528765 1.790598,74.041292 3.0235007,72.862601 3.3547627,72.932573 3.9867578,70.309735 5.4875406,67.27511 5.3141238,64.749482 c 1.5000726,2.663749 -0.8226008,4.428244 0.4386835,6.8235 0.5209347,3.924477 1.4075223,3.839488 2.137287,0.473127 0.6349777,-0.571709 2.3699427,-0.445223 2.2149367,2.863682 0.152614,2.114358 -1.6049586,1.338043 -0.5353935,4.176933 0.9954965,1.633452 0.3666991,6.352281 0.5224175,9.4538 0.07516,1.250642 -0.1332513,0.139287 -0.2630182,-0.0039 z M 9.4788741,66.076599 C 8.219684,66.827476 8.0392207,62.085342 9.2505415,61.244617 c 0.7459078,-2.342224 0.9602855,-2.024729 0.8462885,1.02822 -0.08111,2.036626 0.354656,4.633684 -0.6179559,3.803762 z M 8.300031,36.056071 C 8.4859083,34.741363 7.4113279,33.06635 8.1147145,32.629795 c 0.7524903,-0.161754 0.9921387,2.93141 0.1853165,3.426276 z"
       id="path5036"
       sodipodi:nodetypes="ccccscccccccccssccccccc" />
    <path
       style="fill:#abaffe;stroke-width:0.0550107"
       d="m 2.1483215,109.67472 c -1.15203077,-1.5877 -0.062847,-5.78049 0.068142,-8.42267 0.6507545,-5.116569 4.0043483,-6.191128 3.8682999,-2.805467 1.3395813,0.08916 2.6811515,0.394734 4.0202666,0.107641 0.089,2.947716 -1.4768621,0.483495 -1.9548284,3.078216 -1.2667962,1.55795 -2.438457,3.84343 -3.5679632,6.32552 -0.7541034,1.20488 -1.5971219,2.04132 -2.4339169,1.71676 z M 5.97409,100.70193 c 0.6762379,-0.004 1.1406059,-0.23251 0.2446199,-1.000736 -0.5431066,-0.645471 -2.6976126,0.260346 -1.0517453,1.037456 0.2738414,0.19036 0.5356025,0.48237 0.8071254,-0.0367 z M 0.34615946,97.520391 c -0.8760548,0.356386 -0.54741033,-7.037041 0.28171445,-3.973552 0.73445959,1.087074 3.13860839,0.01569 2.95987119,2.267301 -0.8491436,2.014914 -2.3085405,2.041312 -3.24158564,1.706251 z M 9.6926833,89.751547 C 8.5081609,87.127225 7.1829271,85.199109 6.2220806,81.553857 5.2225656,78.72293 4.0824755,75.786043 2.7086143,76.78262 0.84226236,75.482818 1.6743104,69.611362 2.9803489,70.637513 4.3940142,70.13311 5.1456518,63.639416 3.472754,62.752977 2.4018064,61.507516 0.86028617,60.13712 1.4583997,55.142163 1.2938174,52.941875 -0.91707652,49.037688 0.60363056,52.061629 c 1.52457454,1.744702 0.29773426,9.131084 2.15305034,9.269643 0.8827375,0.557195 3.592799,2.721234 2.2243491,6.935631 -0.8688447,1.125281 -1.1909487,5.71498 -1.9625945,5.057363 -0.9220918,1.084014 -0.182729,2.96795 0.3083001,1.820793 1.521489,0.842963 2.8745885,3.08749 4.0662082,6.445728 1.0309033,1.985999 1.7415179,5.354234 2.7120862,7.598253 0.01813,1.779667 0.03897,1.612388 -0.4123467,0.562507 z m 0.057839,-10.225951 c -1.2960481,-1.062792 0.3314947,-5.647301 0.3545077,-2.396327 -0.04639,0.961795 0.181858,4.241329 -0.3545077,2.396327 z M 6.8699164,40.845938 C 5.4010946,41.329164 4.5651848,36.672268 3.8945196,32.993783 3.2232416,28.701736 1.8553445,29.52159 0.67825989,30.492626 -0.53070752,32.985529 0.01098614,26.323837 0.94907464,28.563637 2.1508782,29.463983 1.0272204,23.553125 2.2156455,25.9462 2.9600683,26.988671 3.729762,25.099126 2.7026746,23.603416 2.3381102,22.298165 0.64615365,18.622059 0.93400319,19.00068 1.6371515,19.477524 4.1309014,18.873005 3.2451423,22.815536 c 0.4710382,1.692866 1.8682965,6.06398 0.1859818,5.165671 -1.7179599,0.187214 1.1896699,2.501828 1.6002587,4.533692 1.1312765,1.789439 1.3650613,5.474074 2.6637667,5.613955 1.6815917,2.009945 -0.2251346,3.096187 -0.8252331,2.717084 z M 2.2505493,20.497708 c -0.1219898,-0.214293 -0.027936,0.226553 0,0 z M 9.006782,39.558231 C 7.768885,37.164735 9.1459002,31.83538 9.9029643,36.485027 10.188756,38.30805 9.4786943,40.088556 9.006782,39.558231 Z M 2.4894788,0.12249838 c 1.7820276,-0.00671 3.5641708,-0.0326207 5.3461255,0.0183058 -1.8794199,0.010977 -3.7588481,0.0109314 -5.6382678,3.84e-6 z"
       id="path5034"
       sodipodi:nodetypes="ccccccccccsccccccccccccccccccccccccccccccccccccccccccc" />
    <path
       style="fill:#8f8cfe;stroke-width:0.0550107"
       d="m 1.8886414,111.84196 c -0.5301603,-1.45573 -1.89173105,-0.38785 -1.95486471,-2.58964 -0.15911702,-3.60006 0.8233205,-4.79356 1.24383381,-7.70972 0.6174921,-3.964375 -1.43629399,0.0322 -1.24379767,-3.062376 C 0.05120596,95.834993 1.7604272,98.657597 2.4264091,97.018041 3.1073485,96.662951 3.9663233,94.192087 2.748235,94.513467 1.8989864,93.80968 0.14071826,95.438672 -0.06618717,91.71773 1.5301151,95.068048 3.5219038,93.204361 5.237587,94.854305 4.4999164,95.015124 4.021733,97.0902 5.0620439,96.989648 6.4867725,97.427589 8.0014266,98.013829 9.3719695,96.693155 9.2177912,95.909189 10.645577,96.199941 10.028075,98.566939 7.9399285,98.913782 5.8491737,98.3106 3.7657253,98.036518 2.3127062,98.217064 2.1707602,104.1179 1.6232848,107.53766 c 0.3711203,4.28316 2.1296852,1.4853 2.9589537,0.42028 1.1854518,-2.68194 2.0939276,-5.21574 3.4202556,-6.95321 0.3422989,-2.11859 2.7746349,-1.222106 1.8351521,0.40594 -0.9717102,0.28493 -0.8206156,5.85686 -2.1266969,4.81768 -1.5318211,0.20994 -2.6967278,4.39102 -4.2097688,4.99808 -0.5222844,0.50078 -1.0724836,0.69384 -1.6125391,0.61553 z m 8.0331235,-1.12242 c -1.082913,0.11416 0.5743021,-6.48123 0.1832651,-1.88724 -0.08761,0.37229 0.164827,2.671 -0.1832651,1.88724 z M 9.8470201,91.475503 C 8.4801899,88.799166 6.9071714,87.699427 5.4015165,86.394653 4.5578776,86.103096 3.7091095,86.252823 2.8628998,86.243248 2.5218073,83.572374 3.1540828,79.777749 3.8397743,78.712887 2.8836841,78.597414 0.80980215,77.067447 1.6340999,72.084043 2.439184,69.839559 4.9036522,69.0557 3.5482591,63.811598 2.6529208,61.3961 0.55454597,60.997225 1.4546628,55.492671 c -0.49748417,-2.567099 -0.2960763,-2.204107 0.052572,0.0061 -0.72993463,5.28418 1.3672838,5.460525 2.3419501,7.088293 1.9899397,2.418592 -0.2199104,9.162931 -1.5183231,8.823749 -1.38238762,2.25522 -0.079672,6.511377 1.0113435,4.61669 1.3279003,0.197577 2.5096244,4.706885 3.48696,7.400379 0.9547107,2.987863 2.2050051,4.610348 3.2605927,7.174687 -0.0072,0.561624 0.109253,2.13939 -0.2427377,0.872965 z M 0.8501387,52.899305 C 0.3701233,51.805907 -0.51809248,49.76532 0.50420293,51.956099 c 0.078755,0.0539 0.80687777,2.157137 0.34593577,0.943206 z M 0,29.072945 C -0.66682167,24.171408 1.3004665,27.012811 0.76011943,22.494886 0.3509551,20.435391 2.0857614,26.019951 1.5187696,22.791445 1.055043,21.278298 -0.32316904,16.687086 1.2085133,19.389487 1.6080669,21.348804 3.4915434,24.224137 3.4073111,26.227738 2.7173817,27.653771 1.5653407,24.062051 1.717894,28.206592 1.1557615,29.787465 0.49618723,28.219755 0,29.072945 Z m 1.8523701,-9.227947 c 0.1332496,-0.145996 0.014843,0.192381 0,0 z"
       id="path5032"
       sodipodi:nodetypes="ccccccccccccccccccccccsccccccccccccsscccccccccccc" />
    <path
       style="fill:#8e75fd;stroke-width:0.0550107"
       d="m -0.06618717,113.51572 c -0.18177307,-2.68409 -0.35642983,-4.13715 0.94598029,-3.01513 1.06490908,1.72035 2.54986238,0.36337 1.83354158,1.9479 -0.8749166,1.46499 -1.85942099,2.59075 -2.7558497,4.05212 -0.04810564,-0.98104 -0.0095201,-1.99535 -0.02367217,-2.98489 z m 0,-10.11468 c 0.11613868,-1.18481 -0.26415269,-3.971609 0.25198962,-3.865598 0.93154095,-0.961075 2.14381305,0.481698 0.88184915,3.462288 -0.45459579,1.77989 -1.38143406,6.4524 -1.13383877,1.54321 z m 10.07958417,2.01468 c -0.6017827,0.40872 -0.2641025,-3.2998 -0.1832667,-3.96449 0.4679237,-0.84961 0.2728287,4.00065 0.1832667,3.96449 z M 9.7843159,95.189187 C 8.4833514,95.092007 10.636722,94.920647 9.6499937,93.05845 8.657787,90.227409 7.0696993,89.221886 6.0884695,88.062202 5.3317771,87.615656 6.4010494,87.75848 5.9847072,87.378974 c 0.3859869,-0.791363 1.8414619,0.998278 2.6645472,1.59099 0.5590201,1.203659 1.6264896,1.584375 1.4557376,4.679129 -0.05082,0.643634 0.146004,2.519792 -0.3206761,1.540094 z m -3.5278544,-7.41028 c 0.1152892,-0.38465 -0.236836,0.338219 0,0 z m 0.046624,-0.47624 c -0.1375571,0.126959 -0.056128,0.275153 0,0 z m 2.7328974,7.708699 c 0.2664301,-0.315224 -0.087358,0.37685 0,0 z m -0.3818026,-0.09907 c 0.425851,-0.353521 0.1596671,0.364661 0,0 z M 0.68214563,89.965458 C -0.63595071,88.792269 0.40742648,84.845548 1.1912313,83.888856 2.3418875,82.576645 2.4074608,78.34574 1.260474,76.787191 0.21915522,72.341977 1.6886466,69.588152 2.6724802,68.246072 3.3958007,61.975002 0.91178435,62.921193 0.65651675,58.505482 1.2747347,55.468144 0.40612158,53.46516 -0.06521971,51.482166 c 0.8457356,-0.471241 1.94489381,4.421294 1.32820101,7.853587 0.7478722,3.170915 3.0942741,2.838553 2.7556379,8.578081 -0.722198,2.834956 -3.2646395,2.65756 -2.0558077,8.434721 0.3432418,2.452288 2.6484247,1.304127 1.4451638,4.816372 -0.7550666,2.215504 -0.1848328,5.856138 -0.435015,5.425078 -0.5150905,0.467556 -1.4146289,1.136233 -1.844714,2.547348 -0.1146872,0.607939 -0.18574986,1.094456 -0.44610067,0.828105 z M 5.7601183,88.010516 c 0.1683476,-0.162611 0.030912,0.17386 0,0 z M 0.48079748,26.979675 c -1.01140764,0.540007 -0.3988959,-5.063157 -0.54698465,-7.694129 -0.03234036,-3.871293 1.22160477,1.961963 1.69518867,2.390147 1.0636888,1.991879 -0.240146,3.469596 -0.73561989,1.946578 0.10746359,1.163543 0.32039749,3.6398 -0.41258413,3.357404 z"
       id="path5030"
       sodipodi:nodetypes="cccccccccccccccccccccccccccccccccccccccccccccccc" />
    <path
       style="fill:#7d82fe;stroke-width:0.0550107"
       d="m 2.6217021,112.75731 c 0.5059549,-2.06923 1.4894498,-1.90836 2.2521268,-3.50998 1.098181,-2.48493 2.4331147,-3.24202 3.6883403,-4.04818 0.3400761,-1.07766 1.1588193,-5.555636 1.2570025,-3.05256 0.1078221,3.3005 1.0894583,3.23608 0.065468,6.44929 -0.9157152,1.94819 1.1624863,3.05232 -0.367829,2.84261 -1.3148065,0.95059 -2.28733,-3.35201 -3.5097988,-0.99527 -1.0790674,1.53321 -2.2351329,2.04843 -3.3853098,2.31409 z M 5.6365098,97.568899 C 4.9159136,97.757579 3.2363219,96.672017 4.8424916,94.947003 3.8765695,93.761208 2.798894,94.264444 1.7521897,93.695424 1.232951,94.328731 -0.66128111,91.133616 0.17031174,90.738762 2.4201307,94.990031 5.0754037,93.284925 7.519786,94.491761 c 0.833414,0.175181 1.3047675,0.543704 1.9919796,0.606636 1.4092254,0.427149 -0.169512,2.170378 -0.097752,1.959162 -0.9448312,1.09219 -2.7775295,0.488315 -3.7775038,0.51134 z M 1.275423,91.448952 C 0.15551329,90.150922 -3.5762787e-7,89.508607 1.1356805,88.101999 c 0.9951005,-1.293942 1.4410564,-2.271639 2.529,-2.214472 0.619019,-0.220178 2.5214682,0.523541 2.8060418,1.141321 -0.6084359,0.0401 0.8778499,1.789135 0.2191882,1.67586 0.7344091,0.752355 -2.1535017,-0.700572 -2.5401364,0.01067 -1.0855818,-0.04129 -1.7912403,3.934853 -2.8743511,2.733579 z m 4.7037658,-2.688707 c 0.1332518,-0.145992 0.014842,0.192379 0,0 z m 0.2009121,-0.981338 c 0.1776153,-0.488545 0.040778,0.412779 0,0 z m 0.068215,-0.408593 c 0.1644486,-0.298689 -0.074301,0.306425 0,0 z M 3.5185293,79.109863 c -1.3832888,-1.401798 1.1667632,-0.701348 0,0 z"
       id="path5028"
       sodipodi:nodetypes="cccccccccccccccccccccccccccccccc" />
    <path
       style="fill:#776efd;stroke-width:0.0550107"
       d="m -0.06618717,117.46716 c 0.65282904,-2.9507 2.23615147,-4.75283 3.36272327,-5.46467 1.3787115,0.0645 2.4854327,-2.55612 3.8300155,-2.8464 0.6496736,2.64121 2.8662541,0.93963 2.8862644,3.45471 -2.5288825,0.62783 -5.0388831,2.35307 -7.5576796,3.28157 -0.7328839,-0.39759 -2.24768284,3.18089 -2.52132357,1.57479 z M 8.4709155,94.756836 C 6.4463612,94.248593 3.8793832,94.468222 1.6463123,93.044467 0.34228459,92.524596 -0.43013544,89.709267 -0.05911571,85.075986 0.12784559,82.742167 2.4401308,81.741021 0.85816931,78.630374 -0.78572435,78.067651 0.15863559,70.143823 1.5405531,69.74987 2.9106204,67.606114 2.0507854,62.263101 0.62057077,62.091361 -0.09688994,61.118931 0.96507589,54.8368 0.06189747,55.754667 c -0.21282061,-3.093346 0.05963684,-4.367956 0.61063974,-1.678313 0.58278529,2.243907 -0.31778578,6.577397 1.11278609,7.467334 1.4629653,0.288311 1.9704248,7.777076 0.1085955,8.43314 -1.60330945,1.635046 -0.4330474,7.962101 0.6465661,9.823302 -0.014814,4.203083 -2.12857047,4.132639 -2.48449534,7.628428 -0.05253647,2.462603 1.40410984,4.251681 2.08433094,3.322596 1.5685002,-3.535877 3.6433047,-3.26287 5.38024,-1.237035 0.7353247,0.95125 2.5916565,2.584714 2.4496558,5.224807 -0.4302359,0.288274 -1.4226073,0.453279 -1.4993008,0.0179 -0.4825441,-2.739309 0,5e-6 0,5e-6 z"
       id="path5026"
       sodipodi:nodetypes="ccccccsccccccccccccccsss" />
    <path
       style="fill:#6a55f9;stroke-width:0.0550107"
       d="m -0.06580908,120.10206 c -0.1550649,-3.75787 1.54761718,-3.41779 2.26242828,-4.64319 1.6429585,-0.87001 3.3064599,-1.22733 4.9513212,-2.01554 0.8898851,0.42012 2.408191,-1.87918 2.9570896,-0.17817 -0.8783081,1.88138 -2.4723787,1.47597 -3.595168,2.96277 -1.3524713,1.18656 -2.7047802,2.79551 -4.0898761,3.12797 -0.7866516,-0.0116 -1.81697034,1.27602 -2.47037098,2.28269 l -0.01178783,-0.58716 z M -0.06618717,77.013696 C -0.02769034,74.619856 -0.13256338,71.6206 -3.5762787e-7,69.367711 0.84915493,69.324211 2.0176537,66.538681 0.77036042,64.095309 -0.58664158,63.93315 0.11409061,57.990317 0.05869942,55.436421 0.97354556,56.117602 0,62.302163 1.41302,62.185449 3.8340984,65.154051 1.671322,70.500405 0.57157183,71.511954 -0.40560578,74.604032 0.52787153,78.285607 1.5453848,79.018665 2.2390934,81.95355 -0.71195178,89.470998 0,81.058955 -0.0013191,79.748223 -0.06613377,78.324434 -0.06618717,77.013696 Z"
       id="path5024"
       sodipodi:nodetypes="cccccccccccccccccc" />
    <path
       style="fill:#5649f3;stroke-width:0.0550107"
       d="m 3.5074837,128.3005 c 0.7413174,-4.42835 2.1156023,-7.02466 3.4720671,-8.36674 0.8867717,-0.19282 2.5995712,-2.23945 3.1123112,-1.19007 0.02301,3.21787 0.0096,6.43728 0.01317,9.65588 -2.1990399,-0.0311 -4.3993268,0.0814 -6.5975459,-0.0991 z m -3.57367087,-3.69343 c -0.32822318,-4.0899 1.06520549,-5.5423 1.86148867,-5.31935 1.0807952,-0.81593 2.5163699,-0.9221 3.5839978,-2.25638 1.85355,-1.8242 3.1630051,-2.62468 4.7144897,-3.01969 -0.044,2.63084 -1.2184211,1.62481 -1.7750372,3.04804 -2.7193434,2.33199 -5.5254022,6.64596 -8.16620403,9.738 -0.38389293,1.60755 -0.15087357,-1.61761 -0.21873494,-2.19062 z m 6.7081e-4,-59.590596 c -0.07407858,-2.271723 0.1666,-10.969474 0.12100937,-4.538318 -0.10484321,3.548874 2.56841429,4.176093 0.9422761,8.176512 -0.75572498,0.566756 -1.31582033,2.085997 -1.06236183,-1.762836 l -7.5211e-4,-0.905134 z m 0.94619927,1.158282 c -0.0937403,-0.535327 -0.0558135,0.672047 0,0 z"
       id="path5022"
       sodipodi:nodetypes="ccccccccccccccccccccc" />
    <path
       style="fill:#4c3ce1;stroke-width:0.0550107"
       d="m 0.15254777,126.79769 c 0.81085369,-2.88865 1.50332893,-1.44684 3.09261933,-4.00237 2.4998006,-3.06572 4.5101237,-6.11608 6.8281989,-7.67177 0.361978,5.2911 -1.8529937,3.75052 -2.7648626,5.38898 -1.2737628,1.14768 -2.6264611,2.83451 -3.5180172,6.30508 -0.1517023,2.42623 -0.8823849,1.35975 -1.3838867,1.58196 h -2.47278667 c 0,0 0.08811193,-2.151 0.21873494,-1.60188 z M 0.81959451,66.235988 c 0.0558135,-0.672047 0.0937403,0.535327 0,0 z m -0.88511087,-7.015389 c 0.12649029,-3.018626 0.01889929,2.945878 0,0 z m -6.7081e-4,-59.22195372 c 3.38948477,-0.15260769 6.78173247,-0.15260768 10.17121717,0 -3.389136,0.15260522 -6.7820866,0.15260507 -10.17121717,0 z"
       id="path5020"
       sodipodi:nodetypes="ccccccccccccccc" />
  </g>
  <g
     inkscape:groupmode="layer"
     id="layer4"
     inkscape:label="Layer2"
     style="display:inline">
    <rect
       style="fill:#000000;fill-opacity:1;"
       id="rect15079"
       width="10.16"
       height="31.43298"
       x="-2.5897027e-08"
       y="97.067017"
       ry="5.0799999" />
    <rect
       style="display:inline;fill:#000000;fill-opacity:1;"
       id="rect15079-2"
       width="10.16"
       height="19.371714"
       x="-1.8003364e-07"
       y="109.12829"
       ry="0" />
    <rect
       style="display:inline;fill:#000000;fill-opacity:0.674541;"
       id="rect15079-8"
       width="10.16"
       height="31.43298"
       x="2.0724143e-16"
       y="46.218285"
       ry="5.0799999" />
    <rect
       style="display:inline;fill:#ececec;fill-opacity:0.98432004;"
       id="rect15079-3"
       width="10.16"
       height="31.43298"
       x="0"
       y="0"
       ry="5.0799999" />
    <rect
       style="display:inline;fill:#ececec;fill-opacity:0.98432;"
       id="rect15079-3-5"
       width="10.16"
       height="14.334105"
       x="-4.4408921e-16"
       y="1.7763568e-15"
       ry="0" />
  </g>
  <g
     inkscape:groupmode="layer"
     id="layer1"
     inkscape:label="Layer3">
    <g
       aria-label="sulafat"
       transform="scale(0.96107328,1.0405034)"
       id="text24448"
       style="font-size:3.51553px;line-height:1.25;font-family:'Tinos Nerd Font';-inkscape-font-specification:'Tinos Nerd Font';fill:#ececec;fill-opacity:0.98432;stroke:#ffffff;stroke-width:0">
      <path
         d="m 1.8280285,116.72067 q 0,0.24032 -0.1527745,0.36391 -0.1510579,0.12359 -0.4480241,0.12359 -0.1201597,0 -0.26606796,-0.0257 -0.14419166,-0.024 -0.2265869,-0.0549 v -0.39653 h 0.0772455 l 0.0841118,0.22487 q 0.12874252,0.11673 0.33473062,0.11673 0.3330141,0 0.3330141,-0.28495 0,-0.20943 -0.2626348,-0.29869 l -0.1527745,-0.0498 q -0.17337332,-0.0566 -0.25233542,-0.11501 -0.0789621,-0.0584 -0.12187629,-0.14247 -0.0429142,-0.0858 -0.0429142,-0.20599 0,-0.21286 0.14419166,-0.33473 0.14590823,-0.12359 0.39309393,-0.12359 0.1768065,0 0.4428744,0.0532 v 0.3519 h -0.080679 l -0.072096,-0.18711 q -0.090978,-0.0807 -0.2866668,-0.0807 -0.1390419,0 -0.2128543,0.0687 -0.0720958,0.0687 -0.0720958,0.18539 0,0.0978 0.0652295,0.16479 0.066946,0.0669 0.2008384,0.11158 0.2523354,0.0858 0.329581,0.12531 0.077245,0.0395 0.1304591,0.0978 0.05493,0.0567 0.084112,0.13046 0.030898,0.0738 0.030898,0.18196 z"
         id="path29678" />
      <path
         d="m 2.4923401,116.7138 q 0,0.29525 0.2746508,0.29525 0.2128543,0 0.3982436,-0.0532 v -1.27541 l -0.2437526,-0.0429 v -0.0772 h 0.5269862 v 1.49341 l 0.2042716,0.0429 v 0.0772 H 3.1824002 l -0.013733,-0.13046 q -0.1218762,0.067 -0.281517,0.11673 -0.1596408,0.0481 -0.2677845,0.0481 -0.4119762,0 -0.4119762,-0.47377 v -1.05397 l -0.2059881,-0.0429 v -0.0772 h 0.4909383 z"
         id="path29680" />
      <path
         d="m 4.3427998,117.05368 0.2763673,0.0429 v 0.0772 H 3.7831988 v -0.0772 l 0.2746508,-0.0429 v -2.20064 l -0.2746508,-0.0412 v -0.0773 h 0.559601 z"
         id="path29682" />
      <path
         d="m 5.4877504,115.52422 q 0.2643514,0 0.3879442,0.10815 0.1253094,0.10814 0.1253094,0.33129 v 1.09002 l 0.2008384,0.0429 v 0.0772 H 5.758968 l -0.032615,-0.16135 q -0.1956887,0.19568 -0.4995212,0.19568 -0.4136927,0 -0.4136927,-0.48063 0,-0.16136 0.061796,-0.26607 0.063513,-0.10643 0.2008384,-0.16136 0.1373254,-0.0567 0.3982436,-0.0618 l 0.2420361,-0.007 v -0.25234 q 0,-0.1665 -0.061797,-0.24547 -0.06008,-0.079 -0.1871058,-0.079 -0.1716568,0 -0.3141319,0.0807 l -0.058363,0.20084 h -0.096128 v -0.3519 q 0.2780839,-0.0601 0.4892217,-0.0601 z m 0.2283035,0.82739 -0.2248704,0.007 q -0.23002,0.009 -0.3124153,0.0893 -0.080679,0.0807 -0.080679,0.2695 0,0.30211 0.2454691,0.30211 0.1167266,0 0.2008384,-0.0258 0.085828,-0.0275 0.1716568,-0.0687 z"
         id="path29684" />
      <path
         d="m 6.6361342,115.70446 h -0.278084 v -0.0841 l 0.278084,-0.067 v -0.11329 q 0,-0.35705 0.1407585,-0.5493 0.1424751,-0.19226 0.3982436,-0.19226 0.1321757,0 0.2454692,0.0326 v 0.35189 h -0.084112 l -0.077246,-0.21113 q -0.058363,-0.0361 -0.1407585,-0.0361 -0.1081437,0 -0.1527745,0.0961 -0.044631,0.0961 -0.044631,0.36048 v 0.26778 h 0.4291419 v 0.14419 H 6.9210843 v 1.33549 l 0.3484632,0.0566 v 0.0772 H 6.3975313 v -0.0772 l 0.2386029,-0.0566 z"
         id="path29686" />
      <path
         d="m 8.218809,115.52422 q 0.2643514,0 0.3879442,0.10815 0.1253094,0.10814 0.1253094,0.33129 v 1.09002 l 0.2008384,0.0429 v 0.0772 H 8.4900266 l -0.032615,-0.16135 q -0.1956887,0.19568 -0.4995212,0.19568 -0.4136927,0 -0.4136927,-0.48063 0,-0.16136 0.061796,-0.26607 0.063513,-0.10643 0.2008384,-0.16136 0.1373254,-0.0567 0.3982436,-0.0618 l 0.242036,-0.007 v -0.25234 q 0,-0.1665 -0.061796,-0.24547 -0.06008,-0.079 -0.1871058,-0.079 -0.1716568,0 -0.3141319,0.0807 l -0.058363,0.20084 h -0.096128 v -0.3519 q 0.2780839,-0.0601 0.4892217,-0.0601 z m 0.2283034,0.82739 -0.2248703,0.007 q -0.23002,0.009 -0.3124153,0.0893 -0.080679,0.0807 -0.080679,0.2695 0,0.30211 0.2454691,0.30211 0.1167266,0 0.2008384,-0.0258 0.085828,-0.0275 0.1716567,-0.0687 z"
         id="path29688" />
      <path
         d="m 9.5542981,117.20817 q -0.1647904,0 -0.2471857,-0.0978 -0.080679,-0.0978 -0.080679,-0.27465 v -1.13122 H 9.0152959 v -0.0772 l 0.214571,-0.0669 0.1733733,-0.36563 h 0.1081437 v 0.36563 h 0.369062 v 0.14419 h -0.369062 v 1.10032 q 0,0.11158 0.04978,0.16822 0.051497,0.0567 0.1338923,0.0567 0.099561,0 0.242036,-0.0275 v 0.11157 q -0.06008,0.0412 -0.1733733,0.067 -0.1132935,0.0275 -0.2094213,0.0275 z"
         id="path29690" />
    </g>
    <path
       style="fill:none;stroke:#000000;stroke-width:0.021294px;stroke-linecap:butt;stroke-linejoin:miter;stroke-opacity:1"
       d="m 6.7757925,124.80585 -0.790562,3.08779"
       id="path30692" />
    <path
       style="fill:none;stroke:#000000;stroke-width:0.021294px;stroke-linecap:butt;stroke-linejoin:miter;stroke-opacity:1"
       d="m 5.9852305,127.89364 1.434138,-0.46263"
       id="path30696" />
    <circle
       style="fill:#000000;fill-opacity:0.98432;stroke:#ffffff;stroke-width:0"
       id="path29809"
       cx="5.9964118"
       cy="127.83977"
       r="0.11107892" />
    <circle
       style="fill:#000000;fill-opacity:0.98432;stroke:#ffffff;stroke-width:0"
       id="path29811"
       cx="6.7754626"
       cy="124.81882"
       r="0.083514526" />
    <circle
       style="fill:#000000;fill-opacity:0.98432;stroke:#ffffff;stroke-width:0"
       id="path29813"
       cx="7.4204459"
       cy="127.41852"
       r="0.11470279" />
    <path
       style="fill:none;stroke:#000000;stroke-width:0.021294px;stroke-linecap:butt;stroke-linejoin:miter;stroke-opacity:1"
       d="m 8.2305365,122.66894 1.163074,0.63611"
       id="path30704" />
    <path
       style="fill:none;stroke:#e8e8e8;stroke-width:0.021294px;stroke-linecap:butt;stroke-linejoin:miter;stroke-opacity:1"
       d="m 8.2495915,122.69256 1.163074,0.6361"
       id="path30704-8" />
    <circle
       style="fill:#000000;fill-opacity:0.98432;stroke:#ffffff;stroke-width:0"
       id="path29815"
       cx="9.3476915"
       cy="123.35316"
       r="0.19988205" />
    <path
       style="fill:none;stroke:#e8e8e8;stroke-width:0.021294px;stroke-linecap:butt;stroke-linejoin:miter;stroke-opacity:1"
       d="m 9.4126655,123.32866 -1.185846,0.93939"
       id="path30702-2" />
    <circle
       style="fill:#000000;fill-opacity:0.98432;stroke:#ffffff;stroke-width:0"
       id="path29817"
       cx="8.229764"
       cy="122.76501"
       r="0.10089224" />
    <path
       style="fill:none;stroke:#e8e8e8;stroke-width:0.021294px;stroke-linecap:butt;stroke-linejoin:miter;stroke-opacity:1"
       d="m 8.2495915,122.69256 -0.02277,1.57549"
       id="path30700-6" />
    <path
       style="fill:none;stroke:#000000;stroke-width:0.021294px;stroke-linecap:butt;stroke-linejoin:miter;stroke-opacity:1"
       d="m 7.4193685,127.43101 0.788396,-3.18657"
       id="path30694" />
    <path
       style="fill:none;stroke:#000000;stroke-width:0.021294px;stroke-linecap:butt;stroke-linejoin:miter;stroke-opacity:1"
       d="m 8.2077645,124.24444 -1.431972,0.56141"
       id="path30698" />
    <path
       style="fill:none;stroke:#000000;stroke-width:0.021294px;stroke-linecap:butt;stroke-linejoin:miter;stroke-opacity:1"
       d="m 8.2305365,122.66894 -0.02277,1.5755"
       id="path30700" />
    <path
       style="fill:none;stroke:#e8e8e8;stroke-width:0.021294px;stroke-linecap:butt;stroke-linejoin:miter;stroke-opacity:1"
       d="m 6.7948485,124.82946 -0.790563,3.08779"
       id="path30692-6" />
    <path
       style="fill:none;stroke:#e8e8e8;stroke-width:0.021294px;stroke-linecap:butt;stroke-linejoin:miter;stroke-opacity:1"
       d="m 6.0042855,127.91725 1.434138,-0.46262"
       id="path30696-7" />
    <path
       style="fill:none;stroke:#e8e8e8;stroke-width:0.021294px;stroke-linecap:butt;stroke-linejoin:miter;stroke-opacity:1"
       d="m 7.4384235,127.45463 0.788396,-3.18658"
       id="path30694-7" />
    <path
       style="fill:none;stroke:#e8e8e8;stroke-width:0.021294px;stroke-linecap:butt;stroke-linejoin:miter;stroke-opacity:1"
       d="m 8.2268195,124.26805 -1.431971,0.56141"
       id="path30698-6" />
    <circle
       style="fill:#000000;fill-opacity:0.98432;stroke:#ffffff;stroke-width:0"
       id="path29819"
       cx="8.1903868"
       cy="124.2718"
       r="0.090902202" />
    <circle
       style="fill:#f2f2f2;fill-opacity:0.98432;stroke:#ffffff;stroke-width:0"
       id="path29809-5"
       cx="5.9524674"
       cy="127.91299"
       r="0.11443714" />
    <circle
       style="fill:#f2f2f2;fill-opacity:0.98432;stroke:#ffffff;stroke-width:0"
       id="path29811-9"
       cx="6.7550693"
       cy="124.80071"
       r="0.086039402" />
    <circle
       style="fill:#f2f2f2;fill-opacity:0.98432;stroke:#ffffff;stroke-width:0"
       id="path29813-2"
       cx="7.4195533"
       cy="127.47902"
       r="0.11817057" />
    <path
       style="fill:none;stroke:#000000;stroke-width:0.021294px;stroke-linecap:butt;stroke-linejoin:miter;stroke-opacity:1"
       d="m 9.3936105,123.30505 -1.185846,0.93939"
       id="path30702" />
    <circle
       style="fill:#f2f2f2;fill-opacity:0.98432;stroke:#ffffff;stroke-width:0"
       id="path29815-6"
       cx="9.4050665"
       cy="123.29073"
       r="0.20592503" />
    <circle
       style="fill:#f2f2f2;fill-opacity:0.98432;stroke:#ffffff;stroke-width:0"
       id="path29817-8"
       cx="8.2533388"
       cy="122.68481"
       r="0.10394249" />
    <circle
       style="fill:#f2f2f2;fill-opacity:0.98432;stroke:#ffffff;stroke-width:0"
       id="path29819-5"
       cx="8.2127714"
       cy="124.23716"
       r="0.093650423" />
  </g>
  <g
     inkscape:groupmode="layer"
     id="layer2"
     inkscape:label="components"
     style="display:none">
    <circle
       style="fill:#0000ff"
       id="path951"
       cx="5.0799999"
       cy="114.2661"
       r="4.1654868"
       inkscape:label="Right"
       inkscape:transform-center-y="8.3844213" />
    <circle
       style="fill:#0000ff"
       id="path951-8"
       cx="5.0799999"
       cy="104.40625"
       r="4.1654868"
       inkscape:label="Left" />
    <circle
       style="display:inline;fill:#00ff00"
       id="path951-4"
       cx="5.0799999"
       cy="22.259804"
       r="4.1654868"
       inkscape:label="Right"
       inkscape:transform-center-y="8.3844213" />
    <circle
       style="display:inline;fill:#00ff00"
       id="path951-8-1"
       cx="5.0799999"
       cy="12.399956"
       r="4.1654868"
       inkscape:label="Left" />
    <circle
       style="fill:#ff0000"
       id="path951-8-8"
       cx="5.0799999"
       cy="69.693031"
       r="4.1654868"
       inkscape:label="Knob" />
    <circle
       style="display:inline;fill:#ff00ff"
       id="path951-8-8-2-0"
       cx="5.0799999"
       cy="54.70327"
       inkscape:label="LED2"
       r="1.2402273" />
    <circle
       style="display:inline;fill:#ff00ff"
       id="path951-8-8-2-0-7"
       cx="5.0799999"
       cy="58.183052"
       inkscape:label="LED3"
       r="1.2402273" />
    <circle
       style="display:inline;fill:#ff00ff"
       id="path951-8-8-2-0-1"
       cx="5.0799999"
       cy="51.223488"
       inkscape:label="LED1"
       r="1.2402273" />
  </g>
</svg>
