<?xml version="1.0" encoding="UTF-8" standalone="no"?>
<!-- Created with Inkscape (http://www.inkscape.org/) -->

<svg
   width="50.799999mm"
   height="128.5mm"
   viewBox="0 0 50.799999 128.5"
   version="1.1"
   id="svg5"
   inkscape:version="1.1.1 (3bf5ae0d25, 2021-09-20, custom)"
   sodipodi:docname="Zeta.svg"
   xmlns:inkscape="http://www.inkscape.org/namespaces/inkscape"
   xmlns:sodipodi="http://sodipodi.sourceforge.net/DTD/sodipodi-0.dtd"
   xmlns="http://www.w3.org/2000/svg"
   xmlns:svg="http://www.w3.org/2000/svg">
  <sodipodi:namedview
     id="namedview7"
     pagecolor="#ffffff"
     bordercolor="#666666"
     borderopacity="1.0"
     inkscape:pageshadow="2"
     inkscape:pageopacity="0.0"
     inkscape:pagecheckerboard="0"
     inkscape:document-units="mm"
     showgrid="false"
     inkscape:zoom="7.8413459"
     inkscape:cx="224.19621"
     inkscape:cy="454.7051"
     inkscape:window-width="1911"
     inkscape:window-height="1043"
     inkscape:window-x="3844"
     inkscape:window-y="16"
     inkscape:window-maximized="1"
     inkscape:current-layer="layer1" />
  <defs
     id="defs2" />
  <g
     inkscape:label="Layer 1"
     inkscape:groupmode="layer"
     id="layer1">
    <g
       id="g855"
       transform="matrix(0.46446556,0,0,0.45207614,-32.739216,-2.6929161)">
      <path
         style="fill:#f4fed4;stroke-width:0.264583"
         d="M 67.481344,147.07391 V 3.9343334 H 179.92925 l -0.0796,280.5813466 -6.47596,5.66428 -105.892316,0.0335 z"
         id="path1667"
         sodipodi:nodetypes="ccccccc" />
      <path
         style="fill:#ecfeb2;stroke-width:0.264583"
         d="m 67.481344,147.07391 c 0,-47.713189 0,-95.426383 0,-143.1395766 37.483116,0 74.966226,0 112.449336,0 -0.0446,32.1389246 -0.0892,64.2778496 -0.1338,96.4167766 -9.56095,5.81435 -27.77654,7.14196 -32.89652,13.34995 7.8399,0.55926 23.19317,-11.45301 26.19017,-5.15387 -12.48197,7.23637 -30.93986,4.16977 -39.22602,18.04958 0.83468,14.49016 -17.4154,-9.4341 -9.86419,3.82468 6.65053,10.01142 19.67418,14.81705 22.57362,27.46289 6.45226,15.08953 19.17906,26.31431 26.31314,41.09169 2.48187,4.29437 3.96569,8.1754 -0.40027,2.462 -10.66887,-12.16405 -17.42418,-28.30846 -30.76424,-37.7449 2.05141,7.93515 8.62014,15.25834 12.65474,22.82704 6.80698,11.36936 15.79143,21.4625 21.72524,33.28646 7.72647,19.97807 2.21439,41.59376 3.97196,62.31153 -4.04436,13.15294 -20.33115,6.77856 -30.38888,7.93367 -27.40014,0.39891 -54.803303,0.0371 -82.204726,0.16163 2.93e-4,-47.71318 -5.87e-4,-95.42637 4.4e-4,-143.13955 z m 90.222906,46.69896 c -1.6538,-0.94299 1.31149,1.75972 0,0 z m -25.20707,-73.05256 -0.54754,0.0603 z m 33.40916,81.12236 c -0.57889,-1.46954 1.60549,1.33565 0,0 z m 13.36313,-16.60261 c -11.80913,-20.78315 -26.90333,-39.45229 -42.52737,-57.45691 11.60944,-8.2802 26.65268,-7.09922 39.53085,-12.09452 11.14738,11.44473 -0.62104,27.36251 3.22267,40.78998 0.85084,9.56916 0.45471,19.19542 -0.22615,28.76145 z m -41.04183,-53.38794 c 0.37753,-2.57766 1.89613,5.79706 0,0 z m 2.75825,-8.50686 0.38409,0.0845 z"
         id="path1665" />
      <path
         style="fill:#d2fead;stroke-width:0.264583"
         d="m 67.481344,147.07391 c 0,-47.713189 0,-95.426383 0,-143.1395766 37.482636,0 74.965266,0 112.447906,0 0,31.6538126 0,63.3076256 0,94.9614386 -18.17949,3.799558 -35.71587,10.350118 -52.28506,18.690928 -8.49418,5.14558 -15.57043,14.2739 -1.05972,16.79779 12.20894,8.38729 15.92349,23.77933 25.46604,34.51137 2.60048,2.9868 6.46033,11.5161 1.13006,4.21004 -7.2636,-8.16474 -18.65733,-27.55912 -25.65296,-27.53113 4.9503,10.61448 -11.36937,-1.59844 -4.3492,6.95524 11.17661,17.13353 20.51299,35.43398 31.36204,52.79815 14.31523,11.14413 29.12567,27.94029 25.16208,47.5013 -3.18667,11.78354 8.15646,31.89188 -7.24367,37.22393 -13.36453,1.03448 -26.84379,-0.59157 -40.28656,0.15584 -21.56365,-0.01 -43.127304,0.0222 -64.690956,0.003 0,-47.71294 0,-95.42587 0,-143.13881 z m 74.877076,39.03435 c -1.01724,-1.48813 -0.26742,1.78305 0,0 z M 128.65888,150.4547 c -2.57134,-2.21259 1.23788,2.27619 0,0 z m -5.35046,-14.32088 c -0.6847,-6.33033 -7.2908,-0.99101 0,0 z m -12.69999,-5.69493 c 4.47232,-8.72423 -11.019505,-6.87497 -4.21935,-1.25043 1.31966,0.67474 2.76941,1.01214 4.21935,1.25043 z m 9.12812,-8.23581 c -1.72399,-2.29972 -1.82531,2.16144 0,0 z m 23.89888,-15.75946 c 0.97958,-2.76527 -4.74598,4.06864 0,0 z m 14.06882,-1.93931 c -1.11484,-2.41206 -1.27028,2.39861 0,0 z m 1.7037,-0.89984 c -2.82446,-1.97634 0.51306,2.891 0,0 z m 5.4676,109.82958 c -5.49462,-3.92877 -13.75854,-15.95481 -10.48788,-19.14177 5.13485,5.20012 10.14348,11.52067 10.48788,19.14177 z m -1.08588,-26.27576 c -1.32348,-1.80092 1.61923,0.94488 0,0 z m -1.00983,-1.24795 c -2.77336,-1.29198 1.76793,-0.29022 0,0 z m 16.94631,-0.48633 c -9.10609,-14.95176 -14.04874,-32.81604 -27.26883,-44.97499 9.50718,2.60413 -16.20529,-18.47736 1.09266,-15.82044 8.06707,-5.74235 30.60946,-14.37124 26.79631,3.76409 -1.74134,7.63061 3.68093,22.86995 -4.71414,25.29421 -8.06085,-10.05695 4.97338,11.3732 -3.50781,2.82103 -5.62796,-7.7034 4.46427,7.92525 6.03132,11.08076 3.02894,5.42848 4.33521,12.0192 1.57049,17.83534 z m -51.59428,-56.60635 c -4.88874,-0.68935 -3.29834,-5.101 0,0 z m 10.5404,-1.03303 c 4.40001,-9.94283 12.07873,1.65336 0,0 z m -9.98495,-1.02877 c 10.7151,-14.70172 30.5873,-13.99021 46.01634,-20.21149 -15.52051,6.26626 -32.29103,10.19493 -46.01634,20.21149 z m 2.35153,-3.02747 c -1.74086,-3.4552 -1.09557,1.97261 0,0 z m -7.51545,-0.38313 0.38408,0.0845 z"
         id="path1663" />
      <path
         style="fill:#cdfe94;stroke-width:0.264583"
         d="M 67.481344,147.07391 V 3.9343334 H 179.92925 c -0.0823,28.3985166 0.21435,56.7994306 -0.25735,85.1958346 -5.60969,1.000703 -18.39205,7.323811 -6.67508,5.41819 -3.19513,8.511882 -20.15598,3.516754 -27.25368,10.787242 -10.74627,7.21548 -23.54597,10.0908 -34.7656,16.27396 -8.40252,9.39223 8.87092,20.35461 11.75469,29.92994 10.00228,14.63907 17.60648,30.68958 26.71871,45.83163 13.00963,17.87032 28.43592,36.08242 29.91233,59.19985 -0.24214,7.78855 2.702,17.46654 2.33005,25.06947 -0.19146,3.91366 1.36889,9.10275 -3.20567,8.62248 -11.53605,-0.25588 -29.41539,-0.44826 -41.10747,-0.0414 -23.29961,0.0427 -46.599232,-0.0625 -69.898836,-0.009 V 147.07351 Z M 178.37458,252.04294 c -0.44473,1.27344 2.2788,-0.0799 0,0 z m -0.52916,-1.05833 c -0.4448,1.27335 2.27879,-0.0798 0,0 z m -0.29742,-0.67262 c 1.32209,-1.66801 -1.80754,-0.31549 0,0 z m -1.44249,-2.40724 c -1.79412,-2.7023 1.51567,3.3531 0,0 z m -1.34801,-2.71026 c -1.62622,-4.26873 -12.15679,-20.52653 -5.36946,-8.12073 1.59763,2.82617 3.31249,5.60148 5.36946,8.12073 z m -9.0671,-14.908 c -0.23268,-2.27034 1.1054,2.33095 0,0 z m 1.43302,2.88284 c -1.51183,-0.26127 1.85838,1.83685 0,0 z m -9.04217,-17.76677 c -13.89759,-23.70142 -28.63805,-47.08324 -46.64204,-67.92192 17.27486,22.35173 31.70178,46.69128 47.59723,70.00347 z m -15.72283,-29.2943 c -1.01724,-1.48813 -0.26742,1.78305 0,0 z m -33.5679,-42.281 c -1.87512,0.5859 2.61898,1.04352 0,0 z m 2.27541,-24.16528 -0.54754,0.0602 z m 0,-0.52917 -0.54754,0.0602 z m 57.02322,37.31721 c -5.36277,-1.28117 -0.77182,-5.17453 0,0 z m 9.67431,-3.62496 c -2.51859,-9.11797 -15.40877,-15.50188 -19.8449,-8.3288 -12.53671,-3.80706 -0.34439,-28.077 6.68019,-20.86756 -5.45978,10.44276 16.93968,-2.51768 16.88033,10.17535 -2.64651,6.24362 1.93862,14.20835 -3.71562,19.02101 z M 157.4725,134.03877 c -0.44479,1.27343 2.2788,-0.0798 0,0 z m -40.85644,-1.91381 c -8.97319,-1.1981 -2.25331,-10.84807 0.31137,-2.03806 z m 1.66528,-12.8323 c 1.02147,-2.09448 1.39262,1.77531 0,0 z"
         id="path1661"
         sodipodi:nodetypes="ccccccccccscccccccccccccccccccccccccccccccccccccccccccccccc" />
      <path
         style="fill:#a8fd95;stroke-width:0.264583"
         d="M 67.481344,147.07391 V 3.9343334 H 179.92925 V 86.414604 c -7.78767,5.874474 -22.31755,3.168216 -23.91581,14.485306 -12.54607,3.56893 -25.99244,3.71428 -38.073,9.16231 -9.14248,4.23174 -19.38307,4.4778 -28.712488,7.88711 -13.700975,7.3274 8.323944,16.48133 11.428838,24.34571 30.96639,35.65285 57.14502,75.43693 77.81754,117.88857 0.81304,9.04926 6.97584,29.57812 -6.07145,30.1985 -34.66983,-0.55019 -69.43761,0.22847 -104.04887,-0.35938 -1.951015,-3.70103 -0.354455,-9.0768 -0.872666,-13.53134 z m 52.051256,21.00682 -0.54755,0.0602 z m -8.92418,-10.95265 c -0.27798,-1.35243 -0.53567,1.0944 0,0 z m -4.23333,-5.29167 c -0.7417,-1.64936 -0.7417,1.64936 0,0 z m -1.05833,-1.05833 c -0.27799,-1.35243 -0.53568,1.0944 0,0 z m -1.14218,-1.37252 -0.0845,0.38409 z m -1.50366,-1.67019 c 0.53795,-3.46944 -1.52461,1.59332 0,0 z m -3.128875,-3.39049 c 0.268895,-4.16035 -2.492897,-0.0742 0,0 z m -2.425777,-3.09009 c -3.341259,-1.8932 3.944772,3.7477 0,0 z m -1.622991,-1.87591 c -1.896855,0.16104 1.768893,1.11678 0,0 z m -1.050668,-1.05243 c -1.68688,0.7379 2.728496,0.7563 0,0 z m -0.767517,-0.76551 c 0.599423,-3.02331 -2.487661,0.62215 0,0 z m -3.693319,-3.96554 c -2.312556,-5.70544 -0.53722,2.36274 0,0 z m -1.598347,-1.60274 c -0.278014,-1.35243 -0.535655,1.09442 0,0 z m -1.378631,-1.42852 c -0.499802,-2.14013 -0.587231,1.09025 0,0 z m -1.007925,-1.09141 c -0.735101,-2.05968 -0.393448,1.3812 0,0 z m -0.788444,-1.05194 c 0.542395,-2.47932 -1.479922,0.83603 0,0 z M 83.09176,126.701 c -0.277958,-1.35246 -0.535707,1.09441 0,0 z m -1.058334,-1.16232 c 1.342873,-2.17782 -1.869788,0.17686 0,0 z m -1.227236,-1.35122 c -0.148914,-2.20334 -0.807114,1.28181 0,0 z m -1.225671,-1.35048 -0.547547,0.0603 z m -1.35599,-1.62058 c -1.633336,0.23759 1.568155,1.0167 0,0 z m 23.316401,-7.90442 -0.54754,0.0602 z m 1.5875,-0.52917 -0.54754,0.0603 z m 1.26229,-0.36931 c -0.53566,-1.09442 -0.27802,1.35243 0,0 z m 5.29166,-1.32292 c 5.48123,2.13733 3.08735,-4.90202 0,0 z m 5.68854,-2.11667 c -0.74181,-1.42106 -0.52925,1.60812 0,0 z m 3.90425,-0.99218 c -1.81678,-1.95949 -0.63688,2.64661 0,0 z m 2.71034,-0.71199 -0.47794,-0.15622 z m 26.72291,-9.27603 c -3.6767,-1.163184 -1.5866,4.33894 0,0 z m 1.91823,-0.836687 -0.62577,0.01223 z m 28.1458,157.602307 c -3.34902,-4.54311 -7.88235,-16.10061 -1.44276,-4.92785 0.78441,1.53922 1.12951,3.24569 1.44276,4.92785 z M 167.82457,234.4566 c -3.64388,0.007 0.7947,-2.70993 0,0 z m -2.13417,-4.17011 c -0.23268,-2.27034 1.1054,2.33095 0,0 z m -0.8424,-1.72091 c 1.30973,-0.47668 -0.37921,2.19173 0,0 z m -1.12448,-1.70566 c -6.11409,-3.94521 2.48011,-0.23444 0,0 z m -1.38906,-2.6205 c -4.86095,-3.62564 -1.00038,-6.57725 0,0 z m -5.44909,-8.83686 c -4.31034,-0.91142 0.90475,-2.87064 0,0 z m -1.65056,-2.62378 c -0.88459,-1.72136 1.72136,0.88459 0,0 z m -0.55613,-1.11881 c -0.60385,-1.58374 1.27207,0.58936 0,0 z m -4.65265,-7.31016 c -0.77777,-1.74922 1.36916,1.672 0,0 z m 18.06312,-47.89979 c -5.36277,-1.28117 -0.77182,-5.17453 0,0 z m 7.87135,-6.42424 c -1.65921,-10.41022 -13.87524,-12.20415 -21.00333,-9.91885 -8.25897,-7.84926 8.23292,-24.6571 10.98644,-11.28617 6.04211,0.46847 23.95528,-4.69224 15.53547,4.98329 -14.79539,-9.20458 9.87846,24.68076 -5.51858,16.22173 z m -18.488,-15.98701 c -0.44479,1.27343 2.2788,-0.0798 0,0 z m 21.06218,-2.20596 -0.54754,0.0602 z m -85.587192,-8.74984 c 7.149302,-4.43782 12.268762,1.34547 0,0 z M 167.22925,97.739323 c 3.16192,-4.46898 11.8842,1.598101 0,0 z M 152.2803,97.067668 c -0.10378,-2.260215 1.47785,1.131293 0,0 z m 3.0427,-1.058333 c 0.27799,-1.352443 0.53568,1.094419 0,0 z m 1.19063,-0.529167 c 0.52552,-1.356961 0.52552,1.356961 0,0 z m 1.19062,-0.529167 c 0.52551,-1.356941 0.52551,1.356935 0,0 z m 10.98021,-3.704166 c 0.52926,-1.608127 0.74182,1.421049 0,0 z"
         id="path1659"
         sodipodi:nodetypes="ccccccccccccccccccccccccccccccccccccccccccccccccccccccccccccccccccccccccccccccccccccccccccccccccccccccccccccccccccccccccccccccc" />
      <path
         style="fill:#96fd77;stroke-width:0.264583"
         d="m 67.481344,147.07391 0.48128,-22.43299 -4.518515,-9.54479 4.31932,-2.62457 c 0,0 -1.940585,-53.846082 2.612306,-89.719051 1.006324,-7.92899 -3.755077,-10.901422 -2.894391,-18.8181756 0.09613,-0.8842512 1.51744,0.3161922 2.394884,0.1046609 C 73.46279,3.1743585 80.950464,5.1029038 85.67694,4.978835 121.11313,4.0486437 179.92925,3.9343334 179.92925,3.9343334 V 83.585263 c -32.05862,12.85389 -65.27312,22.450167 -98.069676,33.179327 -2.690083,13.59675 12.482542,19.96376 18.970306,29.50822 31.65788,38.97228 59.3472,81.44796 79.93309,127.32277 4.56611,13.42287 -12.76916,21.88436 -23.50946,16.61796 H 67.481344 Z m 11.472763,-25.53229 c -0.68678,-3.24203 -1.604589,2.19668 0,0 z m -1.490255,-1.35048 -0.547544,0.0602 z m 12.14681,11.40465 c 0.245972,-1.85768 0.527753,1.33841 0,0 z"
         id="path1657"
         sodipodi:nodetypes="ccccssssccccccccccccccc" />
      <path
         style="fill:#68ed90;stroke-width:0.264583"
         d="m 67.481344,204.75308 c 0.02332,-28.48681 -0.03048,-56.97384 0.115222,-85.46042 31.690022,30.55897 58.678364,65.88668 80.498264,104.09525 -17.10881,-35.3407 -41.98199,-66.21473 -68.576738,-94.83193 43.571838,41.77192 73.535948,94.99456 101.310488,147.96003 1.88817,14.18376 -16.17043,15.9021 -26.32715,14.14616 -28.38351,-1.24722 -56.795757,0.10477 -85.188912,-0.53803 -5.007425,-15.29548 0.06839,-31.43579 -1.831232,-47.08169 -3e-6,-12.76313 6e-6,-25.52625 5.8e-5,-38.28937 z m 89.164576,33.3375 c -0.5255,-1.35699 -0.52554,1.35695 0,0 z m -0.74524,-1.38024 c -1.29613,0.41857 1.7036,0.64109 0,0 z m -0.31309,-0.73642 c -0.278,-1.35246 -0.53569,1.09443 0,0 z m -0.70245,-1.20204 c -0.87336,-1.14223 0.35368,1.39449 0,0 z m -0.89181,-2.1184 c -2.4388,-7.26784 0.004,3.25477 0,0 z m -4.21035,-7.35958 c -1.99176,-6.95803 -0.52794,2.8348 0,0 z M 78.32926,127.51036 c 0.235143,-1.75803 0.996007,1.44889 0,0 z m -3.26551,-3.30943 c 1.340585,-0.62484 -0.542544,1.95751 0,0 z m -1.232406,-1.09386 c 1.10297,-1.60003 0.305226,2.04511 0,0 z m -0.84336,-0.82015 0.384093,0.0845 z m -1.53789,-1.29651 c 1.102958,-1.60001 0.305235,2.0451 0,0 z m -3.560576,-3.79613 0.585348,-0.28861 z M 67.481344,60.158293 V 4.0159019 c 0,0 0.0803,-0.082733 0.131927,-0.083368 35.419769,-0.4353853 112.317779,0.0018 112.317779,0.0018 C 177.41739,29.558499 184.6134,55.988979 176.37358,81.012926 140.95123,94.650375 99.89518,104.6589 63.444109,115.09613 66.92428,97.65714 67.646292,78.468679 67.481344,60.158293 Z M 173.57925,83.573918 c 0.27799,-1.352446 0.53568,1.094418 0,0 z"
         id="path1655"
         sodipodi:nodetypes="cccccccccccccccccccccccccccccccccccccscccccc" />
      <path
         style="fill:#64db6e;stroke-width:0.264583"
         d="m 67.481344,204.75308 c 0.02092,-25.55138 -0.02021,-51.10294 0.07623,-76.6542 0.01108,-2.93541 -2.75201,-8.11009 -2.736996,-11.04549 46.923512,45.17483 86.174712,103.06919 110.394562,163.45172 -2.34183,16.59787 -22.95282,7.65922 -34.05502,9.55147 -24.07656,0.40254 -48.199272,0.0767 -72.252831,0.0926 -3.268743,-3.01705 -0.556632,-9.20995 -1.425948,-13.65712 z m 55.438426,-6.89247 c -12.09242,-22.85916 -27.268411,-44.37414 -46.625706,-61.67137 16.693607,18.54913 24.321776,43.88504 43.423726,60.467 l 1.56211,0.69578 z m 56.65764,82.6956 c -0.72088,-5.96301 -8.84921,-17.4843 -7.4286,-19.18895 3.78605,5.71047 8.17016,11.96532 7.4286,19.18895 z M 68.131923,117.15839 c -0.07219,-2.23076 1.208063,1.9232 0,0 z M 67.481344,60.158293 c 0,0 6.17765,-38.27557 -0.03914,-55.7139945 -0.06921,-0.1941488 -0.002,-0.3795531 -0.002,-0.3795531 0,0 0.445162,-0.012894 0.489598,-0.014834 C 97.224816,2.770676 179.92925,3.9343334 179.92925,3.9343334 V 73.174322 C 153.75618,86.311568 125.64367,94.830699 97.908426,103.94683 126.00189,96.789019 153.38218,86.994636 179.94979,75.424944 165.17119,92.010037 140.89648,89.961341 122.27305,99.322913 105.24672,100.03014 90.951901,115.06021 73.439582,111.1199 62.519317,105.32353 69.360986,90.571244 67.557184,80.723012 c 0.04622,-6.854837 0.06956,-13.71083 -0.07584,-20.564719 z m 1.962124,51.820907 c -1.948499,-0.75749 0.433277,2.51134 0,0 z m 3.263397,-0.50922 c -3.362649,-1.9434 -1.932568,4.29334 0,0 z m 10.009607,-2.82021 c -3.563679,-1.67299 -2.164169,4.16444 0,0 z m 2.491954,-0.73419 c -0.53568,-1.0944 -0.277984,1.35243 0,0 z m 3.175,-1.03356 -0.706436,0.0924 z m 3.498264,-0.85536 c 4.478668,-3.22494 -6.850452,3.03467 0,0 z"
         id="path1653"
         sodipodi:nodetypes="cscccccccccccccccccscsccccccccccccccccccccc" />
      <path
         style="fill:#49a169;stroke-width:0.264583"
         d="m 67.481344,209.76766 c 0.117556,-26.745 -0.258233,-53.49407 0.33477,-80.23554 14.380919,14.14335 25.585771,31.23491 34.382886,49.31485 22.58285,20.73962 42.30265,45.20432 54.17396,73.66665 6.31205,10.12801 22.18116,23.20052 12.41143,35.64341 -11.01264,5.00704 -23.8459,0.55052 -35.56007,1.61011 -20.23581,-0.13648 -40.469221,1.18953 -60.702396,0.39435 -11.202959,-8.16981 -2.683384,-22.93976 -5.040564,-34.14669 -5e-6,-15.41572 -1.1e-5,-30.83143 -1.6e-5,-46.24714 z m 0.0068,-100.46302 C 74.66799,104.70921 84.582991,105.0052 90.524152,98.508816 82.101908,108.42161 61.155838,102.12476 66.695446,87.526807 68.38458,67.607995 67.054062,47.568076 67.470744,27.59729 68.306327,20.147421 65.763513,9.2964975 68.729142,3.9343334 c 37.066688,0 74.133388,0 111.200078,0 0,21.9661016 0,43.9322026 0,65.8983036 -24.81275,18.892326 -56.82419,22.246462 -85.175968,33.329173 -8.881409,2.82468 -17.92189,5.48086 -27.265108,6.14283 z"
         id="path1651" />
      <path
         style="fill:#388f59;stroke-width:0.264583"
         d="m 67.491278,210.50777 0.0099,-79.70573 c 8.323643,13.36315 22.124022,24.74544 23.103445,41.50782 30.924727,26.89615 50.310597,63.82299 68.419517,99.88802 -1.73558,-3.8824 -11.60135,-17.7034 -11.97433,-12.33205 6.07877,8.07944 19.90961,21.71553 8.15585,30.63385 -10.67306,2.40342 -21.70093,-2.01424 -32.64776,-0.38137 -15.89733,0.18072 -31.814565,0.0442 -47.671187,0.32807 -14.723783,-2.38754 -4.468213,-20.99414 -7.401572,-30.98725 0.002,-16.31712 0.004,-32.63424 0.0061,-48.95136 z m 74.227902,38.04332 c -2.27769,-4.94779 0.32001,3.06605 0,0 z M 67.481344,54.55914 c 0,0 -2.309127,-34.872644 0.04082,-48.2062772 C 67.62224,5.7850294 68.774725,6.4726509 69.169356,5.9880814 69.686802,5.3527103 67.533744,3.9744233 67.741103,3.9821828 97.567042,5.0982964 179.92925,3.9343334 179.92925,3.9343334 V 65.540206 C 158.40037,79.452022 133.28664,85.773909 109.5465,94.730381 99.693496,84.48838 88.118099,99.002692 78.173435,101.694 62.151979,103.20795 67.360298,85.080942 67.545198,75.381688 67.568949,68.440686 67.339815,61.499897 67.481344,54.55914 Z"
         id="path1649"
         sodipodi:nodetypes="ccccccccccccccssscccccc" />
      <path
         style="fill:#356c4e;stroke-width:0.264583"
         d="m 67.481344,219.79332 c 0,-23.47339 0,-46.94678 0,-70.42017 21.280484,22.0893 43.842056,43.83018 58.360156,71.22242 5.20381,3.43599 10.78612,21.87312 1.28488,9.45249 -5.1346,-1.25346 5.2186,10.72575 6.83424,13.66826 7.8415,11.5645 15.60791,23.22399 24.69943,33.84164 8.39333,10.27438 -2.92857,15.91626 -12.1756,12.78979 -26.33327,-0.34456 -52.668845,-0.0204 -79.003076,-0.13425 -2e-5,-23.47339 4e-5,-46.94679 -3e-5,-70.42018 z m 11.85284,-62.49708 c -8.085141,3.7481 -10.913426,-17.51355 -3.743435,-5.66268 1.507311,1.50695 4.737116,3.0159 3.743435,5.66268 z M 67.481344,53.801678 C 71.712131,39.213701 60.903711,22.857505 70.311073,9.3601817 81.27655,0.1319955 96.563153,5.4230831 109.54735,3.7951882 c 15.00351,-0.2702743 30.04795,1.1545108 45.00886,0.365937 12.21456,-4.0430379 29.43107,0.8113383 25.67668,16.8013798 -0.96892,14.596831 -0.0414,29.194768 -0.30364,43.815915 -7.89451,4.112191 -23.67738,0.640665 -25.39911,10.948863 -10.68788,3.811614 -21.74979,6.822371 -32.71622,9.905801 -15.19656,3.888159 -30.630774,6.727891 -45.997496,9.840098 5.162153,10.925928 -18.749157,-3.046878 -8.934594,-9.148577 1.860845,-10.763151 0.08734,-21.693411 0.599514,-32.522927 z m 2.248958,-41.929845 c 5.148318,1.232259 5.879669,-3.8529977 0,0 z m 8.995833,-2.1166662 c -1.138782,-1.8405175 -0.850656,2.0780232 0,0 z M 163.52509,71.932251 c 0.52551,-1.356941 0.52551,1.356941 0,0 z"
         id="path1647" />
      <path
         style="fill:#325646;stroke-width:0.264583"
         d="m 67.481344,221.39105 c 0,-22.94082 0,-45.88164 0,-68.82246 13.24339,12.41678 25.493809,26.54449 32.540246,43.47122 -3.350075,-2.83152 -15.105148,-11.30166 -7.075461,-1.84537 25.521351,26.40266 44.044341,58.45472 61.600481,90.44069 -11.6463,4.18246 -10.96605,-17.15441 -20.56283,-20.83777 -0.28312,8.12035 16.1535,17.14843 7.11875,25.22916 -11.09756,5.28707 -23.30564,-0.91361 -35.13704,1.19462 -12.828041,0.0452 -25.656114,-0.0641 -38.484146,-0.008 0,-22.94074 0,-45.88148 0,-68.82222 z m 0,-165.84041 C 69.12511,42.253667 62.690727,26.710662 72.494256,15.382317 76.949817,13.3665 82.143123,8.5722467 73.747083,9.1150421 64.725382,4.695334 83.749011,3.9913226 87.396293,4.3506475 118.22875,3.0861633 149.08647,4.3982127 179.92925,3.9343334 c -4.22935,16.1799476 6.60928,34.0061396 -2.94161,49.1626326 -5.28176,8.035622 -9.91825,16.426377 -21.21661,16.17143 -9.70105,3.792923 -25.51068,2.672536 -31.66125,9.27145 5.33793,4.012325 -10.97155,4.256587 -13.9982,7.156269 -13.311304,4.65388 -27.66199,9.021507 -41.837138,5.908914 C 66.270221,79.671634 68.090139,67.555642 67.481344,55.55064 Z m 98.616826,4.739944 c -1.28613,-1.513963 0.41688,3.277816 0,0 z"
         id="path1645" />
      <path
         style="fill:#234b33;stroke-width:0.264583"
         d="m 67.481344,230.12069 c 3.43589,-18.02701 -5.928469,-37.49699 3.407907,-54.53111 11.582732,4.66618 17.754107,16.91589 24.82448,26.53014 2.253576,4.14375 8.834379,15.772 5.743869,16.43523 -5.899451,-6.59098 -14.222619,2.19657 -5.109793,6.29574 16.477733,21.05686 37.747063,39.48379 46.828803,65.36281 l -69.532856,-0.11932 c 0,0 -3.230274,0.39959 -6.16241,0.11932 -3.366229,-0.32177 0.130304,-10.41939 0.130304,-10.41939 z m 22.405739,-11.3943 -0.08445,0.3841 z m -9.538494,-43.02092 c -11.667263,4.95098 -14.662313,-26.25606 -4.544001,-10.34753 1.968581,3.22225 3.610027,6.67717 4.544001,10.34753 z M 67.481344,55.552177 C 69.125368,42.254819 62.690504,26.711496 72.494057,15.38265 76.949324,13.366661 82.143552,8.5723167 73.747174,9.1150523 64.725271,4.6954372 83.749002,3.991257 87.396293,4.3506475 118.22875,3.0861632 149.08644,4.3982113 179.92922,3.9343334 c 0.38011,0.1903656 0.87567,1.6979487 0.74151,2.4812459 -2.61156,15.2471797 5.31471,31.7734617 -4.03611,45.7584047 -6.90052,11.020325 -27.09066,4.579142 -32.20476,13.054294 8.03958,5.034498 -11.70467,8.054503 -16.32869,9.53836 -9.18713,1.888273 -18.65366,2.83308 -27.44883,6.273548 5.173,-2.003183 14.10382,2.293389 4.7132,4.513482 -11.581523,2.979313 -27.716501,14.162558 -36.875654,0.779057 -6.297389,-9.737218 1.228381,-20.508732 -1.008542,-30.780548 z m 26.750331,25.826657 c -1.676412,1.026904 2.104155,0.823433 0,0 z m 1.425919,0.610613 -0.619594,0.1325 z"
         id="path1643"
         sodipodi:nodetypes="cccccccscccccccccccccscccccccccccc" />
      <path
         style="fill:#233932;stroke-width:0.264583"
         d="m 67.481344,230.93183 c 0,-19.76056 0,-39.52111 0,-59.28167 9.031925,10.54325 17.495233,22.37795 21.852027,35.53038 -5.624125,-3.82656 -14.671407,-0.49722 -7.130015,5.77826 11.496506,9.62167 21.615314,20.70989 29.863504,33.26272 9.58601,13.94462 17.63087,28.85402 25.96883,43.55573 -22.98158,-2.01384 -46.704127,5.35643 -69.102691,-2.48823 -3.451458,-10.95936 -0.524484,-22.5653 -1.451655,-33.8312 0,-7.50866 0,-15.01733 0,-22.52599 z m 0,-142.015625 c 3.078672,-6.685675 15.68441,0.520917 4.250905,0.231916 -1.419951,-0.0024 -2.837922,-0.0983 -4.250905,-0.231916 z m 0,-35.624361 C 64.607364,39.155656 66.570257,20.453223 81.024709,13.343455 92.442316,11.659597 105.15776,2.3986524 116.06923,6.7519374 111.92887,11.704202 101.0184,11.447701 98.882368,17.495853 109.9528,12.255945 121.08589,6.6535118 133.48406,5.3520286 146.21515,3.3509685 159.1326,3.2909172 171.98312,2.8928627 c 12.93678,5.3446144 6.22643,21.6469283 9.00919,32.1122913 2.22615,9.072691 -16.45293,13.471671 -13.5432,13.969811 9.31916,4.631307 -11.5673,9.473203 -16.27506,10.964185 -11.48704,2.945516 -23.41574,4.365673 -34.47609,8.826599 10.74269,-0.99364 6.34186,4.929191 -1.05802,5.562103 C 102.93696,78.4323 89.99733,82.933626 76.789757,84.553686 64.014613,82.671167 66.021246,67.21325 67.183667,57.726819 l 0.191883,-2.296181 z m 44.642926,16.363887 -0.54755,0.06027 z M 87.854259,21.926001 c -0.535679,-1.094417 -0.277987,1.352444 0,0 z"
         id="path1641" />
      <path
         style="fill:#172e27;stroke-width:0.264583"
         d="m 67.516117,274.80152 c -2.553806,-12.8474 9.621053,-2.86869 8.899756,4.34429 4.032255,9.18585 -9.962319,15.63375 -9.134385,3.56219 0.146561,-2.62849 0.765273,-5.27986 0.234629,-7.90648 z m 12.663948,14.88519 c -2.48086,-24.56194 -15.980277,-47.66288 -12.507683,-72.83426 14.614566,-6.67029 19.083247,13.89213 22.46947,23.84353 3.597806,12.5099 12.003398,22.39655 20.038298,32.24885 9.97576,10.63154 -2.3126,22.12588 -14.173694,17.74748 -5.262194,-0.46331 -10.526726,-1.40591 -15.826391,-1.0056 z m -3.702888,-12.45719 c 0.935673,-2.36744 0.950939,2.93006 0,0 z m -8.466666,-28.02644 c 0.278015,-1.35243 0.535655,1.09442 0,0 z m -0.529167,-1.05833 c 0.277984,-1.35243 0.53568,1.0944 0,0 z m 4.7625,-54.0074 c 1.783793,-0.85589 -0.879466,2.60141 0,0 z m -1.316795,-0.3571 c -2.130273,-2.38421 2.882904,0.26795 0,0 z m -1.064455,-0.67538 c -9.438466,-5.41663 4.706994,-8.62552 0,0 z M 67.481344,88.773158 c 5.978757,-7.667643 10.011202,4.099134 0,0 z m 0,-35.747881 C 64.557038,38.942705 66.672649,20.313397 81.09178,13.305027 92.292309,11.162822 109.72791,1.5743951 117.41557,7.0788683 112.31004,9.1924373 99.407599,14.01266 100.59184,17.115379 c 13.40737,-4.31216 25.49567,-14.4156768 40.2678,-13.1960754 9.32074,9.6338644 21.54955,-5.3071355 32.50928,-0.629853 10.18885,6.7634234 9.30543,22.8439374 4.90955,32.9385194 -5.82624,12.546091 -21.03003,4.775903 -30.80976,10.592492 -7.49486,3.573047 2.22902,11.780567 -7.98602,12.878866 -12.17694,5.843359 -26.41336,5.79491 -38.708,10.576425 3.73634,2.447033 9.02537,4.573907 0.87657,6.368677 -9.955464,3.707329 -26.856616,13.770853 -33.801074,1.011735 -2.527162,-8.045641 1.299999,-16.499732 -0.368842,-24.630888 z M 87.732847,22.172981 c -1.24031,-1.457466 -0.227169,2.86821 0,0 z"
         id="path1639" />
      <path
         style="fill:#0e2919;stroke-width:0.264583"
         d="m 67.481344,287.43537 c -3.107072,-9.30221 8.471565,-9.30002 7.531829,-0.26006 0.603111,5.18793 -5.88063,2.43287 -7.531829,0.26006 z m 20.108332,2.26457 c -4.305888,-1.58224 -0.292909,-2.52649 0.803049,-0.2122 z M 67.481344,79.977865 c -0.394613,-13.514875 25.836972,-0.523876 8.169519,1.39504 -2.728487,0.91298 -10.351968,5.724005 -8.169519,-1.39504 z m 0,-27.61416 C 67.593002,39.535218 63.667615,20.232038 79.903393,15.475397 86.759576,12.630686 101.09961,8.0158262 104.5573,11.629908 98.690653,18.468143 80.05244,21.410928 79.531261,26.313417 95.756956,21.919747 110.32061,12.935239 126.36209,7.8687997 c 8.22822,-4.6181122 23.42603,-4.4685855 9.47034,3.9632723 -10.11996,6.530663 -23.33985,6.901291 -32.43931,15.223529 12.3177,-2.618606 23.8334,-8.249164 35.47156,-12.855636 7.84864,-4.5145792 26.37299,-16.7678475 30.80678,-4.8054722 -8.03418,6.0590652 -17.79724,9.6426942 -26.22676,15.2939832 -9.84609,5.857933 -19.4014,12.52584 -26.96884,21.218685 10.96008,2.384766 9.55598,18.112305 -2.37243,16.487467 -14.634253,5.83931 -31.036959,11.803892 -46.774352,6.695881 -0.911241,-5.572272 1.220848,-11.163886 0.152266,-16.726804 z m 27.91354,-21.971038 c -0.741698,-1.649347 -0.741698,1.649346 0,0 z M 144.4844,42.051728 c 2.76748,-15.942372 18.88624,-24.633472 33.24516,-28.259945 3.50565,13.572537 -12.88269,19.817775 -22.75483,24.016022 -3.49503,1.418909 -7.02623,2.749368 -10.49033,4.243923 z"
         id="path1637" />
      <path
         style="fill:#091812;stroke-width:0.264583"
         d="M 67.481344,57.090406 C 65.657501,41.67943 83.329045,35.353895 95.542838,33.233472 104.51676,30.240685 124.53438,17.338141 127.13192,32.72568 121.30693,42.522528 111.53704,49.651055 103.758,58.016533 94.469466,65.488319 82.169583,70.458263 70.259296,69.120451 66.543707,66.455054 67.298287,61.044486 67.481344,57.090406 Z m 0,-19.733556 C 69.027396,27.474248 87.55773,24.013143 90.741148,29.387594 84.90018,34.149727 74.531139,41.157384 67.481344,37.35685 Z"
         id="path1635" />
    </g>
  </g>
  <g
     inkscape:groupmode="layer"
     id="layer2"
     inkscape:label="components" />
</svg>
