<?xml version="1.0" encoding="UTF-8" standalone="no"?>
<!-- Created with Inkscape (http://www.inkscape.org/) -->

<svg
   width="50.799999mm"
   height="128.5mm"
   viewBox="0 0 50.799999 128.5"
   version="1.1"
   id="svg5"
   inkscape:version="1.1.1 (3bf5ae0d25, 2021-09-20, custom)"
   sodipodi:docname="Zetab.svg"
   xmlns:inkscape="http://www.inkscape.org/namespaces/inkscape"
   xmlns:sodipodi="http://sodipodi.sourceforge.net/DTD/sodipodi-0.dtd"
   xmlns="http://www.w3.org/2000/svg"
   xmlns:svg="http://www.w3.org/2000/svg">
  <sodipodi:namedview
     id="namedview7"
     pagecolor="#ffffff"
     bordercolor="#666666"
     borderopacity="1.0"
     inkscape:pageshadow="2"
     inkscape:pageopacity="0.0"
     inkscape:pagecheckerboard="0"
     inkscape:document-units="mm"
     showgrid="false"
     inkscape:zoom="1.3861672"
     inkscape:cx="23.085238"
     inkscape:cy="239.14864"
     inkscape:window-width="1911"
     inkscape:window-height="1043"
     inkscape:window-x="3844"
     inkscape:window-y="16"
     inkscape:window-maximized="1"
     inkscape:current-layer="layer3"
     inkscape:snap-object-midpoints="true"
     inkscape:snap-midpoints="true"
     inkscape:snap-smooth-nodes="true"
     inkscape:snap-intersection-paths="true"
     inkscape:object-paths="true"
     inkscape:snap-center="true"
     inkscape:snap-bbox="true" />
  <defs
     id="defs2" />
  <g
     inkscape:groupmode="layer"
     id="layer3"
     inkscape:label="Layer 2">
    <path
       style="fill:#c2e4e0;stroke-width:0.0955532"
       d="m 50.895498,64.285743 c 0,-21.407881 0,-42.815762 0,-64.22364319 -16.975796,0 -33.951592,0 -50.92738738,0 0,42.81576419 0,85.63152719 0,128.44729019 16.97579538,0 33.95159138,0 50.92738738,0 0,-21.40788 0,-42.815764 0,-64.223647 z"
       id="path887" />
    <path
       style="fill:#44c6bc;stroke-width:0.0955532"
       d="m 50.883437,120.64895 c 2.112776,-4.86826 -2.938476,-13.30055 -1.579986,-13.57194 3.793024,-8.789304 0.402901,-19.757641 1.57461,-29.428989 -0.0042,-14.46522 0.08982,-28.930841 -0.05114,-43.395719 -4.300548,-2.761163 3.402092,-8.755862 0.0078,-13.409153 -1.95817,-6.013288 3.94536,-19.4052933 -2.740133,-20.78104919 -16.042156,0 -32.084311,0 -48.12646638,0 C -1.0835715,5.0156636 1.957019,8.5411896 0.07030096,12.75567 -0.26733124,22.993875 0.18171427,33.704445 -6.8046959e-4,44.147052 -0.0111337,71.326521 -0.02158692,98.505989 -0.0320502,125.68546 c 7.9631077,4.96096 17.7590802,2.11399 26.6361192,2.82393 8.097143,0 16.194286,0 24.291429,0 -0.004,-2.62015 -0.008,-5.24029 -0.01206,-7.86044 z m -1.788183,-4.75554 c -3.502211,-3.0214 -3.607874,-11.00811 -0.166132,-3.52796 0.01817,0.74612 1.780747,3.23288 0.166132,3.52796 z m -8.026284,-4.13296 c -1.590368,-3.04418 -3.747854,-17.449125 0.44059,-8.23344 0.141669,2.75787 -1.166518,5.4936 -0.44059,8.23344 z m -0.683704,-7.75158 c 0.338305,-0.97243 -1.049993,0.41425 0,0 z m 4.620759,2.73837 c -2.177301,-2.63555 2.721477,0.96929 0,0 z m 1.41672,-2.25729 c -7.407691,-1.46906 0.526629,-3.57749 1.982282,-0.57037 z m -8.52928,-2.97277 c 0.707854,-0.94007 -0.11931,1.68431 0,0 z m 3.848988,-1.691327 c -6.233034,-6.209081 15.077786,1.379557 1.859724,-0.04959 z m -7.365142,-0.902639 c -5.576654,-2.837957 0.977197,-2.916881 0,0 z m 2.433353,-1.030878 c -1.812774,-1.647465 3.712287,1.147741 0,0 z m 1.004952,-1.603763 c -1.178116,-1.410495 1.606345,0.927546 0,0 z m 1.459343,-0.297197 c -10.739877,-3.78569 8.364197,-1.25333 0,0 z m -2.995184,-0.317917 c 0.06441,-1.017835 0.752818,1.1265 0,0 z m -0.928201,-0.358315 c 0.327531,-0.517584 0.337638,0.557685 0,0 z M 32.378677,94.28064 c -0.640704,-1.119059 1.230006,0.393954 0,0 z m -1.145579,-0.09548 c -2.405719,-1.370741 1.424194,-1.525305 0,0 z m 3.254925,-0.250574 c 0.34279,-1.524559 1.37687,1.179421 0,0 z M 33.569868,93.3249 c 0.425458,-1.333187 0.560579,1.787017 0,0 z m -1.096799,-0.43232 c -2.990766,0.136226 0.615326,-2.460489 0,0 z m 3.188498,-0.887646 c -6.756992,-3.353695 8.192069,-0.403154 0.268268,0.056 z m -7.488138,-0.963248 c -2.151983,-3.029043 1.522704,0.639338 0,0 z m 2.037489,-0.368104 c -3.093619,-2.808805 3.707824,1.122462 0,0 z m -3.444247,-1.087173 c -0.863222,-2.101876 2.030221,0.734694 0,0 z m 1.18936,-0.559618 c 0.248662,-0.490774 0.235382,0.460058 0,0 z m 4.72379,-0.516509 c 0.918624,-4.602295 6.068634,2.48237 0,0 z m -3.189102,-0.458355 c -2.50107,-4.495174 3.761134,1.843952 0,0 z m -2.034711,-1.468419 c -1.068444,-1.519839 1.641566,1.020748 0,0 z m -2.594892,-0.798701 c 0.262325,-2.365484 1.728981,1.790825 0,0 z m 6.016835,-0.107147 c -5.53469,-0.257636 -4.040084,-8.676172 0.626042,-3.450538 -7.426481,0.96816 6.249491,2.588675 -0.30578,3.452658 z M 23.62073,84.906146 c -1.209629,-0.969523 1.072487,0.02138 0,0 z m 2.804708,-0.982197 c -0.638991,-2.706869 1.313505,0.868521 0,0 z m -1.055524,-0.106896 c -0.03062,-1.52289 1.108069,1.14632 0,0 z m -3.658023,-0.822306 c 0.512019,-1.379609 0.675784,1.04223 0,0 z m 5.535585,-0.156454 c 0.216347,-1.090924 0.607269,0.864743 0,0 z M 22.791127,82.58031 c -0.447582,-2.115301 1.596354,1.222313 0,0 z m 0.113477,-1.865138 c -0.685177,-3.623076 3.033945,2.288014 0,0 z M 42.94889,80.045601 c -2.178329,-2.284946 1.559198,-1.350874 0,0 z M 26.450353,79.296938 c -9.600056,-1.338321 9.477596,-1.365358 0,0 z m 15.016674,-1.110902 0.03304,-0.409299 z m -18.36021,-0.318488 c 0.838016,-0.984307 0.93826,1.089297 0,0 z m 17.482154,-1.406315 c -3.76312,-3.671158 3.424181,-0.591278 0,0 z M 22.154738,76.296626 c -9.728801,-0.0816 7.023303,-3.138592 3.982634,0.14529 L 24.144521,76.41554 Z M 20.959051,73.45473 c -4.124265,0.506377 -8.426376,-2.005639 -1.361645,-1.439509 4.039649,-0.549438 10.454832,1.884464 1.361645,1.439509 z m 13.063982,-0.818882 c 0.183917,-0.427883 0.212657,0.511408 0,0 z M 18.999276,70.346647 c -3.00437,-2.367019 10.548824,0.506032 0,0 z m -6.010532,-0.235136 c 1.005415,-1.9983 1.877784,1.689242 0,0 z m 20.122025,-0.07347 c -0.967567,-2.029998 1.87613,0.218578 0,0 z M 32.97132,68.488437 c -0.868365,-2.124217 1.262577,0.570962 0,0 z m -0.01743,-1.257254 c -0.243006,-2.292315 1.674998,0.998309 0,0 z m -16.260925,0.0691 c 5.153719,-2.90233 9.475208,1.860192 0,0 z m -3.802152,0.01473 c 1.244351,-1.723281 1.828168,1.625521 0,0 z M 14.847764,65.3269 c 0.946532,-4.534302 17.189772,0.01765 4.802376,-0.671076 -1.619114,-0.0314 -3.282733,0.05969 -4.802376,0.671076 z M 33.80161,63.97648 c 0.164757,-0.437081 0.135954,0.395776 0,0 z m 5.159166,-1.264181 c -0.173459,-4.653151 4.59028,-1.24006 0,0 z M 22.996147,61.768287 c -11.108089,0.325915 5.10229,-3.556248 3.232819,-0.211822 -1.05198,0.475916 -2.149323,0.2369 -3.232819,0.211822 z m -0.2348,-2.642849 c 0.17318,-1.122273 1.590659,1.233582 0,0 z m 1.333566,-0.37764 c -4.91648,-2.517875 11.7104,-0.633059 1.341537,-9.55e-4 z m 16.66816,-0.309812 c 1.104154,-1.884375 0.413841,1.28084 0,0 z m 1.186919,-0.65343 c -0.739598,-2.466168 2.100074,-0.774504 0,0 z M 22.044026,57.313892 c 0.165171,-3.143014 3.266383,0.738676 0,0 z m 5.065737,-0.837065 c -6.369139,-4.315539 12.447663,-6.943053 1.756507,-3.29591 3.720986,4.01981 -0.114009,1.194238 -1.756507,3.29591 z m -5.134645,-1.958068 c 0.321952,-2.023236 0.996527,1.459987 0,0 z M 26.554904,53.9512 c 0.44038,-0.869748 0.248801,0.899778 0,0 z m -5.592633,0.08183 c -0.139663,-1.243878 1.014653,0.833928 0,0 z m 4.769038,-0.391095 c -1.334414,-1.715024 1.568108,-0.664376 0,0 z m -1.178417,-0.315398 c -0.234565,-1.72356 1.426848,0.696607 0,0 z m -2.029308,-0.964833 c -0.08567,-1.243112 1.134346,0.39734 0,0 z m 1.234902,-0.737861 c 0.396708,-2.113224 2.699018,0.906811 0,0 z m 2.549724,-1.197028 c 0.521257,-2.21312 1.018836,0.737203 0,0 z m 2.17158,-0.532549 c -2.205014,-3.349861 3.239722,-6.13e-4 0,0 z m 3.683286,-0.497388 c -0.28712,-3.558855 5.064708,1.537604 0,0 z m -6.503677,-1.542005 c -0.485971,-2.550661 1.897649,0.80591 0,0 z m 1.377144,-0.01697 c 0.278874,-0.320206 -0.0378,0.63915 0,0 z m 1.292009,-0.420759 c 0.636546,-3.24076 3.751665,-0.317822 0,0 z m 3.985172,-0.586311 c 0.90262,-5.374909 8.101335,0.595054 0.574667,-0.457786 l -0.436803,0.347962 z m -5.543903,-0.336148 c -0.777704,-1.694608 1.503077,-0.260085 0,0 z m 3.24386,-1.383252 c -0.299574,-2.794935 3.369964,0.430849 0,0 z m -0.817679,-1.388015 c -0.123822,-2.881806 2.178153,0.551062 0,0 z m 2.957598,-0.11519 c -0.568552,-1.895288 1.399189,0.179964 0,0 z m 1.426586,-0.455466 c -2.545057,-0.411988 1.780654,-0.825702 0,0 z M 30.73649,42.680436 c 0.343609,-1.396234 1.078343,1.064919 0,0 z m 4.792223,-0.181818 c 1.141848,-5.25726 8.496077,1.944314 0,0 z M 33.89018,41.297184 c 0.337637,-0.557688 0.327533,0.517586 0,0 z m 0.797124,-0.255343 c 0.246774,-1.164362 0.908528,0.517423 0,0 z m -4.022663,-0.0134 c 0.0337,-4.743607 4.357531,-2.560803 0,0 z m 5.351203,-0.433478 c 0.345152,-1.595231 1.285363,0.518935 0,0 z m 2.657081,-0.695171 c -2.404899,-6.239409 13.504047,-2.147681 4.038547,-1.470533 l -2.068921,0.604265 z m -3.900812,-0.916803 c 1.273166,-1.267865 2.454527,0.920911 0,0 z m 0.823026,-1.986852 c 3.348786,-2.808425 2.304231,-18.097353 3.702424,-6.254877 0.683906,2.671039 0.234698,6.970328 -3.702424,6.254877 z m 2.886646,-4.31405 c -0.251739,-0.999846 -0.597389,0.717217 0,0 z m -2.370823,2.444077 c -0.709349,-1.692747 1.046601,0.378172 0,0 z m 4.863796,-1.07089 c 2.32534,-5.883161 10.562733,1.517153 0,0 z m 1.523755,-3.63447 c 0.339354,-2.175551 2.300763,0.931307 0,0 z m 3.51617,-1.123342 c -3.604941,-3.428875 7.588127,-0.204951 0,0 z m -3.224634,-1.02559 c 0.959401,-3.956963 6.042626,-10.758425 3.295731,-2.695509 -0.461771,1.374166 -1.630457,2.870332 -3.295731,2.695509 z m 4.739813,-4.647517 c -0.0045,-2.402127 1.822078,0.767489 0,0 z M 1.3852205,128.46685 c -1.34946745,-1.82137 -1.90490571,1.15516 0,0 z"
       id="path885" />
    <path
       style="fill:#a74746;stroke-width:0.0955532"
       d="m 50.895498,128.36726 c -1.933978,-1.2636 -3.103516,-6.18936 -0.470675,-1.83833 4.878622,-7.32513 -11.651165,-17.1091 0.280862,-21.03269 -2.103824,-1.49818 -12.603976,-2.07105 -4.224649,-2.98489 10.001517,-1.46069 -3.329581,-2.464 -6.158155,-3.906887 2.747316,-1.788572 14.104512,1.896977 10.544328,-6.932487 C 51.88167,82.802532 38.183752,81.82364 38.672616,72.70436 41.539474,68.749053 44.047693,89.484654 51.235013,82.669332 49.613137,72.730354 52.809647,58.741659 49.590341,51.282894 42.878402,51.006686 41.142826,66.488196 38.37895,63.52012 c 1.232497,-8.922954 20.611161,-18.29365 9.856891,-25.941273 -5.013135,1.667948 -9.254557,2.528226 -12.189189,-1.23019 -5.12977,1.829544 -4.160484,8.300001 -3.51064,9.035429 6.926851,-3.336673 5.086,2.650692 -1.377016,1.638791 -6.707195,-1.860509 3.277781,-11.817004 5.801009,-13.044861 0.69913,-10.106569 2.11601,-20.895935 9.747371,-28.3943855 C 54.354685,-4.5794211 34.592064,1.8610668 29.275521,0.08625963 19.506531,0.02149389 9.730089,-0.13034561 -0.03188938,0.3390903 -2.6839143,7.2450274 6.5563083,7.2129114 -0.33197038,12.398661 c 0.71233014,20.784753 0.0886916,42.198826 0.2973903,63.230302 0.0044225,16.622843 0.01217197,33.245687 0.0027138,49.868537 8.70815838,5.09416 19.19946028,2.37793 28.81503228,3.01194 6.318245,0 12.63649,0 18.954736,0 -8.60396,-8.05477 -5.015192,-22.07913 -12.573607,-29.259563 -6.631603,-1.963731 -6.056987,-15.482618 -0.469517,-5.204576 -2.161734,5.3659 11.403274,7.897609 7.023412,16.039989 0.731101,6.34198 4.056968,14.99838 9.177328,18.28197 z m -3.706765,-5.52052 c -0.433809,-2.32426 1.250062,1.96185 0,0 z m -0.801519,-1.80594 c -2.9316,-1.28139 1.509926,-0.6146 0,0 z m -0.818102,-1.60313 c -2.313138,-2.12915 1.048921,-1.68074 0,0 z m -1.656245,-3.39871 c -0.584318,-2.57647 1.734546,0.63152 0,0 z m -8.097209,-9.13063 c -0.770247,-1.51465 1.319081,0.85273 0,0 z m 8.729481,-0.21486 c 0.05389,-3.00255 2.413755,2.00644 0,0 z m -7.801929,-1.18663 c 0.261342,-0.99477 0.53912,0.8453 0,0 z m -1.179352,-0.20358 c -3.505953,0.095 1.038406,-2.67493 0,0 z m 0.911498,-1.71415 c 0.348144,-1.08135 0.467828,0.81824 0,0 z m -1.168066,-0.23636 c -4.463207,-0.53298 0.458841,-3.20322 0,0 z m 2.531471,-1.39947 c -1.269002,-1.28734 1.451619,-0.57073 0,0 z m -1.15232,-0.40869 0.01023,-0.29195 z m -1.591642,-0.58833 c 0.409754,-1.0973 0.679514,1.37934 0,0 z m -1.747306,-0.28056 c -2.593583,-2.647752 2.946995,0.55934 0,0 z m -1.208404,-1.153289 c 0.183403,-0.65949 0.348886,0.524849 0,0 z m 4.140874,-1.750831 c 1.420467,-1.670404 1.826168,1.754304 0,0 z m 1.583569,-1.265584 c -7.019898,-4.133913 13.955373,-2.016059 0,0 z m -0.519148,-0.869082 c -0.346805,-1.363421 -0.920549,0.558622 0,0 z m 7.616966,-0.115595 c 0.235378,-0.460059 0.248662,0.490775 0,0 z M 27.854434,94.549876 c -1.505576,-2.368596 1.890545,-0.219022 0,0 z m 12.589879,-0.620332 0.14845,-0.06147 z m -2.612797,-1.604171 c -8.735113,0.116278 -0.694799,-5.39303 1.750023,-0.550987 z m -9.891211,-1.250717 c -5.807564,-4.615755 0.936458,-4.929806 0,0 z m -5.869973,-1.011927 c -4.569376,-0.791194 1.481725,-1.691085 0,0 z m 10.27642,-0.651437 c 1.023909,-1.446797 -0.173727,1.519095 0,0 z M 20.24195,88.837274 c -1.916596,-2.394165 2.99334,-0.336065 0,0 z m -8.693394,0.21124 c -0.241677,-1.583041 1.513549,1.283923 0,0 z m 16.360362,-0.135185 c -0.146775,-1.727983 0.69322,1.028104 0,0 z m -17.31661,0.113465 c -1.3527598,-1.465435 1.747814,0.137662 0,0 z M 8.8750985,88.926257 c -0.4416529,-1.670899 1.8710475,1.060362 0,0 z M 33.358763,88.768101 c -2.006645,-4.716198 11.276282,1.005099 0,0 z M 29.78177,88.574959 c -4.007188,-3.656329 4.240188,-1.861978 0,0 z M 15.512035,87.583566 c 0.401852,-0.868209 0.452739,0.810726 0,0 z m -1.169928,-0.05391 c -3.458052,0.306643 1.451949,-1.035491 0,0 z m 13.197299,-0.883784 c -2.340238,-2.426819 -1.700533,-5.384675 0,0 z m -3.834704,0.238306 c 0.126699,-1.619453 1.140941,0.694474 0,0 z m 8.325521,-0.434577 c 0.196933,-0.439498 0.196933,0.439497 0,0 z m -7.122616,-0.405527 c -6.948394,-4.08873 5.506578,0.50005 0,0 z m 5.439797,-0.140838 c -7.356728,-3.698794 -2.848344,-7.744567 2.857602,-3.930628 -10.107789,1.609002 9.020352,2.785107 -1.595352,3.809051 z m -10.618259,0.03092 c -4.290073,-0.949918 1.350554,-1.531851 0,0 z m -5.501366,-1.179424 c 0.04592,-1.237246 0.498073,0.721908 0,0 z m -1.065024,-0.115883 c -1.129725,-2.174992 1.287918,0.756757 0,0 z m 11.161933,-0.869533 c 0.196931,-0.439497 0.196935,0.439495 0,0 z m -2.793623,-0.254183 c 1.168461,-7.055265 4.907994,-1.58277 0,0 z m 2.643599,-2.285845 -0.246785,-0.205699 z m -3.702744,2.428349 c 0.473334,-1.320648 0.482804,0.796749 0,0 z m 27.870183,-0.336991 c 0.517444,-0.590528 0.116833,1.093247 0,0 z m -31.72295,-0.318404 0.14845,-0.06147 z m 0.490069,-0.673315 c 0.55523,-2.109207 1.83009,1.571486 0,0 z m 1.444153,-1.554524 c -4.125317,-1.181036 3.277383,-0.494978 0,0 z m 7.681618,-1.485658 c -13.457572,-1.69043 12.299471,-1.787582 1.542472,0.121514 z M 49.20035,78.72534 c -0.171121,-1.446033 1.26233,0.983102 0,0 z m -34.783819,0.06051 c -0.02502,-0.977303 0.780431,0.679408 0,0 z m 4.117832,-0.123277 c 0.614489,-1.117031 1.107017,1.058638 0,0 z M 9.4450335,78.305668 c 0.3734265,-0.558018 0.3734265,0.558017 0,0 z M 47.441293,77.48097 c 0.164754,-0.43708 0.135951,0.395776 0,0 z M 7.4079378,76.764667 c -0.2465494,-1.884598 1.2842292,0.04043 0,0 z M 21.446183,76.340835 c -3.419115,0.603401 -11.6352121,-2.115964 -3.460567,-1.106828 4.807183,-1.548115 16.316548,1.292539 5.254903,1.183 z M 3.1566083,76.266854 c -0.017801,-1.446367 1.3418586,0.406612 0,0 z M 44.798862,75.357705 c 2.249589,-2.683473 3.660283,1.877442 0,0 z m -1.803248,-0.302093 c -0.05456,-1.28975 0.906773,1.139939 0,0 z M 12.132678,74.538524 c 0.155478,-1.00636 0.567621,1.035609 0,0 z m 22.587615,-0.62421 c -6.629145,-1.412258 0.730681,-16.514362 -0.611125,-5.867615 0.144484,1.96257 0.971709,3.8783 0.611125,5.867615 z m -13.716957,-0.37314 c -5.077942,0.319643 -14.9413517,-1.927225 -4.134134,-1.259278 3.948403,-1.725043 16.407539,1.480365 4.134134,1.259278 z M 6.9322988,72.143285 c 0.5187193,-1.910739 1.0330161,1.651219 0,0 z M 1.7394984,72.017321 c 0.5186248,-1.127499 0.4465639,1.267429 0,0 z M 19.497657,71.809733 c 0.582911,-1.15202 0.650549,0.880305 0,0 z m -0.575702,-1.42358 c -5.238647,-2.228829 12.941628,-0.02338 0,0 z m -6.091577,-0.07563 c -4.3500638,-2.58855 5.922466,0.165492 0,0 z m -4.3502909,0.01891 c 0.4433234,-1.90222 2.1009089,0.981437 0,0 z M 6.8765218,70.13214 c -0.7255715,-2.898542 3.0665336,0.985218 0,0 z m 8.6355132,-0.176581 c 0.719416,-1.159715 0.250982,0.755306 0,0 z M 1.9166374,69.749392 c 0.1647569,-0.437081 0.1359543,0.395776 0,0 z M 6.7190902,68.0426 c -0.058518,-3.043931 2.5137368,2.020006 0,0 z M 11.30071,67.910508 c 2.524405,-2.439304 4.829317,0.609695 0,0 z m 5.407012,-0.354059 c 4.494044,-3.655038 11.692032,1.302447 0,0 z M 8.4294714,67.279127 c 0.5425003,-1.763776 1.6918046,1.786616 0,0 z m 7.0867316,-0.123476 c -0.831593,-0.782664 1.018637,0.283177 0,0 z M 9.9764495,65.62745 C 13.141865,62.3809 27.490844,63.014957 24.64854,64.588678 19.7782,65.208433 14.759632,64.284922 9.9764495,65.62745 Z M 6.8590669,65.59924 c -0.9455145,-2.032714 2.376882,0.125375 0,0 z M 1.5623594,65.309062 c 0.4822908,-0.712871 0.2191389,0.840957 0,0 z m 17.8132376,0.01751 c 0.05465,-1.113237 1.132714,0.736052 0,0 z m -7.605464,-2.663919 c 0.102597,-1.173919 0.739764,0.677648 0,0 z m 3.589164,-0.05208 C 9.5393639,60.766761 25.477512,59.771334 27.572606,60.771895 26.772692,64.30565 18.213817,59.51598 15.359297,62.610573 Z m 29.976704,-0.919542 c -2.613734,-1.706714 5.454561,0.535057 0,0 z m -2.721739,-0.18601 c -0.455611,-2.342524 1.070579,1.219727 0,0 z M 2.888879,61.321971 c 0.1102765,-1.27966 1.1177274,1.770726 0,0 z m 4.3246247,-0.508952 c -0.9637895,-1.29706 1.0526229,0.827964 0,0 z M 22.538661,59.21716 c -2.194968,-4.245322 14.461187,-0.630354 3.880767,-0.253072 -1.283104,-0.04944 -2.692445,-0.512139 -3.880767,0.253072 z m 24.371216,-0.395065 c 0.196926,-0.439494 0.196931,0.439491 0,0 z m -37.9962594,0 c 0.4297332,-0.611356 0.4120964,0.565598 0,0 z m 4.8713144,-0.426616 c 0.428437,-0.986157 0.636507,0.827572 0,0 z m 6.022717,0.01427 c 0.15394,-0.570715 0.318895,0.306854 0,0 z m -1.820441,-0.009 c 0.553913,-1.003763 0.927968,1.037071 0,0 z m 30.544031,-0.572921 c 0.261229,-1.58069 1.260467,1.110204 0,0 z M 21.807705,57.419381 c -3.333043,-7.626189 5.764793,-0.109766 0,0 z m 1.630618,-1.637432 c 0.282979,-1.130624 -0.754062,0.745497 0,0 z m -6.642032,1.430174 c 0.859265,-3.331075 4.023876,1.176721 0,0 z m 10.220516,-0.664447 c -5.255144,-1.552594 4.890697,-9.65744 7.187643,-4.236086 -5.751205,-0.139904 -6.122854,1.216081 -1.75782,2.972682 -1.847224,0.399718 -3.707446,0.340382 -5.429823,1.263404 z M 16.318544,55.188253 c 0.717504,-2.010387 2.053866,1.39407 0,0 z m 3.666244,0.02577 c 0.248664,-0.490775 0.235381,0.460062 0,0 z m 30.202155,-0.303174 c -0.0395,-0.678474 0.445289,0.295534 0,0 z M 25.741798,53.687412 c -2.626578,-2.755366 3.815958,-5.315109 0,0 z M 19.668676,53.34692 c -0.05374,-1.070375 0.731373,0.639566 0,0 z m 27.861186,-0.352516 c 0.156094,-1.526714 0.668642,0.688797 0,0 z m -35.285899,-0.03137 c -0.8844,-1.453555 1.250977,-0.242057 0,0 z M 22.065677,52.6362 c 2.01742,-3.404279 4.951038,-0.569266 0,0 z M 17.281373,52.633 c 0.363745,-2.375157 3.80454,-0.726437 0,0 z m -3.879424,-0.24378 -0.346869,-0.0061 z m 15.246648,-1.954514 c -3.88178,-3.574368 4.88851,-1.678034 0,0 z m 2.407362,-0.214358 c -2.99e-4,-0.801882 0.369195,0.534435 0,0 z m -8.107212,-0.01794 c -0.661744,-1.075813 1.172164,0.615352 0,0 z m -9.754204,-0.287454 c -2.66632,0.2833 1.590043,-0.776611 0,0 z m 11.516592,-0.812147 c 1.480468,-7.276382 3.605475,0.849469 0,0 z m -10.178577,0.49489 c -0.38756,-1.359911 1.043053,0.752324 0,0 z m 17.72644,-0.106931 c -1.220485,-4.656822 10.052119,0.928511 0,0 z m -12.44519,-0.230145 c -2.710819,-0.394766 1.93278,-1.648665 0,0 z M 7.5928644,48.678877 c 0.4122703,-1.767625 1.5597019,1.372896 0,0 z M 10.385063,48.48745 c 0.01136,-2.133575 1.808725,0.854486 0,0 z m -1.0920425,0.06361 c 0.1466779,-1.583514 1.2575205,0.821274 0,0 z M 26.834374,48.042499 c -0.250404,-1.041811 0.692327,0.459778 0,0 z m -6.848052,-0.141624 c 0.116297,-3.305373 2.241003,0.750624 0,0 z m 11.246776,-0.791857 c 0.763922,-0.858067 -0.181815,1.596498 0,0 z m -4.782745,-4.573584 c 0.936945,-2.046938 0.832377,0.654919 0,0 z m 12.625809,-0.01 c 0.461033,-0.252171 -0.101117,0.532971 0,0 z m -2.88318,0.06291 c -6.674691,-4.197316 14.404104,-1.4015 0,0 z m -0.354276,-1.510571 c -0.05153,-0.990858 -1.468888,1.36555 0,0 z m -7.238702,1.291086 0.157306,-0.0058 z m 14.979295,-1.662284 c 0.541788,0.08801 -0.49028,0.435559 0,0 z m -9.069134,-1.496918 c 1.20604,-2.262795 2.958691,1.366281 0,0 z m -3.985622,-2.035982 c 0.135954,-0.395777 0.164757,0.437081 0,0 z m 0.54913,-0.226793 c 0.110287,-2.695047 3.174028,0.927632 0,0 z m 2.290008,-1.054906 c -0.433078,-1.586022 1.375536,0.295126 0,0 z m 2.6131,-0.697342 c -0.795988,-2.516989 1.440943,1.06709 0,0 z m -1.087034,-0.156349 c 1.197541,-0.48484 -0.815858,1.141655 0,0 z m -3.253141,-0.189659 c 0.660697,-3.533385 4.354621,0.09528 0,0 z m 2.924046,-1.913229 c 0.791493,-0.706847 -0.02096,1.092204 0,0 z m -1.556166,-0.14295 c -2.382601,-2.428646 3.702801,-0.647864 0,0 z m 1.783,-1.633117 c -0.02502,-0.977303 0.780431,0.679405 0,0 z m -1.251584,-1.061115 c -0.08141,-1.708977 1.352126,0.424021 0,0 z M 0.72058216,128.31092 c -2.50048026,-1.57246 0.43338474,0.9917 0,0 z M 50.895498,115.2147 c -0.623635,-3.99628 -0.476767,3.52631 0,0 z m -1.062832,-2.01919 c 4.711368,-5.59833 -5.644063,-4.81507 0,0 z m -2.16995,-4.27278 c -1.350352,-1.76177 -0.396331,0.88977 0,0 z m -2.878504,-4.74204 c -0.337642,-0.55769 -0.327528,0.5176 0,0 z M 33.270194,97.1867 c 0.05007,-0.95168 -0.799404,0.253286 0,0 z m -0.863551,-1.878428 c 1.198621,-1.446909 -1.485773,0.05033 0,0 z m 0.895165,-0.670994 c 1.484874,-2.592102 -1.485263,-1.190293 0,0 z m -0.856697,-1.083319 c 0.284337,-1.978588 -2.288466,0.624853 0,0 z M 50.836452,50.506352 c 1.440206,-1.316284 -0.966565,-0.538315 0,0 z M 31.004377,43.635616 c 0.22642,-1.776512 -1.573326,1.059887 0,0 z m 0.140152,-1.924117 c -0.68899,-2.354271 -0.833121,1.572966 0,0 z m 0.354277,-1.966715 -0.14845,0.06147 z m 7.857617,-2.975599 c 2.819787,0.08258 16.06337,-0.699724 8.297704,-2.818401 -5.596828,2.323515 -9.120536,-3.295161 -1.628269,-1.765989 6.606816,0.671245 4.834731,-5.393399 -0.594165,-2.663866 C 39.468922,21.570118 56.064377,13.728687 50.468126,4.1776023 44.127895,8.8374799 40.127814,17.796344 39.6329,25.740992 c 0.138687,3.570172 -0.0099,8.051411 -0.276477,11.028193 z m 3.191412,-6.198543 c -0.115037,-2.663504 3.227318,0.758441 0,0 z M 41.772853,21.25247 c -2.135282,-1.969187 1.636225,-0.88839 0,0 z m 0.708366,-3.406607 c 1.329723,-3.206385 -0.129777,2.574236 0,0 z m 0.625085,-1.970479 c 0.430957,-2.309425 1.120976,0.897372 0,0 z m 1.08798,-1.994051 c -0.763173,-2.304988 1.612765,0.472067 0,0 z m 0.894988,-1.356723 c 1.865406,-5.8906373 3.39126,-2.459546 0,0 z m 2.352021,-0.755971 0.148446,-0.06147 z m 1.657516,-2.5333395 c 0.06104,-1.1422913 0.520046,0.6476713 0,0 z M 48.238417,7.2393182 c -0.226842,-1.0298253 0.732266,0.2484601 0,0 z m 0.885694,-1.6460485 c 0.05757,-2.6144852 1.348801,0.7563331 0,0 z M 42.658547,32.270925 c -0.350514,-0.392496 -0.02478,0.592381 0,0 z m -3.542775,-1.855578 c -0.350515,-0.392503 -0.02479,0.592381 0,0 z m 6.404995,-2.990557 c 9.485056,1.066857 2.473752,-9.998876 0,0 z m 2.869509,-5.194013 c 6.605305,-3.64801 -1.436713,-8.45967 0,0 z"
       id="path883" />
    <path
       style="fill:#2f8c72;stroke-width:0.0955532"
       d="m 50.895498,128.36726 c -1.933978,-1.2636 -3.103516,-6.18936 -0.470675,-1.83833 4.878622,-7.32513 -11.651165,-17.1091 0.280862,-21.03269 -2.145887,-1.50632 -12.624588,-2.06206 -4.168723,-3.00117 10.030214,-1.56328 -3.756848,-2.25626 -6.407401,-4.026131 2.446355,-1.933273 13.899602,2.166601 10.731899,-6.792108 0.847806,-9.001404 -14.023985,-10.592093 -11.880673,-20.458891 1.642388,2.872548 8.973193,18.459991 12.125144,9.508045 -1.336796,-9.290896 1.620582,-22.625743 -1.51559,-29.443091 -6.711939,-0.276208 -8.447515,15.205302 -11.211391,12.237226 1.233973,-8.926463 20.618968,-18.295398 9.85016,-25.950529 -5.19151,1.702476 -9.453803,2.722812 -12.228973,-1.324164 -4.991758,1.437017 -4.148322,8.653998 -3.504002,8.793487 4.775991,-1.906735 7.569631,1.071958 1.354155,1.390054 C 22.958193,48.78392 33.287213,35.827143 37.466866,33.134437 36.08267,22.33741 41.190917,11.361449 48.417441,3.3302983 49.381221,-4.0518484 33.895847,1.9678164 28.192153,0.10606086 18.784146,0.09731132 9.3760573,-0.03075215 -0.03188938,0.0620998 0.05048305,4.2168077 -1.1293003,8.148548 3.044429,7.9273298 -2.2437651,13.088016 0.61381149,22.18126 -0.03188938,29.638153 c 0,31.953114 0,63.906229 0,95.859347 8.70815838,5.09416 19.19946038,2.37793 28.81503238,3.01194 6.318245,0 12.63649,0 18.954736,0 -7.80853,-8.14027 -6.246253,-20.85163 -12.040683,-28.944139 -6.485051,-1.334952 -7.601174,-16.483038 -1.110238,-5.722606 -2.082598,5.657239 11.630333,8.072765 7.109454,16.388745 0.967516,6.43384 3.94063,14.75655 9.199081,18.13582 z m -3.706765,-5.52052 c -0.433809,-2.32426 1.250062,1.96185 0,0 z m -0.801519,-1.80594 c -2.9316,-1.28139 1.509926,-0.6146 0,0 z m -0.818102,-1.60313 c -2.313138,-2.12915 1.048921,-1.68074 0,0 z m -1.656245,-3.39871 c -0.584318,-2.57647 1.734546,0.63152 0,0 z m -9.152163,-6.97758 c -1.090126,-1.77416 1.735946,0.54493 0,0 z m 1.054954,-2.15305 c -0.770247,-1.51465 1.319081,0.85273 0,0 z m -2.494977,0.0674 c -0.211237,-1.10529 0.748346,0.37369 0,0 z m 11.224458,-0.28227 c 0.05389,-3.00255 2.413755,2.00644 0,0 z m -6.38737,-1.09622 c 0.476861,-0.96234 0.307251,1.32533 0,0 z m -1.414559,-0.0904 c 0.261342,-0.99477 0.53912,0.8453 0,0 z m -1.179352,-0.20358 c -3.505953,0.095 1.038406,-2.67493 0,0 z m -2.795652,-0.56725 c -1.21897,-2.26645 2.227777,1.26478 0,0 z M 31.79425,103.7098 c -0.77107,-2.318 1.233835,0.46858 0,0 z m 4.681106,-0.12072 c 0.348144,-1.08135 0.467828,0.81824 0,0 z m 1.68827,-0.10421 c 0.335898,-1.1211 0.585008,1.08581 0,0 z m -2.856336,-0.13215 c -4.463207,-0.53298 0.458841,-3.20322 0,0 z m -3.310536,-0.97748 c -1.491261,-1.68687 1.742543,0.34631 0,0 z m 4.689687,-0.83068 0.01023,-0.29195 z m -5.630482,-0.0381 c -1.984359,-3.096177 2.309636,-1.30741 0,0 z m 4.03884,-0.55023 c 0.409754,-1.0973 0.679514,1.37934 0,0 z m -1.747306,-0.28056 c -2.593583,-2.647752 2.946995,0.55934 0,0 z m -1.208404,-1.153289 c 0.183403,-0.65949 0.348886,0.524849 0,0 z m -1.525976,-0.490025 c -2.288791,-2.968833 1.607511,-2.742983 0,0 z m 5.66685,-1.260776 c 1.420467,-1.670404 1.826168,1.754304 0,0 z m 1.583569,-1.265584 c -5.639964,-4.300724 11.643448,-1.419161 1.083165,-0.320163 -0.361055,0.106721 -0.72211,0.213443 -1.083165,0.320163 z m -0.519148,-0.869082 c -0.346805,-1.363421 -0.920549,0.558622 0,0 z m 9.68051,-0.244454 c -0.714872,-2.217025 1.597547,1.348689 0,0 z m 2.120262,0.103088 c -0.746517,-1.708036 1.328026,0.430837 0,0 z m -4.183806,0.02577 c 0.235378,-0.460059 0.248662,0.490775 0,0 z m 0.485014,-0.420116 c -0.07935,-0.965511 0.542006,0.772125 0,0 z m -0.662152,-0.03769 0.185276,-0.04873 z M 30.028186,94.827624 c 0.541787,0.088 -0.490273,0.43556 0,0 z m 14.06807,-0.437091 c 1.024294,-1.168395 0.07806,1.565024 0,0 z m -16.241822,0.159343 c -1.505576,-2.368596 1.890545,-0.219022 0,0 z m 1.341568,-0.184421 c -1.255645,-3.693866 -4.944069,-7.617922 -1.671193,-6.813321 -2.658154,-4.362124 1.305907,-4.445306 -1.703346,-6.505149 3.382133,-1.274737 11.670359,0.76222 3.672522,2.196334 4.536895,0.542268 8.896926,2.412002 1.296182,2.214273 -7.560531,-1.471815 0.766753,6.059906 -1.594165,8.907863 z m -1.165646,-4.463011 c -0.03606,-1.791958 -0.577879,0.583529 0,0 z m 15.248176,4.337226 c 0.136942,-0.967263 0.634825,0.546983 0,0 z m -2.834219,-0.310126 0.14845,-0.06147 z m -2.612797,-1.604171 c -8.735113,0.116278 -0.694799,-5.39303 1.750023,-0.550987 z M 42.09479,91.80268 c -1.616293,-2.509203 2.618198,0.65574 0,0 z m -1.776722,-0.190192 c -1.414935,-2.393834 1.241176,0.583602 0,0 z M 22.070332,90.062729 c -4.569376,-0.791194 1.481725,-1.691085 0,0 z m 10.27642,-0.651437 c 1.023909,-1.446797 -0.173727,1.519095 0,0 z M 20.24195,88.837274 c -1.916596,-2.394165 2.99334,-0.336065 0,0 z m -8.693394,0.21124 c -0.241677,-1.583041 1.513549,1.283923 0,0 z m -0.956248,-0.02172 c -1.3527598,-1.465435 1.747814,0.137662 0,0 z M 8.8750985,88.926258 c -0.4416529,-1.670899 1.8710475,1.060362 0,0 z M 33.358763,88.768101 c -2.006645,-4.716198 11.276282,1.005099 0,0 z M 29.78177,88.574959 c -4.007188,-3.656329 4.240188,-1.861978 0,0 z M 15.512035,87.583566 c 0.401852,-0.868209 0.452739,0.810726 0,0 z m -1.169928,-0.05391 c -3.458052,0.306643 1.451949,-1.035491 0,0 z m 9.362595,-0.645478 c 0.126699,-1.619453 1.140941,0.694474 0,0 z m 8.325521,-0.434577 c 0.196933,-0.439498 0.196933,0.439497 0,0 z m -7.122616,-0.405527 c -6.948394,-4.08873 5.506578,0.50005 0,0 z m -5.178462,-0.109912 c -4.290073,-0.949918 1.350554,-1.531851 0,0 z M 14.227779,84.75474 c 0.04592,-1.237246 0.498073,0.721908 0,0 z m -1.065024,-0.115883 c -1.129725,-2.174992 1.287918,0.756757 0,0 z m 11.161933,-0.869536 c 0.196931,-0.439497 0.196935,0.439495 0,0 z m -2.793623,-0.254183 c 1.168461,-7.055265 4.907994,-1.58277 0,0 z m 2.643599,-2.285845 -0.246785,-0.205699 z m -3.702744,2.428349 c 0.473334,-1.320648 0.482804,0.796749 0,0 z m 27.870183,-0.336991 c 0.517444,-0.590528 0.116833,1.093247 0,0 z m -31.72295,-0.318404 0.14845,-0.06147 z m 0.490069,-0.673315 c 0.55523,-2.109207 1.83009,1.571486 0,0 z m 1.444153,-1.554524 c -4.125317,-1.181036 3.277383,-0.494978 0,0 z m 8.605533,-1.349583 c -5.194923,0.695743 -6.435936,-2.639353 -0.277809,-1.682187 4.127208,-0.344758 6.196486,2.207584 0.277809,1.682187 z M 49.20035,78.72534 c -0.171121,-1.446033 1.26233,0.983102 0,0 z m -34.783819,0.06051 c -0.02502,-0.977303 0.780431,0.679408 0,0 z m 4.117832,-0.123277 c 0.614489,-1.117031 1.107017,1.058638 0,0 z M 36.196202,78.46482 c -0.26598,-1.16504 0.981086,0.582707 0,0 z M 9.4450335,78.305672 c 0.3734265,-0.558018 0.3734265,0.558017 0,0 z M 47.441293,77.48097 c 0.164754,-0.43708 0.135951,0.395776 0,0 z M 7.4079378,76.764667 c -0.2465494,-1.884598 1.2842292,0.04043 0,0 z M 35.009919,75.781138 c -6.377664,-3.927892 0.275694,-19.156328 -0.864342,-6.870614 -0.326999,1.752566 2.28769,5.79462 0.864342,6.870614 z m -0.842165,0.628973 c -3.9342,-2.501602 3.075863,0.197853 0,0 z m -12.721571,-0.06928 c -3.419115,0.603401 -11.6352121,-2.115964 -3.460567,-1.106828 4.807183,-1.548115 16.316548,1.292539 5.254903,1.183 z M 3.1566083,76.266855 c -0.017801,-1.446367 1.3418586,0.406612 0,0 z m 41.6422537,-0.90915 c 2.249589,-2.683473 3.660283,1.877442 0,0 z m -1.803248,-0.302093 c -0.05456,-1.28975 0.906773,1.139939 0,0 z M 32.842327,74.661467 c -2.7651,-2.739372 2.408147,0.350341 0,0 z M 12.132678,74.538524 c 0.155478,-1.00636 0.567621,1.035609 0,0 z m 8.870658,-0.994988 c -5.06459,0.312473 -14.9433198,-1.914064 -4.143851,-1.28459 3.874032,-1.761726 16.163782,1.77157 4.143851,1.28459 z M 6.9322988,72.143285 c 0.5187193,-1.910739 1.0330161,1.651219 0,0 z M 1.7394984,72.017321 c 0.5186248,-1.127499 0.4465639,1.267429 0,0 z M 19.497657,71.809733 c 0.582911,-1.15202 0.650549,0.880305 0,0 z m -0.575702,-1.42358 c -3.659602,-2.238902 11.29457,0.0061 1.370801,0.0028 -0.456933,-9.47e-4 -0.913867,-0.0019 -1.370801,-0.0028 z m -6.091577,-0.07563 c -4.3500638,-2.58855 5.922466,0.165492 0,0 z m -4.3502909,0.01891 c 0.4433234,-1.90222 2.1009089,0.981437 0,0 z M 6.8765218,70.13214 c -0.7255715,-2.898542 3.0665336,0.985218 0,0 z m 8.6355132,-0.176581 c 0.719416,-1.159715 0.250982,0.755306 0,0 z m 9.738989,-0.0069 c 0.05087,-0.608598 0.435972,0.551903 0,0 z m 1.465037,-0.19932 c 0.412097,-0.565602 0.429736,0.611359 0,0 z m -24.7994236,0 c 0.1647569,-0.437081 0.1359543,0.395776 0,0 z m 4.8024528,-1.706792 c -0.058518,-3.043931 2.5137368,2.020006 0,0 z M 11.30071,67.910474 c 2.524405,-2.439304 4.829317,0.609695 0,0 z m 5.407012,-0.354059 c 4.495959,-3.655427 11.691997,1.295823 0,0 z M 8.4294714,67.279093 c 0.5425003,-1.763776 1.6918046,1.786616 0,0 z m 7.0867316,-0.123476 c -0.831593,-0.782664 1.018637,0.283178 0,0 z m 11.111288,-0.07551 c 0.104305,-1.091977 0.662508,0.389362 0,0 z m -1.505679,-0.108033 c 0.33817,-0.892106 0.688497,0.800599 0,0 z M 9.9764495,65.62742 C 13.148092,62.406206 27.485909,62.954094 24.645111,64.587745 19.776178,65.211323 14.758198,64.282744 9.9764495,65.62742 Z M 6.8590669,65.59921 c -0.9455145,-2.032714 2.376882,0.125375 0,0 z M 1.5623594,65.309031 c 0.4822908,-0.712871 0.2191389,0.840957 0,0 z m 17.8132376,0.01751 c 0.05465,-1.113237 1.132714,0.736052 0,0 z m 13.244627,-2.220106 c -1.869254,-1.298208 2.307096,-1.30607 0,0 z m 0.866179,-0.206339 c -0.03964,-1.991746 2.353382,-0.420947 0,0 z m -21.71627,-0.237449 c 0.102597,-1.173919 0.739764,0.677648 0,0 z m 3.589164,-0.05208 c -5.8199331,-1.843812 10.118215,-2.839239 12.213309,-1.838678 -0.799914,3.533755 -9.358789,-1.255915 -12.213309,1.838678 z m 29.976704,-0.919536 c -2.613734,-1.706714 5.454561,0.535057 0,0 z m -2.721739,-0.18601 c -0.455611,-2.342524 1.070579,1.219727 0,0 z m -7.754433,0.05537 c -0.785632,-2.961599 3.372247,-0.735359 0,0 z M 2.888879,61.321967 c 0.1102765,-1.279661 1.1177274,1.770725 0,0 z m 30.162877,-0.125015 c 0.123055,-3.139605 3.27423,0.193404 0,0 z M 7.2135037,60.813019 c -0.9637895,-1.29706 1.0526229,0.827964 0,0 z M 22.538661,59.21716 c -1.88534,-4.393935 14.200146,-0.23969 3.350901,-0.403499 L 24.73468,58.99705 Z m 24.371216,-0.395065 c 0.196926,-0.439494 0.196931,0.439491 0,0 z m -37.9962594,0 c 0.4297332,-0.611356 0.4120964,0.565598 0,0 z m 4.8713144,-0.426616 c 0.428437,-0.986157 0.636507,0.827572 0,0 z m 21.81518,-0.05219 c 0.07537,-1.538316 1.05504,0.970923 0,0 z m -15.792463,0.06645 c 0.15394,-0.570715 0.318895,0.306854 0,0 z m -1.820441,-0.009 c 0.553913,-1.003763 0.927968,1.037071 0,0 z m 30.544031,-0.572917 c 0.261229,-1.58069 1.260467,1.110204 0,0 z M 21.807705,57.419381 c -3.333043,-7.626189 5.764793,-0.109766 0,0 z m 1.630618,-1.637432 c 0.282979,-1.130624 -0.754062,0.745497 0,0 z m -6.642032,1.430174 c 0.859265,-3.331075 4.023876,1.176721 0,0 z m 10.220516,-0.664447 c -5.273518,-1.538904 4.906452,-9.690738 7.188697,-4.236947 -5.751314,-0.138493 -6.124879,1.216401 -1.758874,2.973549 -1.847224,0.399714 -3.707442,0.34039 -5.429823,1.263398 z M 16.318544,55.188253 c 0.717504,-2.010387 2.053866,1.39407 0,0 z m 3.666244,0.02577 c 0.248664,-0.490775 0.235381,0.460062 0,0 z m 30.202155,-0.303174 c -0.0395,-0.678474 0.445289,0.295534 0,0 z m -24.578,-1.165794 c -1.830766,-1.710098 3.598283,-6.655506 -0.876781,-4.447753 0.555284,-4.234084 5.585172,-8.675039 2.638748,-1.254046 -0.437715,1.940707 -0.961806,3.872875 -1.761967,5.701799 z m 1.253693,-6.730946 c -0.06824,-0.928193 -0.504379,0.890572 0,0 z m -7.19396,6.332814 c -0.05374,-1.070375 0.731373,0.639566 0,0 z m 27.861186,-0.352516 c 0.156094,-1.526714 0.668642,0.688797 0,0 z m -35.285899,-0.03137 c -0.8844,-1.453555 1.250977,-0.242057 0,0 z m 9.821714,-0.326834 c 2.01742,-3.404279 4.951038,-0.569266 0,0 z m -4.784304,-0.0032 c 0.363745,-2.375157 3.80454,-0.726437 0,0 z m -3.879424,-0.24378 -0.346869,-0.0061 z m 15.246648,-1.954514 c -3.88178,-3.574368 4.88851,-1.678034 0,0 z m 2.407362,-0.214358 c -2.99e-4,-0.801882 0.369195,0.534435 0,0 z m -8.107212,-0.01794 c -0.661744,-1.075813 1.172164,0.615352 0,0 z m -9.754204,-0.287454 c -2.66632,0.2833 1.590043,-0.776611 0,0 z M 14.532558,49.5977 c -0.38756,-1.359911 1.043053,0.752324 0,0 z m 17.72644,-0.106931 c -1.220485,-4.656822 10.052119,0.928511 0,0 z m -12.44519,-0.230145 c -2.710819,-0.394766 1.93278,-1.648665 0,0 z M 7.5928644,48.678877 c 0.4122703,-1.767625 1.5597019,1.372896 0,0 z M 10.385063,48.48745 c 0.01136,-2.133575 1.808725,0.854486 0,0 z m -1.0920425,0.06361 c 0.1466779,-1.583514 1.2575205,0.821274 0,0 z M 19.986322,47.900875 c 0.116297,-3.305373 2.241003,0.750624 0,0 z m 11.246776,-0.791857 c 0.763922,-0.858067 -0.181815,1.596498 0,0 z m 9.405654,-1.721855 c 0.241998,-2.706852 1.759645,1.036755 0,0 z m -1.698763,-0.198418 c 0.21141,-2.130868 0.735563,1.154631 0,0 z M 26.450353,42.535434 c 0.936945,-2.046938 0.832377,0.654919 0,0 z m 12.634479,-0.05604 c -7.949577,1.658655 -1.066671,-5.922856 2.132376,-0.538163 l -0.302557,0.321231 z m -3.246126,-1.401611 c -0.05153,-0.990858 -1.468888,1.36555 0,0 z m 6.122899,1.215024 c 0.02044,-0.996635 0.708962,0.921796 0,0 z m -13.361601,0.07607 0.157306,-0.0058 z M 42.69972,42.116026 c -0.607885,-1.910725 1.61219,0.817336 0,0 z M 28.576017,41.761078 c 0.106947,-0.544513 0.169929,0.598461 0,0 z m 16.778102,-0.382053 c 0.07244,-3.680722 1.988671,0.685599 0,0 z m -1.333881,-0.136786 c 0.641721,-0.406203 -0.339195,0.904679 0,0 z m 3.683059,-0.0562 c -0.552124,-1.546944 1.168475,0.469231 0,0 z m -4.336195,0.111143 c 0.235378,-0.46006 0.248661,0.490775 0,0 z m 5.934147,-0.103084 c 0.135954,-0.395774 0.164753,0.437079 0,0 z M 28.308518,40.984027 c 0.386338,-7.356326 3.47423,-4.86322 0,0 z m 15.270781,-0.277451 c 0.541788,0.08801 -0.49028,0.435559 0,0 z m -9.069134,-1.496918 c 1.20604,-2.262795 2.958691,1.366281 0,0 z m -3.985622,-2.035982 c 0.135954,-0.395777 0.164757,0.437081 0,0 z m 0.54913,-0.226793 c 0.110287,-2.695047 3.174028,0.927632 0,0 z m 2.290008,-1.054906 c -0.433078,-1.586022 1.375536,0.295126 0,0 z m 1.526066,-0.853691 c 1.197541,-0.48484 -0.815858,1.141655 0,0 z m -3.89429,0.260481 0.01446,0.189064 z m 0.641149,-0.45014 c 0.660697,-3.533385 4.354621,0.09528 0,0 z m -1.732049,-0.251622 c 0.943293,-1.984278 0.851192,1.50831 0,0 z M 30.010841,33.4419 c -1.21951,-1.443762 1.247267,0.103744 0,0 z m 6.287376,-0.364777 c 0.348102,-1.081386 0.467873,0.818184 0,0 z m -1.737565,-0.141725 c 0.791493,-0.706847 -0.02096,1.092204 0,0 z m -1.556166,-0.14295 c -2.382601,-2.428646 3.702801,-0.647864 0,0 z m -2.37366,-0.07216 c -0.711121,-2.47211 3.061578,-0.04409 0,0 z M 36.118807,30.992 c 0.167752,-1.618147 0.68855,1.077722 0,0 z m -1.331321,0.167335 c -0.02502,-0.977303 0.780431,0.679405 0,0 z M 33.535902,30.09822 c -0.08141,-1.708977 1.352126,0.424021 0,0 z m -2.302804,-0.346856 c 0.299131,-0.812651 0.299126,0.812653 0,0 z m 1.249288,-1.687881 c -0.418782,-1.706304 1.370707,0.523616 0,0 z M 0.72058216,128.31092 c -2.50048026,-1.57246 0.43338474,0.9917 0,0 z M 50.895498,115.2147 c -0.623635,-3.99628 -0.476767,3.52631 0,0 z m -1.062832,-2.01919 c 4.711368,-5.59833 -5.644063,-4.81507 0,0 z m -9.926763,-3.40513 -0.04713,0.11135 z m 7.756813,-0.86765 c -1.350352,-1.76177 -0.396331,0.88977 0,0 z m -2.878504,-4.74204 c -0.337642,-0.55769 -0.327528,0.5176 0,0 z m -5.137024,-2.62874 c -0.305707,-0.591 -0.38923,0.92997 0,0 z M 33.270194,97.1867 c 0.05007,-0.95168 -0.799404,0.253286 0,0 z m -0.863551,-1.878428 c 1.198621,-1.446909 -1.485773,0.05033 0,0 z m 0.895165,-0.670994 c 1.484874,-2.592102 -1.485263,-1.190293 0,0 z m -0.856697,-1.083319 c 0.284337,-1.978588 -2.288466,0.624853 0,0 z M 50.836452,50.506352 c 1.440206,-1.316284 -0.966565,-0.538315 0,0 z M 31.004377,43.635616 c 0.22642,-1.776512 -1.573326,1.059887 0,0 z m 0.140152,-1.924117 c -0.68899,-2.354271 -0.833121,1.572966 0,0 z m 0.354277,-1.966715 -0.14845,0.06147 z m 7.857617,-2.975599 c 2.819787,0.08258 16.06337,-0.699724 8.297704,-2.818401 -5.596828,2.323515 -9.120536,-3.295161 -1.628269,-1.765989 6.606816,0.671245 4.834731,-5.393399 -0.594165,-2.663866 C 39.468922,21.570118 56.064377,13.728687 50.468126,4.1776023 44.127895,8.8374799 40.127814,17.796344 39.6329,25.740992 c 0.138687,3.570172 -0.0099,8.051411 -0.276477,11.028193 z m 3.191412,-6.198543 c -0.115037,-2.663504 3.227318,0.758441 0,0 z M 41.772853,21.25247 c -2.135282,-1.969187 1.636225,-0.88839 0,0 z m 0.708366,-3.406607 c 1.329723,-3.206385 -0.129777,2.574236 0,0 z m 0.625085,-1.970479 c 0.430957,-2.309425 1.120976,0.897372 0,0 z m 1.08798,-1.994051 c -0.763173,-2.304988 1.612765,0.472067 0,0 z m 0.894988,-1.356723 c 1.865406,-5.8906373 3.39126,-2.459546 0,0 z m 2.352021,-0.755971 0.148446,-0.06147 z m 1.657516,-2.5333395 c 0.06104,-1.1422913 0.520046,0.6476713 0,0 z M 48.238417,7.2393182 c -0.226842,-1.0298253 0.732266,0.2484601 0,0 z m 0.885694,-1.6460485 c 0.05757,-2.6144852 1.348801,0.7563331 0,0 z M 37.96437,34.979774 c -0.487264,-1.2952 -0.61791,0.657775 0,0 z m 4.694177,-2.708849 c -0.350514,-0.392496 -0.02478,0.592381 0,0 z m -3.542775,-1.855578 c -0.350515,-0.392503 -0.02479,0.592381 0,0 z m 6.404995,-2.990557 c 9.485056,1.066857 2.473752,-9.998876 0,0 z m 2.869509,-5.194013 c 6.605305,-3.64801 -1.436713,-8.45967 0,0 z"
       id="path881" />
    <path
       style="fill:#516460;stroke-width:0.0955532"
       d="m 50.393564,128.35688 c -3.421739,-3.60957 -7.237111,-14.79082 -1.955078,-4.56082 8.03077,2.72174 -4.639612,-11.74204 -2.108414,-15.98565 11.703395,-2.6912 -8.554746,-7.24582 -4.507382,1.48712 0.594914,6.91961 3.640958,14.13631 8.570874,19.05935 z m -2.811562,-8.95421 c -0.774849,-1.71207 1.227005,0.88204 0,0 z m -0.579668,-1.58052 c -0.283776,-1.34881 1.026869,1.15368 0,0 z m -3.146405,-1.43832 c -1.132008,-2.88602 2.458128,-0.41727 0,0 z m -0.445079,-3.02464 c -2.095012,-2.63583 1.648168,-0.98462 0,0 z m -0.398026,-2.37472 c 0.19693,-0.4395 0.19693,0.43951 0,0 z m -0.939204,-1.4153 c 0.54234,0.0884 -0.491002,0.43519 0,0 z m 2.334172,-2.91161 c 1.147036,-3.343 2.342978,2.94733 0,0 z m 2.949098,21.54938 c -6.07025,-7.66585 -7.418613,-17.47179 -9.503133,-26.35338 -7.239351,-3.380035 -8.585973,-10.607697 -9.477286,-17.029886 -1.656693,1.546964 3.577019,13.404548 -1.863383,4.823364 -4.718342,-3.161562 -5.623586,-8.189278 -5.253553,-10.968617 -5.02006,5.399668 -4.489261,-3.782158 1.836485,-0.803905 4.554141,-0.543739 11.829257,1.393936 2.886471,1.657906 -4.954789,1.654509 15.155938,0.7364 3.971891,3.583074 1.66051,0.894452 9.366157,1.296333 1.870424,3.003951 -7.832419,4.844841 16.213754,4.58892 3.379249,5.884465 -3.931111,-0.930668 0.135985,2.669173 -1.261264,5.081536 3.761903,3.651332 1.0655,-7.881323 7.840889,-2.827327 4.727994,1.95454 -10.042886,2.600151 -2.00458,5.347514 2.00239,-4.421835 15.171608,1.093545 11.376956,-9.621148 -2.0527,-6.565606 -16.44316,-12.173798 -11.531001,-18.94436 0.441503,5.178448 12.748121,19.984298 11.285575,7.347933 -2.185936,-7.680647 3.937455,-23.728455 -3.218079,-25.800707 -5.455189,2.000145 -10.093813,21.561636 -8.780077,8.0496 2.913285,-8.184493 18.13303,-12.85789 10.491366,-22.987087 -4.511795,2.534669 -10.989701,0.878726 -13.401722,0.07798 -0.203308,4.041314 11.530001,3.316221 2.315929,5.083596 -4.191487,0.379192 -5.480773,-9.175262 -5.521399,-0.604969 -4.77221,5.105851 11.991968,0.485729 2.335967,4.135985 -7.09131,-0.0559 -8.207432,7.080701 -12.315964,7.771182 3.238173,1.382391 11.186592,-7.524745 10.540711,-1.429261 -8.093902,-0.642387 -1.522534,1.260935 -0.725752,2.895675 -3.549728,-0.851794 -13.970043,2.759659 -4.801926,1.394367 8.211372,4.11494 -18.0427525,1.311226 -9.271235,0.351742 5.804578,2.242286 -1.135938,-4.990054 4.134584,-6.767848 2.769954,-3.539061 7.385333,-11.713071 4.994066,-2.387182 C 25.866074,38.936248 39.720698,36.777172 37.222006,27.946966 36.28422,17.636891 46.505814,7.2229167 48.765564,0.73841485 39.387473,-1.1428525 29.708838,0.87017555 20.204164,0.06152191 13.265479,1.1836845 -4.7073375,-3.9535965 0.88607383,6.8413955 11.116673,5.7798246 -3.8791414,11.164597 -0.10043542,16.75512 c 0.15719644,16.387922 0.02483647,32.805531 0.06854905,49.205794 1.23463567,5.604081 -0.50496927,14.520277 0.01299618,23.431583 0.00974964,11.994063 -0.03175168,23.988113 -0.01304643,35.982173 9.07107332,5.14144 19.81949862,2.49636 29.76872762,3.13468 5.741453,-0.15988 12.625317,0.31811 17.660734,-0.23599 z M 34.760704,109.06138 c -1.090126,-1.77416 1.735946,0.54493 0,0 z m 0.870164,-2.15382 c -1.096335,-2.57827 1.817247,1.49102 0,0 z m -2.310187,0.0682 c -0.211237,-1.10529 0.748346,0.37369 0,0 z m 1.224542,-0.91155 c 0.542339,0.0883 -0.490958,0.4352 0,0 z m 3.612546,-0.46693 c 0.476861,-0.96234 0.307251,1.32533 0,0 z m -1.787648,0.10423 c -5.236348,-1.80133 -2.919584,-10.000466 -0.745383,-2.20201 -0.0535,0.43249 2.269595,2.0705 0.745383,2.20201 z m -3.601915,-0.96547 c -1.21897,-2.26645 2.227777,1.26478 0,0 z m -0.973956,-1.02618 c -0.77107,-2.318 1.233835,0.46858 0,0 z m 1.830221,-0.2053 c 0.454917,-0.73614 0.05149,1.03055 0,0 z m 4.539155,-0.0196 c 0.335898,-1.1211 0.585008,1.08581 0,0 z m -6.166872,-1.10963 c -1.491261,-1.68687 1.742543,0.34631 0,0 z m 4.81346,-0.5656 c -3.474731,-1.63179 1.627869,-0.63915 0,0 z m -3.894298,-0.0516 c 0.199923,-0.59408 0.199923,0.59407 0,0 z m -1.859957,-0.25164 c -1.984359,-3.096177 2.309636,-1.30741 0,0 z m 1.062833,-0.17174 c 0.508909,-0.65648 0.184015,0.83311 0,0 z m 3.0335,-0.20478 c -0.475455,-1.964423 1.618992,1.49282 0,0 z m -3.545635,-2.190829 c 0.45893,-0.50953 0.203525,0.729211 0,0 z m -0.993544,0.09325 c -2.288791,-2.968832 1.607511,-2.742982 0,0 z m -0.708556,-0.418434 c 0.196931,-0.439496 0.196935,0.439495 0,0 z M 27.4689,98.064163 c 0.297609,-0.711027 0.165927,0.8345 0,0 z m -1.28332,0.08721 c -0.529587,-1.416299 1.140623,0.521031 0,0 z m 8.366248,-1.191758 c -0.481291,-1.09211 0.939471,0.40249 0,0 z M 29.15873,96.624026 c -1.310708,-3.585508 1.219682,0.708875 0,0 z m -4.878328,-0.157727 c 0.333404,-0.497102 0.118214,0.650933 0,0 z m -1.107116,-0.171813 c 0.199925,-0.594073 0.199921,0.594074 0,0 z m 21.754813,-0.513774 c -0.818061,-1.438773 1.325677,0.451951 0,0 z m 2.096795,-0.388252 c -0.714872,-2.217025 1.597547,1.348689 0,0 z m 2.120262,0.103088 c -0.746517,-1.708036 1.328026,0.430837 0,0 z m -3.698792,-0.394349 c -0.07935,-0.965511 0.542006,0.772125 0,0 z m -0.662152,-0.03769 0.185276,-0.04873 z M 30.028186,94.827624 c 0.541787,0.088 -0.490273,0.43556 0,0 z m -2.166546,0.07154 c -2.104692,-2.77733 2.534828,-0.902208 0,0 z m 16.234616,-0.50863 c 1.024294,-1.168395 0.07806,1.565024 0,0 z M 43.278532,94.23967 c 0.136942,-0.967263 0.634825,0.546983 0,0 z M 26.716061,93.708694 c 0.354102,-0.522205 0.172747,0.665252 0,0 z m -1.511713,-1.589269 c -1.894517,-0.130281 2.563366,0.03843 0,0 z m 2.626784,-0.208363 c 0.920438,-0.801304 -0.506222,1.863951 0,0 z M 42.09479,91.80268 c -1.616293,-2.509203 2.618198,0.65574 0,0 z m -24.506911,9.97e-4 c -0.553432,-1.469395 1.212008,0.738287 0,0 z M 40.318068,91.61249 c -1.414935,-2.393834 1.241176,0.583602 0,0 z M 22.881206,91.158061 c -5.526305,-2.677285 -1.367696,-7.197086 0,0 z m -4.161663,-0.0021 c -4.938142,-2.034471 3.952269,-0.487737 0,0 z m -2.634011,-1.053516 c -0.614311,-2.924985 1.142534,1.09085 0,0 z M 22.872009,89.6285 c -0.245349,-1.35067 0.871574,1.199517 0,0 z M 11.793315,89.393163 c -5.7791593,0.249329 3.129046,-1.940215 0,0 z M 8.6368171,89.019869 c 0.00161,-2.205204 2.1038259,1.312614 0,0 z m 24.7219459,-0.24516 c -0.696581,-4.928702 9.380417,1.126873 0.965045,-0.05041 l -0.55941,0.02922 z M 22.535572,87.562965 c 0.97581,0.229553 -0.751777,0.72194 0,0 z m -8.011453,0.334542 c -4.120595,0.0047 1.075882,-3.41752 0,0 z m 0.906591,0.03584 c -0.712215,-1.662962 1.745876,0.454505 0,0 z m -7.7437424,-1.28761 c 0.00814,-1.464906 1.8307701,1.388441 0,0 z m 13.8920694,-0.38513 c -0.05239,-0.899359 0.523633,0.472797 0,0 z m -2.602691,-0.213595 c -4.477043,-2.978579 1.537981,-2.165461 1.315733,0.130702 z m -4.90732,-0.963324 c -0.848488,-1.989646 1.563668,0.200809 0,0 z M 13.044235,84.85074 c -1.899435,-3.095405 2.033474,0.99364 0,0 z m 7.250546,0.05254 c 0.235378,-0.460063 0.248662,0.490773 0,0 z m -8.358192,-0.75687 c -0.02502,-0.977305 0.780432,0.679404 0,0 z m 7.428213,-0.325547 c 0.444204,-1.027077 0.546342,0.788232 0,0 z m -2.87126,-0.423381 c -0.435857,-4.06439 4.75594,0.421887 0,0 z m -4.53883,-0.820627 c -0.530425,-2.028683 1.694212,-0.01239 0,0 z m 37.598898,-2.15688 c -3.298873,-0.680146 2.261358,-0.462821 0,0 z M 40.814572,79.56744 c 0.381259,-1.008449 0.521735,1.010438 0,0 z M 14.178804,78.918163 c 0.06654,-1.785804 1.534074,1.320881 0,0 z m 34.959957,-0.05548 c -0.163131,-2.119803 1.881507,1.386148 0,0 z M 9.5336025,78.731041 c -1.2679614,-2.132657 2.5048805,0.986301 0,0 z M 47.706741,78.562597 c -3.343787,-1.288786 2.56298,-3.014861 0,0 z m -11.510539,-0.09777 c -0.26598,-1.16504 0.981086,0.582707 0,0 z M 2.6760493,78.33998 c -0.3023767,-1.511304 0.7409066,0.61848 0,0 z M 38.783611,77.506797 c 0.335893,-1.121125 0.585017,1.085826 0,0 z M 7.2488577,76.808125 c 1.3105201,-2.59594 2.1429739,1.134509 0,0 z m -2.3796872,0.09893 c -0.2102063,-1.736341 0.7292453,1.037571 0,0 z M 35.009919,75.781138 c -6.279578,-3.242434 -0.470079,-19.163679 -0.07146,-8.599181 -0.688339,2.507882 1.430088,9.511148 0.07146,8.599181 z m -0.842165,0.628973 c -3.9342,-2.501602 3.075863,0.197853 0,0 z m -12.344816,-0.01394 c -4.236154,0.973292 -16.5654994,-2.819584 -5.647875,-1.346421 4.623831,-1.035146 19.891935,1.077581 7.605576,1.353571 z m -9.897962,-1.595487 c -0.248665,-0.490774 -0.235379,0.460059 0,0 z m -8.0338004,1.443228 c -2.6401675,0.380769 2.4146483,-1.509363 0,0 z M 44.657394,75.458626 c -3.348794,-2.528209 7.323339,0.768565 0,0 z M 42.2157,75.367672 c 0.199919,-0.594073 0.199919,0.594072 0,0 z M 35.927275,75.21304 c 0.135955,-0.395774 0.164754,0.437079 0,0 z m -3.084948,-0.551573 c -2.7651,-2.739372 2.408147,0.350341 0,0 z M 7.0758026,75.044978 c 0.1329771,-1.081378 2.100182,1.50409 0,0 z M 34.899501,74.519346 c 0.541794,0.088 -0.490274,0.435567 0,0 z m -15.202563,0.02362 c 0.525648,-0.506797 0.262258,0.838052 0,0 z M 1.756112,74.464161 c 0.4108742,-1.005846 0.5676324,0.95817 0,0 z m 6.9813024,-0.126052 c -0.5349701,-1.486869 1.3259946,0.725241 0,0 z M 3.9537322,73.87124 c 0.7340668,-1.313067 0.6969377,1.038916 0,0 z M 20.870482,73.556381 c -3.494126,0.480086 -15.859615,-1.630795 -5.772413,-1.454722 4.090491,-0.943196 20.683143,1.526182 5.772413,1.454722 z M 6.8830943,72.54041 c -2.5216511,-2.590449 3.1088159,0.579218 0,0 z M 4.5737181,72.326584 c 0.5562956,-1.413874 0.6414191,1.391613 0,0 z M 19.409088,71.759602 c 0.841351,-1.425967 0.980679,1.517591 0,0 z M 35.88299,70.32761 c 0.22562,-1.586308 0.784088,1.034933 0,0 z M 12.544065,70.31543 c -4.1743117,-2.502781 7.944397,0.457007 0,0 z m -4.2327191,0.134959 c -6.1393553,-0.631061 5.0120851,-1.836905 0,0 z M 19.05481,70.387161 c -4.912156,-2.050844 11.578477,-0.151616 1.340181,0.0019 -0.446727,-6.38e-4 -0.893454,-0.0013 -1.340181,-0.0019 z M 1.1195125,70.368793 c 0.1098694,-2.112926 2.7949045,0.267085 0,0 z m 1.6828178,-0.14797 c 0.1358075,-1.438693 2.7104474,1.586714 0,0 z M 25.251024,69.948709 c 0.05087,-0.608598 0.435972,0.551903 0,0 z m 1.465037,-0.199317 c 0.412097,-0.565602 0.429736,0.611359 0,0 z m 0.442847,-1.346225 c 0.493285,-1.687967 0.227249,2.144078 0,0 z M 6.5853341,68.194292 c 0.9716657,-3.771607 4.6239079,1.787791 0,0 z m 4.3612379,-0.35664 c 4.553833,-3.344129 18.66977,0.169577 6.180092,-0.299983 -2.060943,0.07833 -4.123053,0.146059 -6.180092,0.299983 z M 1.4623814,67.649781 c -1.63768202,-2.26326 2.0982421,1.306539 0,0 z m 1.6942269,-0.219862 c -1.5931412,-0.834013 2.3254209,0.151119 0,0 z M 26.627491,67.080141 c 0.104305,-1.091978 0.662508,0.389362 0,0 z m 5.430798,-0.236534 0.01446,0.189065 z m -6.936477,0.128501 c 0.33817,-0.892106 0.688497,0.800599 0,0 z m 10.644306,-0.701926 c 0.476685,-0.956553 0.471935,1.162425 0,0 z M 5.8425851,65.77101 c 0.814625,-3.61611 3.9166463,1.531565 0,0 z M 9.8196862,65.7032 C 13.318187,62.169239 24.103412,63.13808 25.288239,64.314512 20.297983,65.915447 14.753192,63.675532 9.8196862,65.7032 Z m 9.4098648,-0.391094 c 0.336427,-1.282681 1.057692,0.943067 0,0 z M 4.3572338,65.119749 c -0.1438656,-1.268873 1.0167864,0.665584 0,0 z m -1.4663335,-0.11239 c 0.1969328,-0.439497 0.1969328,0.439498 0,0 z m 25.3308387,-0.870163 0.185277,-0.04874 z M 3.8281226,63.604643 c -0.3772741,-1.215036 1.3530928,0.640672 0,0 z M 32.620224,63.106436 c -1.869254,-1.298208 2.307096,-1.30607 0,0 z m -24.2766058,0.05608 c -0.2075599,-1.534475 1.1531789,0.558481 0,0 z M 1.429506,62.895474 c 0.4349999,-1.032479 0.4908574,1.022165 0,0 z m 32.056897,0.0046 c -0.03964,-1.991744 2.353383,-0.420955 0,0 z m -21.898188,-0.01367 c -3.0406473,-3.044505 9.928264,-1.576327 12.680793,-2.800722 10.301186,2.041964 -4.397955,1.517541 -7.597125,2.035044 -1.695209,0.251097 -3.382958,0.551259 -5.083668,0.765678 z m -0.0167,-0.508942 -0.08494,-0.129657 z m 7.815397,0.0269 c 0.298996,-0.727081 0.418079,0.614706 0,0 z M 6.5481066,62.365929 c 1.0171804,-1.031852 1.5341648,0.936378 0,0 z M 34.510168,61.966225 c 0.222494,-0.604831 0.247895,0.638196 0,0 z m 9.851443,-0.03794 c -3.122348,-2.622183 7.608258,0.371572 0,0 z M 2.7391104,61.46694 c 0.5012011,-2.208521 1.8196204,1.879089 0,0 z m 32.1207186,0.09345 c -0.785632,-2.961599 3.372247,-0.735359 0,0 z m 0.695454,-0.284805 c 0.556964,-0.252791 -0.314475,0.530049 0,0 z m -2.503527,-0.07863 c 0.123055,-3.139605 3.27423,0.193404 0,0 z M 7.0635391,60.947257 c 0.1165515,-2.701738 2.7350015,2.304275 0,0 z m 34.7658539,0.09122 c 0.247898,-0.638198 0.222496,0.604831 0,0 z M 4.3965791,60.529125 c 0.040948,-0.863456 0.5293203,0.55226 0,0 z M 46.619255,59.278043 c -1.173275,-3.945372 2.716683,0.748797 0,0 z m -37.831248,-0.0031 c -0.3657403,-2.20067 2.452339,0.673796 0,0 z M 2.1823454,59.079805 c 0.3137134,-1.253383 0.2858616,1.185624 0,0 z M 38.318647,59.02826 c 0.393862,-0.878988 0.39386,0.878988 0,0 z M 13.564806,58.600679 c 0.130364,-2.166506 1.886793,1.140534 0,0 z m 22.035306,-0.257387 c 0.07537,-1.538316 1.05504,0.970923 0,0 z m 12.866055,-0.301719 c 0.234013,-2.009196 1.924677,1.107653 0,0 z M 40.194864,56.89715 c 0.46981,-1.255343 0.479601,1.160582 0,0 z m 7.882952,-0.574933 c 1.427285,-2.290399 1.726567,1.105384 0,0 z M 16.138347,55.361293 c -1.701969,-3.843074 3.97945,1.644109 0,0 z m -4.822949,-0.273787 c -0.05794,-2.095193 1.173946,1.71358 0,0 z m 38.278969,0.164051 c 0.323476,-2.573576 1.989154,0.790721 0,0 z M 18.587976,53.1716 c 0.458414,-0.892761 0.394971,0.82588 0,0 z m -6.477414,-0.01107 c -1.067237,-2.13853 1.930705,-0.541539 0,0 z M 11.06502,53.08766 c 0.297778,-1.069754 0.597809,0.92567 0,0 z m 5.376541,-0.27042 c 1.300275,-4.020592 5.620767,0.13543 0,0 z M 13.28824,52.55952 c -1.150658,-2.01866 1.668476,0.504352 0,0 z m 6.09686,-0.457452 c 0.183404,-0.65949 0.348884,0.524853 0,0 z m -6.972741,-1.216801 c -1.105357,-3.135758 3.787562,-0.501112 0,0 z m -5.8899754,-0.0741 c 0.9423564,-1.548456 1.4861182,1.305585 0,0 z M 20.618458,50.631979 c 0.486104,-0.512345 -0.0015,0.890711 0,0 z m -1.754569,-0.732218 c -0.07408,-5.956303 6.564101,-2.33906 0,0 z M 14.367877,49.79089 c -0.806826,-2.203884 2.303097,0.646381 0,0 z m 21.450477,-0.207394 c -13.148125,0.5154 6.947493,-4.634388 0,0 z M 21.490467,49.074222 c 0.39093,-0.683716 -0.01957,1.00456 0,0 z M 7.5792541,48.922047 c -0.2081931,-2.15627 2.2094655,0.942264 0,0 z m 1.5978944,-0.154056 c 1.1816475,-3.467876 4.4247845,1.317715 0,0 z M 21.667606,47.527213 c -0.245442,-1.185509 1.035207,0.242582 0,0 z m -6.715529,-0.283829 c -0.07675,-2.064052 1.036017,1.227374 0,0 z m 1.667076,-0.211365 c 1.01188,-3.249597 3.6582,0.295936 0,0 z m 24.019599,-1.644856 c 0.241998,-2.706852 1.759645,1.036755 0,0 z m -24.373877,0.105691 c -8.96e-4,-1.761913 1.074673,0.847081 0,0 z m 22.675114,-0.304109 c 0.21141,-2.130868 0.735563,1.154631 0,0 z m -14.993313,-0.07731 c -2.634696,-1.682175 2.971233,-0.05694 0,0 z m 2.628666,-0.257489 c -0.67602,-1.633008 0.79783,0.368817 0,0 z m 0.120841,-1.159971 c -2.466281,-2.983864 2.762054,-1.887457 0,0 z M 25.36833,42.927689 c 0.738024,-0.144135 -0.529638,0.725932 0,0 z m 16.593275,-0.634885 c 0.02044,-0.996635 0.708962,0.921796 0,0 z m 0.738115,-0.176778 c -0.607885,-1.910725 1.61219,0.817336 0,0 z M 28.576017,41.761078 c 0.106947,-0.544513 0.169929,0.598461 0,0 z m 16.778102,-0.382053 c 0.07244,-3.680722 1.988671,0.685599 0,0 z m -1.333881,-0.136786 c 0.641721,-0.406203 -0.339195,0.904679 0,0 z m 3.683059,-0.0562 c -0.552124,-1.546944 1.168475,0.469231 0,0 z m -4.336195,0.111143 c 0.235378,-0.46006 0.248661,0.490775 0,0 z m 5.934147,-0.103084 c 0.135954,-0.395774 0.164753,0.437079 0,0 z M 28.308518,40.984027 c 0.386338,-7.356326 3.47423,-4.86322 0,0 z m 15.102868,-0.202282 c 0.533491,-1.715168 0.554314,1.445342 0,0 z M 22.819008,40.369394 c 0.196933,-0.439497 0.196933,0.439498 0,0 z m 4.782746,-0.251635 c 0.0084,-1.30675 0.486471,0.833588 0,0 z m 5.402732,-0.309262 c 0.04095,-0.863458 0.529324,0.552251 0,0 z m -8.457244,-0.777112 c -0.371586,-1.553241 1.271325,0.493931 0,0 z m 1.298773,-0.277079 c 0.172651,-0.833336 0.379089,0.67302 0,0 z m 2.464294,-0.652841 c 0.196933,-0.439497 0.196933,0.439497 0,0 z m 1.655998,-0.359395 c 0.312473,-0.614787 0.32592,0.622689 0,0 z m 0.583829,-0.142064 c 0.161678,-5.775495 6.897219,-7.92245 2.084353,-1.958568 -0.26754,0.913165 -1.004917,1.961986 -2.084353,1.958568 z m 2.720058,-1.805665 c 0.334144,-2.394254 1.318903,1.02888 0,0 z m 1.1793,-0.222651 c 0.168642,-2.324949 1.823046,0.359285 0,0 z m -3.454037,-0.272923 0.01446,0.189064 z m -0.625936,0.04515 c 0.335884,-1.121109 0.58502,1.085797 0,0 z m -0.464964,-0.746918 c 0.943293,-1.984278 0.851192,1.50831 0,0 z m 1.239972,0.308741 c 0.196931,-0.439496 0.196935,0.439496 0,0 z M 30.010841,33.4419 c -1.21951,-1.443762 1.247267,0.103744 0,0 z m 6.287376,-0.364777 c 0.348102,-1.081386 0.467873,0.818184 0,0 z m -4.533703,0.02459 c 0.199925,-0.594073 0.199921,0.594074 0,0 z M 30.630826,32.72029 c -0.711121,-2.47211 3.061578,-0.04409 0,0 z m 5.487981,-1.728291 c 0.167752,-1.618147 0.68855,1.077722 0,0 z M 33.271844,30.37348 c 0.03944,-2.619611 2.047472,0.35237 0,0 z m -0.887344,0.0404 c 0.420298,-0.613385 0.293656,0.730335 0,0 z m -1.151402,-0.662512 c 0.299131,-0.812651 0.299126,0.812653 0,0 z m 1.249288,-1.687881 c -0.418782,-1.706304 1.370707,0.523616 0,0 z M 0.85380452,128.46269 c -0.71505301,-1.23865 -1.14272268,0.80239 0,0 z M 50.895498,114.96552 c -0.0832,-3.37995 -0.481351,2.01282 0,0 z m 0,-4.04237 c -3.29145,-6.44384 -2.535268,5.56388 0,0 z m -10.989595,-1.13277 -0.04713,0.11135 z m 2.158377,-6.86592 c 3.067784,-1.11651 13.18197,-0.61623 4.65641,-3.089732 -1.763493,-0.229673 -7.615661,-0.08807 -4.65641,3.089732 z m -2.417092,-1.37251 c -0.305707,-0.591 -0.38923,0.92997 0,0 z m -0.532772,-0.18041 c -0.510644,-1.34737 -1.552351,0.64007 0,0 z m -1.858601,-5.750455 c -0.131451,-0.856156 -0.62922,0.396707 0,0 z m -4.937742,-0.420571 c 0.978285,-0.760817 -0.982995,-0.175927 0,0 z m 0.845016,-0.459153 c 1.434835,-1.67261 -1.301961,-1.369643 0,0 z m -0.868376,-1.331632 c -0.08376,-1.55275 -1.306635,0.706781 0,0 z m -1.061615,-2.019477 c -0.482289,-0.712871 -0.21914,0.840953 0,0 z m 0.354278,-0.301705 c -0.286789,-0.504109 -0.286787,0.504109 0,0 z m 1.668523,-0.241436 c 0.501426,-1.423035 -2.067894,1.559425 0,0 z m -5.21829,-0.921535 c 0.411215,-1.407596 -0.777543,0.293447 0,0 z m -0.319023,-0.874692 c 0.905513,-2.631005 -2.3344,-2.512101 0,0 z M 26.0869,87.219171 c 0.121962,-2.635284 -2.565834,1.048783 0,0 z m -0.05259,-2.228208 c 0.163687,-2.271252 3.081973,-2.708136 -2.112101,-2.903478 -1.170157,1.124847 0.844221,3.013157 2.112101,2.903478 z m -3.189844,-0.976372 c 0.712303,-1.634827 -1.636947,0.307267 0,0 z M 22.039493,53.303094 c 0.133991,-1.511834 -1.144501,0.954134 0,0 z m 4.233721,-3.006353 c 2.410436,-3.804252 -1.736407,-0.248766 0,0 z m -2.17545,0.32531 c 3.851037,-0.152361 -1.014695,-2.185692 0,0 z m 7.910792,-3.446795 c 1.001766,-1.84805 -2.017337,0.03095 0,0 z m -5.14592,-0.16115 c -0.124917,-0.737091 -0.452828,0.902431 0,0 z m 5.484851,-0.961191 c -0.809033,-1.286285 -1.468665,0.73324 0,0 z M 30.39169,45.626867 c -0.28679,-0.504111 -0.28679,0.504112 0,0 z m -0.413513,-0.325864 c -0.558982,-1.85145 -0.316462,1.058519 0,0 z m 0.972352,-1.916293 c -0.613978,-1.005136 -0.501206,0.9585 0,0 z m 1.020647,0.0086 c 1.102532,-1.763831 -1.648295,-1.432923 0,0 z m -0.923005,-1.518212 c 0.439685,-1.53375 -1.137501,0.406312 0,0 z m 4.701965,-0.835608 c 0.253661,-0.65265 -1.034513,0.91621 0,0 z m 3.519809,-4.376735 c 2.90054,0.448804 16.20142,-1.236818 8.037006,-2.463081 -2.59783,0.971461 -8.494053,-2.698627 -8.037006,2.463081 z m -2.609437,-1.098456 c 2.895133,-0.02622 -0.800778,-0.883831 0,0 z m 1.303862,-0.5845 c -0.487264,-1.2952 -0.61791,0.657775 0,0 z m 2.347089,-2.29826 c 2.365754,-1.770905 13.885115,0.304216 8.578432,-3.823582 -13.78222,4.194551 2.20444,-13.470957 2.060238,-19.0802347 0.460794,-9.24689818 -2.407675,-3.8091499 -4.458694,1.5757067 -2.214731,4.470327 -6.120438,8.953346 -2.174139,1.472337 2.672151,-3.7074753 4.976794,-9.2242052 0.729544,-2.45644 -4.353636,6.277657 -6.552967,16.514709 -4.735381,22.312213 z m 0.398562,-7.265922 c 0.350515,-0.392502 0.02479,0.592381 0,0 z m 0.194852,-1.04541 c -1.206502,-2.167863 1.919268,-1.006401 0,0 z m 0.708064,-2.940298 c -1.81844,-2.217001 1.852925,-0.785267 0,0 z m 2.639858,-2.657365 c -0.125701,-1.799754 1.120355,0.574167 0,0 z m 0.404638,-1.630659 c 0.50926,-2.44331 0.877319,1.233087 0,0 z m 3.226707,-1.400266 c 0.07207,-2.32072 1.799415,-0.510921 0,0 z m -0.649846,-3.766285 c 0.05664,-2.1337247 1.844087,1.008024 0,0 z m 1.565091,-2.5064557 c 0.622091,-3.8142355 0.784403,1.9622187 0,0 z M 46.688453,27.021103 c 9.373135,-0.702566 -1.903434,-6.528867 0,0 z m 1.836024,-5.100915 c 4.842584,-1.208804 -0.08133,-8.269525 0,0 z"
       id="path879" />
    <path
       style="fill:#255a54;stroke-width:0.0955532"
       d="m 50.393564,128.35688 c -3.157902,-2.95949 -7.18614,-14.80431 -2.295578,-5.07713 6.31773,5.87804 0.935337,-9.44035 -2.133981,-11.65168 -4.069365,-6.99648 1.760144,-3.33183 4.923741,-6.16698 -12.351862,-6.157906 -9.585445,10.38439 -5.272286,16.42749 1.277736,2.36182 2.853571,4.57992 4.778104,6.4683 z m -2.811562,-8.95421 c -0.774849,-1.71207 1.227005,0.88204 0,0 z m -0.579668,-1.58052 c -0.283776,-1.34881 1.026869,1.15368 0,0 z m -3.146405,-1.43832 c -1.132008,-2.88602 2.458128,-0.41727 0,0 z m -0.445079,-3.02464 c -2.095012,-2.63583 1.648168,-0.98462 0,0 z m -0.398026,-2.43485 c 0.354098,-0.52221 0.172753,0.66525 0,0 z m -1.042535,-1.19624 c 0.183447,-0.65952 0.348852,0.52491 0,0 z m 1.768066,-2.15325 c 0.254296,-0.5036 0.254296,0.5036 0,0 z m 3.618535,20.63209 C 41.533525,121.71731 41.54185,111.34346 35.831795,105.5833 29.846801,102.45978 29.015619,90.081127 21.708166,84.399714 c -1.12128,-2.522789 1.200323,-7.942555 -3.330673,-3.395913 -2.294178,-4.04121 -0.04267,-5.489735 -6.62632,-5.630504 -1.001811,-1.162313 17.548818,-1.999552 16.454357,1.120105 -3.209103,0.07211 -11.995728,0.705783 -3.718,1.035899 2.201692,-0.661501 10.025495,0.535566 4.758154,3.201643 4.165908,-1.797775 5.904616,3.04456 0.882078,2.386984 3.705674,1.29743 7.558368,0.766948 3.848398,3.495405 4.531571,0.219602 4.333267,2.097925 1.661334,3.010177 7.658662,1.236516 1.386424,3.153257 0.181226,3.411865 3.724049,0.709205 10.061721,0.217718 7.3595,4.208392 11.13826,5.061403 10.068793,-13.440394 1.20082,-14.756591 -6.079726,-1.716658 -7.352354,-17.722914 -2.813471,-7.336395 2.127182,6.092196 10.304552,11.979688 9.087361,4.164984 -0.167721,-7.422309 1.706155,-19.250359 -1.472963,-23.75907 4.777257,-6.409602 -3.137185,-1.810849 -3.85702,-1.370715 -2.375154,3.367971 -8.365583,18.004368 -6.777008,6.748231 3.125374,-8.056684 18.845369,-13.626837 10.406826,-23.337155 -4.81387,-0.08265 -9.451015,2.424952 -6.184952,4.399677 -3.405318,1.316732 -13.547582,0.987375 -4.736139,2.620059 -1.864243,3.538926 -6.126048,1.766392 -1.23595,3.932395 -2.479179,2.833514 -7.41266,0.746241 -2.00603,3.080687 -2.393317,2.609863 -8.773242,0.865914 -1.533136,3.160766 -1.380262,2.018354 -7.729086,0.529554 -2.010639,3.362229 -4.337862,1.676586 -17.120921,1.39114 -5.424291,1.845848 9.271644,2.249027 -12.022872,2.555138 -1.673725,2.853837 4.998854,3.41192 -14.713971,3.304831 -13.213164,1.264147 3.142129,-0.213942 10.563538,-1.486268 2.871211,-1.542807 -10.4843848,-0.528182 6.861572,-0.926114 2.36701,-4.241365 2.158986,-4.481788 5.682888,2.564017 4.285792,-4.933617 5.501865,-5.677823 6.362537,-14.070411 11.695651,-19.837907 -0.0458,-3.592368 7.6659,-5.465704 5.82646,-11.353817 C 38.900431,13.82903 46.751323,7.5662267 48.743759,0.51419293 37.184727,-0.51996578 25.122381,0.40778474 13.342273,0.06247915 6.4471414,-2.3563872 -5.5147568,2.1376008 1.9001253,6.3095684 c 9.5230617,0.6994854 -5.5188567,3.9735046 -2.02388548,9.7823906 0.20763928,16.609082 0.03550076,33.247647 0.09186778,49.868959 1.2315661,5.509144 -0.48940904,14.145687 0.02138891,22.951738 0.02672609,12.106574 -0.008845,24.213214 0.02293679,36.319784 9.2901077,5.31558 20.2931697,2.63675 30.4920237,3.27691 5.679153,0 11.358306,0 17.037459,0 l -0.144395,-0.23599 z M 34.760704,109.06138 c -1.090126,-1.77416 1.735946,0.54493 0,0 z m 1.614102,-0.53565 c 0.740671,0.0915 -0.482857,0.77125 0,0 z m -0.713239,-1.51013 c -1.908815,-2.15736 2.352951,0.61936 0,0 z m -2.340886,-0.0399 c -0.211237,-1.10529 0.748346,0.37369 0,0 z m 0.959756,-0.54275 c 0.125518,-1.41182 1.113491,0.78717 0,0 z m -0.817174,-2.7505 c 0.154544,-1.20552 0.557056,0.90029 0,0 z m -1.669013,0.0273 c -0.77107,-2.318 1.233835,0.46858 0,0 z M 27.4689,98.0641 c 0.297609,-0.711027 0.165927,0.8345 0,0 z m -1.28332,0.08722 c -0.529587,-1.4163 1.140623,0.521031 0,0 z m -1.905178,-1.685079 c 0.333404,-0.497102 0.118214,0.650934 0,0 z m -1.107116,-0.171813 c 0.199925,-0.594073 0.199921,0.594074 0,0 z M 47.024894,95.39246 c -0.714872,-2.217025 1.597547,1.348689 0,0 z m 2.120262,0.103088 c -0.746517,-1.708036 1.328026,0.430837 0,0 z m -3.698792,-0.394349 c -0.07935,-0.965511 0.542006,0.772125 0,0 z M 26.716061,93.708694 c 0.354102,-0.522205 0.172747,0.665252 0,0 z m -1.511713,-1.589269 c -1.894517,-0.130281 2.563366,0.03843 0,0 z M 42.09479,91.80268 c -1.616293,-2.509203 2.618198,0.65574 0,0 z m -24.506911,9.97e-4 c -0.553432,-1.469395 1.212008,0.738287 0,0 z m 23.138756,-0.536219 c 0.277271,-1.009154 0.524597,0.899402 0,0 z M 22.881206,91.158061 c -5.526305,-2.677285 -1.367696,-7.197086 0,0 z m -4.161663,-0.0021 c -4.938142,-2.034471 3.952269,-0.487737 0,0 z m -2.634011,-1.053516 c -0.614311,-2.924985 1.142534,1.09085 0,0 z M 22.872009,89.6285 c -0.245349,-1.35067 0.871574,1.199517 0,0 z M 11.793315,89.393163 c -5.7791593,0.249329 3.129046,-1.940215 0,0 z M 8.6368171,89.019869 c 0.00161,-2.205204 2.1038259,1.312614 0,0 z M 22.535572,87.562965 c 0.97581,0.229553 -0.751777,0.72194 0,0 z m -8.011453,0.334542 c -4.120595,0.0047 1.075882,-3.41752 0,0 z m 0.906591,0.03584 c -0.712215,-1.662962 1.745876,0.454505 0,0 z m -7.7437424,-1.28761 c 0.00814,-1.464906 1.8307701,1.388441 0,0 z m 13.8920694,-0.38513 c -0.05239,-0.899359 0.523633,0.472797 0,0 z m -2.602691,-0.213595 c -4.477043,-2.978579 1.537981,-2.165461 1.315733,0.130702 z m -4.90732,-0.963324 c -0.848488,-1.989646 1.563668,0.200809 0,0 z M 13.044235,84.85074 c -1.899435,-3.095405 2.033474,0.99364 0,0 z m 7.250546,0.05254 c 0.235378,-0.460063 0.248662,0.490773 0,0 z m -8.358192,-0.75687 c -0.02502,-0.977305 0.780432,0.679404 0,0 z m 7.428213,-0.325547 c 0.444204,-1.027077 0.546342,0.788232 0,0 z m -2.87126,-0.423381 c -0.435857,-4.06439 4.75594,0.421887 0,0 z m -4.53883,-0.820627 c -0.530425,-2.028683 1.694212,-0.01239 0,0 z m 28.85986,-3.009415 c 0.381259,-1.008449 0.521735,1.010438 0,0 z m 8.185085,-0.648212 c 0.06216,-2.79276 2.312941,1.731159 0,0 z m -34.820853,-0.0011 c 0.06654,-1.785806 1.534075,1.32088 0,0 z M 9.5336025,78.731041 c -1.2679614,-2.132657 2.5048805,0.986301 0,0 z M 47.10643,78.113564 c -2.710868,-2.984178 3.891958,1.11387 0,0 z m -10.910228,0.351255 c -0.26598,-1.16504 0.981086,0.582707 0,0 z M 2.6760493,78.339977 c -0.3023767,-1.511304 0.7409066,0.61848 0,0 z m 36.1075617,-0.83318 c 0.335893,-1.121125 0.585017,1.085826 0,0 z M 7.2488577,76.808125 c 1.3105201,-2.59594 2.1429739,1.134509 0,0 z m -2.3796872,0.09893 c -0.2102063,-1.736341 0.7292453,1.037571 0,0 z M 35.009919,75.781138 c -1.160113,-3.357959 -1.437353,3.320482 -2.610255,-2.71049 -1.578352,-4.419017 0.151871,-13.735746 2.023042,-11.520769 2.48067,-1.718371 -1.110804,6.134541 0.662514,8.375459 -3.382613,-0.187222 4.081205,7.848435 -0.0753,5.8558 z M 3.8911756,76.243917 c -2.6401675,0.380769 2.4146483,-1.509363 0,0 z M 45.469154,75.619468 c -7.92246,-1.330498 8.208126,-1.061389 0,0 z M 42.2157,75.367672 c 0.199919,-0.594073 0.199919,0.594072 0,0 z M 7.0758026,75.044978 c 0.1329771,-1.081378 2.100182,1.50409 0,0 z M 1.756112,74.464159 c 0.4108742,-1.005846 0.5676324,0.95817 0,0 z m 6.9813024,-0.126052 c -0.5349701,-1.486869 1.3259946,0.725241 0,0 z M 3.9537322,73.871238 c 0.7340668,-1.313067 0.6969377,1.038916 0,0 z M 20.806423,73.702219 c -3.552441,0.440019 -15.4693047,-1.745224 -5.387011,-1.717899 4.311489,-1.872066 18.851202,2.269336 5.387011,1.717899 z m 7.639487,-1.174631 c 0.739546,-0.441496 0.06261,1.000994 0,0 z m -21.5628157,0.01282 c -2.5216511,-2.590449 3.1088159,0.579218 0,0 z M 4.5737181,72.326586 c 0.5562956,-1.413874 0.6414191,1.391613 0,0 z M 19.276233,70.606817 c -5.317242,1.126477 -9.7239473,-2.079713 -1.816375,-1.368873 4.873127,-0.508405 13.351222,1.402568 3.438993,1.407733 z m 16.594068,-0.188668 c -0.175938,-1.594767 1.197589,0.7757 0,0 z m -27.5589551,0.03224 c -6.1393553,-0.631061 5.0120851,-1.836905 0,0 z m -7.1918334,-0.0816 c 0.1098694,-2.112926 2.7949045,0.267085 0,0 z m 1.6828178,-0.14797 c 0.1358075,-1.438693 2.7104474,1.586714 0,0 z M 27.158908,68.400661 c 0.439651,-2.324721 0.146512,2.55734 0,0 z M 6.5853341,68.194292 c 0.9716657,-3.771607 4.6239079,1.787791 0,0 z M 10.910935,67.85831 c 3.800372,-3.543898 23.14268,-0.488391 9.896836,-0.238088 -3.293591,0.214679 -6.5964,0.316458 -9.896836,0.238088 z M 1.4623814,67.649781 c -1.63768202,-2.26326 2.0982421,1.306539 0,0 z m 1.6942269,-0.219862 c -1.5931412,-0.834013 2.3254209,0.151119 0,0 z M 35.766118,66.270182 c 0.439307,-0.998538 0.536703,1.115242 0,0 z M 5.8425851,65.77101 c 0.814625,-3.61611 3.9166463,1.531565 0,0 z M 4.3572338,65.119747 c -0.1438656,-1.268872 1.0167864,0.665584 0,0 z m -1.4663335,-0.11239 c 0.1969328,-0.439497 0.1969328,0.439498 0,0 z M 28.221739,64.142141 c 0.155402,-1.202739 0.617365,0.771399 0,0 z M 3.8281226,63.604643 c -0.3772741,-1.215036 1.3530928,0.640672 0,0 z m 4.5154956,-0.442128 c -0.2075599,-1.534475 1.1531789,0.558481 0,0 z M 1.429506,62.895471 c 0.4349999,-1.032479 0.4908574,1.022165 0,0 z m 5.1185975,-0.529497 c 1.0171805,-1.031852 1.5341649,0.936378 0,0 z M 44.325221,61.894282 c -2.555755,-2.421953 7.842463,0.458736 0,0 z M 2.7391104,61.46694 c 0.5012011,-2.208521 1.8196204,1.879089 0,0 z m 4.3244287,-0.519684 c 0.1165515,-2.701738 2.7350015,2.304275 0,0 z m 34.7658539,0.09122 c 0.247898,-0.638198 0.222496,0.604831 0,0 z M 4.3965791,60.529125 c 0.040948,-0.863456 0.5293203,0.55226 0,0 z M 46.403715,59.229526 c -1.527101,-3.659987 3.759089,1.262447 0,0 z m -37.615708,0.04543 c -0.3657403,-2.20067 2.452339,0.673796 0,0 z M 2.1823454,59.079813 c 0.3137134,-1.253384 0.2858616,1.185624 0,0 z m 36.1363016,-0.05155 c 0.393862,-0.878988 0.39386,0.878988 0,0 z M 13.564806,58.600687 c 0.130364,-2.166506 1.886793,1.140534 0,0 z m 22.035306,-0.257395 c 0.07537,-1.538316 1.05504,0.970923 0,0 z m 12.710759,-0.294356 c 0.566582,-2.881674 3.00213,1.527318 0,0 z M 40.194864,56.89715 c 0.46981,-1.255343 0.479601,1.160582 0,0 z M 16.138347,55.361293 c -1.701969,-3.843074 3.97945,1.644109 0,0 z m -4.822949,-0.273787 c -0.05794,-2.095193 1.173946,1.71358 0,0 z M 18.587976,53.1716 c 0.458414,-0.892761 0.394971,0.82588 0,0 z m -6.477414,-0.01107 c -1.067237,-2.13853 1.930705,-0.541539 0,0 z M 11.06502,53.08766 c 0.297778,-1.069754 0.597809,0.92567 0,0 z m 5.376541,-0.27042 c 1.300275,-4.020592 5.620767,0.13543 0,0 z M 13.28824,52.55952 c -1.150658,-2.01866 1.668476,0.504352 0,0 z m 6.09686,-0.457452 c 0.183404,-0.65949 0.348884,0.524853 0,0 z m -6.972741,-1.216801 c -1.105357,-3.135758 3.787562,-0.501112 0,0 z m -5.8899754,-0.0741 c 0.9423564,-1.548456 1.4861182,1.305585 0,0 z M 20.618458,50.631979 c 0.486104,-0.512345 -0.0015,0.890711 0,0 z m -1.754569,-0.732218 c -0.07408,-5.956303 6.564101,-2.33906 0,0 z M 14.367877,49.79089 c -0.806826,-2.203884 2.303097,0.646381 0,0 z m 7.12259,-0.716668 c 0.39093,-0.683716 -0.01957,1.00456 0,0 z M 7.5792541,48.922047 c -0.2081931,-2.15627 2.2094655,0.942264 0,0 z m 1.5978944,-0.154056 c 1.1816475,-3.467876 4.4247845,1.317715 0,0 z M 21.667606,47.527213 c -0.245442,-1.185509 1.035207,0.242582 0,0 z m -6.715529,-0.283829 c -0.07675,-2.064052 1.036017,1.227374 0,0 z m 1.667076,-0.211365 c 1.01188,-3.249597 3.6582,0.295936 0,0 z m 24.019599,-1.644856 c 0.241998,-2.706852 1.759645,1.036755 0,0 z m -24.373877,0.105691 c -8.96e-4,-1.761913 1.074673,0.847081 0,0 z m 23.293744,-0.123705 c -0.49881,-1.624779 1.147481,0.779459 0,0 z m -15.611943,-0.25772 c -2.634696,-1.682175 2.971233,-0.05694 0,0 z m 1.421654,-2.18374 c 0.738024,-0.144135 -0.529638,0.725932 0,0 z m 19.985789,-1.548664 c 0.07244,-3.680722 1.988671,0.685599 0,0 z m -1.333881,-0.136786 c 0.641721,-0.406203 -0.339195,0.904679 0,0 z m 3.683059,-0.0562 c -0.552124,-1.546944 1.168475,0.469231 0,0 z m 1.597952,0.0081 c 0.135954,-0.395774 0.164753,0.437079 0,0 z M 22.819008,40.369394 c 0.196933,-0.439497 0.196933,0.439498 0,0 z m 4.782746,-0.251635 c 0.0084,-1.30675 0.486471,0.833588 0,0 z m -3.054512,-1.086374 c -0.371586,-1.553241 1.271325,0.493931 0,0 z m 1.298773,-0.277079 c 0.172651,-0.833336 0.379089,0.67302 0,0 z M 30.010841,33.4419 c -1.157774,-1.390105 1.259441,0.09477 0,0 z m 1.576535,-0.399291 c 0.482289,-0.712873 0.219142,0.840954 0,0 z m 1.667516,-2.722188 c 0.06355,-2.705595 2.070404,0.547421 0,0 z m -0.908104,0.08377 c 0.263737,-1.13007 0.829489,1.074295 0,0 z m -1.11369,-0.652832 c 0.299131,-0.812651 0.299126,0.812653 0,0 z m 2.995336,-1.981255 c 0.840582,0.02692 -0.782074,0.72249 0,0 z m -1.746048,0.293371 c -0.418782,-1.706304 1.370707,0.523616 0,0 z M 0.23381859,128.47046 c 0.032023,-0.61999 -0.51514811,0.20505 0,0 z M 50.895498,114.96552 c -0.0832,-3.37995 -0.481351,2.01282 0,0 z m 0,-4.04237 c -2.626701,-5.11965 -2.813613,4.95219 0,0 z m -2.044076,-1.32057 c 0.165171,-0.91955 -0.907748,0.33628 0,0 z m -2.522303,-2.18347 c 0.239023,-1.31614 -0.955483,0.93713 0,0 z m -0.659214,-0.0942 c -0.957619,-1.48599 -0.758192,0.87365 0,0 z m -6.376994,-1.72958 c -1.832331,-3.49766 -5.336505,-0.34712 0,0 z m -0.206533,-2.09265 c 0.234522,-1.24215 -0.878945,0.51551 0,0 z M 36.539853,103.056 c 2.451691,-2.90029 -5.90566,-1.18376 0,0 z m 12.276541,-0.35962 c 6.273128,-5.26827 -15.257688,-1.39017 -2.053957,-0.55712 z M 37.574012,101.1383 c -3.165802,-2.763493 -10.429881,-5.545562 -3.386742,-1.03954 1.118995,0.37935 2.276712,0.63237 3.386742,1.03954 z m -4.31394,0.0601 c 0.201748,-0.50131 -0.481274,0.25948 0,0 z m 6.475686,-1.729778 c -0.988784,-2.295729 -4.234751,0.500557 0,0 z m -3.719914,-0.651751 c 2.402962,-5.171182 -5.51167,-4.490164 0,0 z m 2.722737,-1.571545 c -0.985763,-1.626688 -1.751126,1.255148 0,0 z m 0.820518,-0.281842 c 0.302255,-1.687416 -1.409805,0.214076 0,0 z m -8.878017,-2.086483 c 1.631499,-2.218925 -1.108103,-0.05765 0,0 z m -0.392441,-1.338986 c 1.141249,-3.111777 -1.527591,-1.254087 0,0 z m -0.599112,-2.586341 c -0.224679,-2.750459 -1.907107,-2.390837 0,0 z m 3.517031,-1.022883 c 0.514171,-1.176313 -0.906923,0.27139 0,0 z m -1.302027,-0.42268 c 0.419628,-1.185459 -1.094328,0.159091 0,0 z m -0.977979,-0.07348 c 0.323484,-1.58042 -1.185923,0.413545 0,0 z m 0.329524,-1.496085 c -0.215629,-2.379946 -0.451235,1.426111 0,0 z m -5.216233,-0.669744 c 0.08369,-2.164558 -2.155327,0.853895 0,0 z m 5.723081,-0.09376 c 0.797698,-2.982439 -3.437232,0.646371 0,0 z m -4.736873,-0.104936 c -0.164757,-0.437081 -0.135954,0.395777 0,0 z m 2.258519,-0.555953 c -0.162395,-2.233682 -2.032189,0.324276 0,0 z m -1.594249,-1.196538 c -0.196934,-0.439496 -0.19693,0.439496 0,0 z m -1.656049,-0.374783 c -0.352542,-1.77353 -2.629302,0.251283 0,0 z m -1.975295,-1.114867 c 5.404564,-1.651601 -2.182874,-2.430556 0,0 z m -1.192237,0.03993 c 0.02881,-1.605678 -1.377552,0.86607 0,0 z m 5.247965,-0.235024 c 0.165698,-1.442617 -1.261484,1.017735 0,0 z M 26.80463,80.677156 c 0.65263,-3.515943 -5.132533,0.98632 0,0 z M 11.924976,74.80066 c -0.248665,-0.490774 -0.235379,0.460059 0,0 z m -0.353469,-12.423203 -0.08494,-0.129654 z m 7.211716,-1.792363 c -0.52808,-0.78113 -1.003603,1.161324 0,0 z m 6.914289,-3.311998 c 3.703095,-3.694172 -5.563135,1.728258 0,0 z m -1.688959,-2.46579 c 2.388108,-2.757131 -4.009955,-0.733075 0,0 z m 3.455173,-1.442235 c -0.476619,-1.556061 -1.301096,1.247469 0,0 z m -5.433887,-0.06936 c -0.01546,-1.20877 -1.029019,0.801954 0,0 z m 2.527818,-0.738107 c 2.191929,-1.37485 -2.184216,0.371859 0,0 z m 2.091976,-0.959943 c 0.785624,-0.669767 -0.65861,0.119081 0,0 z m 0.866561,-0.507615 c 2.713124,-1.358597 -2.338975,-0.257989 0,0 z m 3.283833,-0.231513 c 1.278461,-3.121987 -3.351606,0.556141 0,0 z m -6.624777,-0.35009 c 4.136544,-0.290249 -1.677039,-1.886345 0,0 z m 1.832256,-0.758098 c -0.196931,-0.439496 -0.196935,0.439496 0,0 z m 4.215557,-0.940604 c -0.287888,-1.797574 -0.380726,1.473369 0,0 z m -3.595572,-0.244905 c -0.295396,-0.659243 -0.295396,0.659243 0,0 z m 4.16276,-0.154632 c -0.196935,-0.439495 -0.196931,0.439497 0,0 z m -2.80978,-0.216116 c 1.40456,-1.61506 -0.750351,-4.586721 0,0 z m 1.63283,-0.502483 c 1.606764,-1.240772 -1.436215,-0.02524 0,0 z m 1.133791,-0.145856 c 0.828688,-1.241655 -1.316264,0.381168 0,0 z m 1.307453,-0.572803 c 0.108726,-1.340028 -0.871406,0.831945 0,0 z m -3.124024,-2.016497 c 0.875649,-1.699792 -1.522776,-2.352047 0,0 z m 0.392988,-2.82452 c 0.561751,-1.046635 -0.899208,-0.12243 0,0 z m 4.153953,-0.158945 c 4.814401,-5.353361 -3.746927,-3.082853 0,0 z m -4.244607,-0.6838 c 0.965164,-3.96909 8.626523,-6.62603 0.983377,-3.533803 -1.021191,0.822307 -1.478552,2.300655 -0.983377,3.533803 z m 8.538097,-1.129016 c 1.71106,-1.382165 -1.454087,0.06211 0,0 z m -9.194935,0.106107 c -0.164759,-0.437076 -0.13595,0.395776 0,0 z m 8.170073,-0.704986 c 1.061604,-1.271168 -2.478917,0.982663 0,0 z m -0.199803,-1.366862 c 4.976525,-0.774437 -3.189827,-1.138642 0,0 z m -5.899076,-1.687195 c 0.989137,-2.161297 -1.937887,-0.293556 0,0 z m 14.125027,-0.213837 c 6.244479,1.814223 7.081937,-4.70834 0.288218,-1.938619 -6.382413,-1.307353 -6.753841,2.907862 -0.288218,1.938619 z M 32.849331,35.849882 c 0.552352,-1.610595 -1.701656,0.493917 0,0 z m -1.217671,-0.32561 c -0.337636,-0.557686 -0.32753,0.517585 0,0 z m 1.937324,-0.382224 c 3.811384,0.377925 -0.298258,-2.796931 0,0 z m 3.580548,-1.803236 c 0.743289,-1.231124 -1.219497,0.309714 0,0 z m -2.761787,-0.598463 c 6.589191,-1.443002 -1.297075,-2.651311 0,0 z m 2.026661,-0.308708 c -0.164757,-0.437081 -0.135954,0.395776 0,0 z m 5.181308,-0.317778 c 4.5827,1.293811 13.477567,-3.80871 4.438597,-2.266752 -9.963538,-0.542998 4.792667,-13.220247 4.912821,-18.989832 0.01571,-3.2610336 -0.323419,-11.59726894 -2.00583,-3.9611825 -2.157169,3.0941034 -8.597174,16.8645225 -5.002909,6.4099575 3.021362,-3.7353363 5.591879,-10.2511265 1.046699,-2.813254 -3.013633,5.406289 -8.618013,17.356162 -3.389378,21.621063 z m 0.100269,-3.358243 c 0.99657,-0.674642 -0.176551,0.783732 0,0 z m -1.871656,-1.993803 c 0.13595,-0.395775 0.164759,0.437076 0,0 z m 0.885694,-1.288597 c 0.31529,-1.029261 0.338329,0.692132 0,0 z m 0.194852,-1.103038 c -1.206502,-2.167863 1.919268,-1.006401 0,0 z m 0.708064,-2.940298 c -1.81844,-2.217001 1.852925,-0.785267 0,0 z m 2.639858,-2.657365 c -0.125701,-1.799754 1.120355,0.574167 0,0 z m 0.404638,-1.630659 c 0.50926,-2.44331 0.877319,1.233087 0,0 z m 3.226707,-1.400266 c 0.07207,-2.32072 1.799415,-0.510921 0,0 z m -0.649846,-3.766285 c 0.05664,-2.1337247 1.844087,1.008024 0,0 z m 1.565091,-2.5064557 c 0.622091,-3.8142355 0.784403,1.9622187 0,0 z m -4.45802,19.6225217 c -1.045358,-0.743409 -1.572512,0.543577 0,0 z m 2.143096,-2.074946 c 9.150048,0.291381 0.0122,-8.234799 0,0 z m 2.040016,-5.096241 c 4.842584,-1.208804 -0.08133,-8.269525 0,0 z"
       id="path877" />
    <path
       style="fill:#192c29;stroke-width:0.0955532"
       d="m 49.961352,128.08887 c -2.239083,-3.52038 0.18864,1.36867 0,0 z m -2.608629,0.31743 C 42.027791,122.24372 40.944458,112.43642 36.92749,106.66016 31.114281,106.45771 29.652095,92.177836 21.585014,89.886255 13.972547,84.605811 18.891033,73.72643 8.1462301,76.285628 3.3872205,73.477714 20.017511,74.11233 8.4148187,72.975132 1.416157,70.413588 18.515759,71.80277 9.7251097,70.803103 -0.59681093,68.715495 12.421587,65.913894 11.659611,65.595596 3.2671883,66.251535 8.6549465,64.324551 13.125912,62.589172 8.6929892,65.466495 3.0389652,59.065029 9.9201739,61.497532 19.273461,60.243128 13.94254,46.157705 24.804334,43.980034 c -3.085707,0.668544 -7.402421,13.968368 -2.55,5.560207 5.721347,-5.10243 6.735051,-19.030603 14.259673,-21.838602 C 38.315819,19.264978 41.211385,10.986223 47.099205,4.4122985 55.464654,-3.1889806 37.085978,1.3594402 32.129952,0.03593046 21.799078,0.20550768 11.305016,-0.15484418 1.0865275,0.20532961 -6.8621235,7.8319176 15.351313,4.2297503 4.101972,8.7428647 -3.5952428,13.111712 1.4221595,23.423675 -0.02768296,30.491378 0.03812211,41.989714 -0.28726574,53.607186 0.26742973,65.031801 7.6814444,68.435396 -3.488055,66.28872 0.80270733,70.177264 6.599834,67.414237 -3.2918519,76.194745 0.0548915,80.110549 0.15743766,94.85419 -0.47693955,109.65112 0.40024502,124.39651 c 7.93879688,6.89141 19.33696498,3.15915 28.88559598,4.12025 6.022431,-5.4e-4 12.045041,-0.0214 18.066882,-0.11046 z m -9.211214,-18.96814 c 0.196919,-0.43949 0.196948,0.43949 0,0 z m -3.380805,-0.37678 c -1.090126,-1.77416 1.735946,0.54493 0,0 z m -1.440023,-2.08565 c -0.211237,-1.10529 0.748346,0.37369 0,0 z m -1.526431,-3.2659 c -0.77107,-2.318 1.233835,0.46858 0,0 z m 0.501681,-0.20677 c 0.420306,-0.6134 0.293647,0.73033 0,0 z m -1.594249,-0.2047 0.241284,0.006 z m -1.948526,-2.57606 c 0.282938,-0.850636 0.382227,0.81913 0,0 z m -1.111886,0.0475 c -0.250586,-1.018718 0.732612,0.4521 0,0 z m 1.864726,-0.6625 c 0.543333,-0.836691 0.116367,1.07288 0,0 z m -0.483912,-1.540388 c -0.284934,-1.169966 0.946864,0.634626 0,0 z m -1.443006,-0.0769 c -1.748891,-1.964201 1.903071,0.278886 0,0 z m -1.603956,-0.417278 c -0.111974,-2.642091 1.333913,1.826116 0,0 z m -2.788921,-1.216682 c -2.328952,-2.879353 4.539072,0.276454 0,0 z M 22.240173,95.30361 c -0.01643,-1.354027 0.939147,0.907674 0,0 z m 2.58313,-0.217616 c -0.174578,-1.895124 0.949967,1.403359 0,0 z m -1.472879,-2.026196 c 0.03397,-0.839666 0.625949,0.477338 0,0 z m -5.585026,-0.899382 c -3.756018,-5.66427 6.511959,-0.172527 0,0 z m -5.67429,-2.469214 c -7.5581123,-0.181609 2.134691,-3.27747 0,0 z m 2.477012,-1.549043 c -7.5676219,-8.827597 4.856561,-1.251902 0,0 z m 2.228171,-0.24933 c 0.321324,-0.826891 0.334956,0.815058 0,0 z M 7.4442557,86.848862 c -0.8061046,-2.600877 3.3692853,1.386334 0,0 z m 4.7626393,-0.631795 c 0.4989,-1.187899 0.451679,1.250498 0,0 z M 7.1643725,84.581475 c 0.6396933,-1.76157 1.7783091,1.482595 0,0 z m 1.9263831,-0.186226 c 0.6591443,-0.907658 0.4833572,1.158632 0,0 z m 2.7233324,-1.527946 c -3.036685,-3.95667 3.781867,-0.0011 0,0 z M 6.375365,82.170244 c 0.6234174,-1.461858 1.833491,2.282517 0,0 z m 1.6525587,-0.267532 c 0.251187,-1.633164 1.3243123,0.754502 0,0 z M 5.4185238,81.053135 c 0.3132068,-2.734153 2.5397271,1.500385 0,0 z m 9.2528452,-0.656481 c -0.241216,-1.580243 1.178174,1.060211 0,0 z M 1.5623594,80.264338 c 0.2694491,-0.932554 0.2469183,0.943319 0,0 z M 13.305553,79.89273 c -0.11064,-1.080608 1.007949,0.907303 0,0 z M 9.772706,79.19837 c -3.2809011,-3.417569 4.693903,0.279739 0,0 z M 6.3113681,78.90036 c -0.00402,-1.69713 1.1498017,1.024682 0,0 z M 2.5018282,78.396037 c -0.5705111,-2.713311 1.6057765,1.363528 0,0 z m 2.2933134,-1.4111 c -5.9145104,-0.138292 2.3296323,-2.922279 0,0 z m 6.8198414,-0.01941 c 0.565568,-0.695141 0.353413,0.970791 0,0 z m -0.75284,0 c 0.196933,-0.439498 0.196933,0.439497 0,0 z m -9.0741929,-2.18139 c -0.85375926,-1.459052 1.6623858,0.355839 0,0 z m 2.1142155,-0.587083 c -1.5513524,-0.876522 3.5569327,0.389114 0,0 z M 0.76523553,74.33679 c 0.53308947,-1.191357 0.33486007,1.20947 0,0 z M 4.3814109,72.568326 c -0.5644321,-2.059437 2.1956059,0.949788 0,0 z m -1.4361367,0.01299 c -0.4448954,-1.663769 1.5423304,0.67856 0,0 z m 1.195628,-7.41812 c -0.072067,-1.838282 1.5525475,1.102715 0,0 z M 2.6523627,65.044164 c 0.4194608,-1.660327 1.0517685,1.407901 0,0 z m 1.3204335,-1.061321 c -4.10286752,-1.006631 2.7389657,-1.621347 0,0 z M 0.44358973,62.789145 c 1.40279697,-0.11554 -0.89794931,1.311459 0,0 z M 1.297738,63.051053 c 0.07464,-1.67534 1.4430781,1.122051 0,0 z m 1.5093505,-1.249964 c -0.4094368,-4.090221 4.5851483,1.235467 0,0 z m 8.3650475,-1.638854 c 0.469271,-0.918891 0.481694,0.867045 0,0 z m -0.75284,0 c 0.196933,-0.439497 0.196933,0.439497 0,0 z M 1.9881777,59.592918 c -1.09812863,-2.101478 1.6130143,0.04522 0,0 z m 6.4825929,-0.557937 c 2.0233304,-4.243772 2.9339994,2.956259 0,0 z m -2.6055523,-0.27546 c -0.8965009,-1.353127 1.5167392,0.101001 0,0 z m 6.7934277,-1.445668 c 0.531381,-1.077033 0.719113,0.988327 0,0 z m -11.66251175,0.0051 c -0.8514837,-1.411148 0.94663315,0.201966 0,0 z M 5.4142772,56.964605 c -3.2565231,-2.345601 2.8019795,0.163056 0,0 z m 8.5581848,0.06803 c -0.333651,-1.603322 1.427293,0.529602 0,0 z m -3.730305,-0.317756 0.14845,-0.06147 z m 0.265708,-0.931101 c 0.16434,-4.631051 3.835336,1.233874 0,0 z m -2.8342193,-0.10586 c -1.1591362,-1.287514 1.3373136,0.403146 0,0 z M 5.5061007,55.32164 c 0.9945613,-1.688997 1.4221726,0.707083 0,0 z m 5.2410663,-1.925205 c 1.782866,-5.267567 4.544401,-4.211144 2.819186,-0.674122 l -1.54213,0.566916 z M 6.3629598,53.085987 c 0.5274045,-1.919493 1.8285479,1.383321 0,0 z m 1.9472241,-0.320298 c 0.3718686,-1.013537 0.5046155,0.784363 0,0 z m 2.9983341,-1.618685 c -0.725543,-1.504835 1.254976,0.235097 0,0 z M 6.095327,51.030991 c 0.9075432,-2.287308 2.4779597,1.445714 0,0 z M 16.884861,50.47199 c 0.164757,-0.437081 0.135954,0.395776 0,0 z m -1.13542,-1.322443 c 0.472752,-0.972433 0.355668,1.325187 0,0 z M 7.3927695,48.961241 c 3.2049775,-3.903842 6.3811335,1.116993 0,0 z m 7.5043025,-1.295558 c -0.740341,-3.090116 3.115943,0.908499 0,0 z m 1.490002,-0.453666 c 0.747905,-6.180975 4.161669,1.33735 0,0 z m 5.723379,-3.345199 c 0.482289,-0.712873 0.219142,0.840955 0,0 z m 1.239971,-1.938485 c -0.06495,-1.570391 0.926889,0.711024 0,0 z M 21.936033,41.7694 c -3.106324,-2.228154 3.413206,-1.783515 0,0 z M 20.79978,41.751 c 0.173436,-1.754369 1.081213,1.146688 0,0 z m 3.355017,-2.478689 c 0.01602,-2.469166 2.024657,0.85392 0,0 z m 1.604714,-0.160589 c -0.861927,-2.335673 1.729798,-0.253468 0,0 z m 1.615566,-0.710889 c -0.267912,-1.495277 0.999783,0.577184 0,0 z m 0.37277,-1.688071 c -0.184176,-1.43054 1.03568,0.69605 0,0 z m -1.828911,-0.569966 c 0.366028,-1.269672 0.288302,1.015576 0,0 z m 1.151402,-0.103088 c 0.321327,-0.826888 0.334953,0.815059 0,0 z m 2.940503,-2.59781 c -1.157774,-1.390105 1.259441,0.09477 0,0 z m -1.169116,-0.02484 c 0.04592,-1.237253 0.498077,0.721915 0,0 z m 1.682818,-0.263804 c 0.196933,-0.439497 0.196933,0.439498 0,0 z m 0.708555,-3.401894 c 0.299131,-0.812651 0.299126,0.812653 0,0 z m 1.249288,-1.687881 c -0.418782,-1.706304 1.370707,0.523616 0,0 z m 3.444889,-0.992399 c 0.135954,-0.395776 0.164756,0.437081 0,0 z m 14.968223,99.25838 c 0.822298,-6.17681 -5.053274,-17.63621 -8.637433,-18.27485 0.592358,6.8261 4.619811,12.90377 8.637433,18.27485 z m -1.642265,-4.5278 c -3.365667,-0.85178 1.383011,-1.38298 0,0 z m -1.606401,-2.12029 c -3.46987,-5.94283 3.125012,2.22099 0,0 z m -4.75035,-8.36186 c -1.582655,-1.6411 1.481347,-0.73783 0,0 z m -0.503643,-0.54121 c 0.196917,-0.43948 0.19694,0.43949 0,0 z m 6.288425,15.32622 c -0.849433,-2.32281 -1.849253,-1.1375 0,0 z m -1.963789,-3.34228 c -0.633432,-3.09755 -2.676203,-2.80885 0,0 z m -2.21359,-4.587 c 2.192437,-2.70729 -3.323532,-1.21362 0,0 z m -1.365652,-4.6797 c 0.731709,-1.46618 -1.335992,0.0681 0,0 z m 7.757265,-2.55612 c -2.468854,-3.54581 -1.280714,3.95397 0,0 z m 0,-5.18408 c -4.838246,-3.00047 -11.100792,0.34009 -2.168917,1.01708 0.791576,0.36034 2.126804,-0.0126 2.168917,-1.01708 z m -11.756254,-0.1572 c -1.851826,-2.63891 -4.462492,-0.39788 0,0 z m -4.806218,-1.83334 c 0.339261,-1.14413 -1.059529,0.52362 0,0 z m 4.753352,-0.26217 c 0.234522,-1.24215 -0.878945,0.51551 0,0 z m -1.428802,-0.39434 c -1.788025,-2.9992 -3.043911,-0.0257 0,0 z M 48.74329,102.5968 c 6.59928,-4.619789 -13.713216,-1.55085 -1.505979,-0.4099 z m -3.436139,-1.78869 c -0.348027,-1.261102 1.522546,1.1828 0,0 z m -10.939316,0.42615 c 0.807927,-1.473544 -0.988108,0.3121 0,0 z m 3.056612,-0.0828 c -0.563626,-1.965777 -2.379032,0.23633 0,0 z m -2.294296,-1.08456 c -0.488783,-1.641204 -1.376267,0.43044 0,0 z m 4.545696,-0.499458 c -0.118245,-1.735428 -1.908014,0.453188 0,0 z M 33.8215,99.484186 c -0.414462,-1.517068 -1.684987,0.836944 0,0 z m -2.3856,-0.664101 c 1.340294,-1.621135 -1.933518,-1.358712 0,0 z m 0.904315,-0.103088 c -0.286789,-0.50411 -0.286787,0.504108 0,0 z M 50.894142,96.821366 C 54.790811,86.808034 42.012013,83.318139 38.857566,75.96558 36.53388,68.09176 36.620366,57.345489 44.821815,52.835648 53.09152,50.014196 54.338783,32.127975 42.784263,39.432386 c -0.37085,-0.108922 0.397761,4.119184 -4.312185,4.123706 3.021527,4.112905 -8.666593,2.553279 -1.193484,5.157482 -5.838418,1.815388 0.498491,3.443309 -5.344129,5.042986 3.32094,0.339728 -2.558031,4.30582 -1.953136,5.059546 -7.807977,0.945925 -3.115114,0.134072 -0.878791,2.729699 -3.36626,1.024531 -11.508973,0.776073 -3.195087,1.349553 4.433345,3.480511 -16.2935968,2.036333 -7.029039,3.456644 6.664167,-3.990996 12.580584,6.296229 2.571338,4.274221 -6.360442,-0.891017 -5.87973,1.997543 -0.205402,0.815808 7.395226,-0.42936 5.720202,3.31659 0.550141,2.882256 4.100419,-0.144177 13.178605,1.844277 3.464153,2.69296 -0.04959,0.757083 10.019822,0.269827 5.016418,3.182087 4.230564,-0.488106 2.875353,3.846466 5.452953,5.180169 -7.381307,1.777309 6.109016,0.229034 1.515838,4.180283 2.750246,1.731111 4.596733,5.239023 7.369695,5.988978 -6.684702,1.851505 7.362771,3.658026 6.280596,1.272602 z M 47.024894,95.39246 c -0.714872,-2.217025 1.597547,1.348689 0,0 z m 2.120262,0.103088 c -0.746517,-1.708036 1.328026,0.430837 0,0 z m -3.698792,-0.394349 c -0.07935,-0.965511 0.542006,0.772125 0,0 z M 42.09479,91.80268 c -1.616293,-2.509203 2.618198,0.65574 0,0 z m -1.340974,-0.405792 c -0.43841,-1.542133 1.330812,0.525587 0,0 z M 36.196202,78.464819 c -0.26598,-1.16504 0.981086,0.582707 0,0 z m -1.186283,-2.683681 c -1.420922,-3.176648 -0.980404,2.770334 -2.806955,-2.783658 -3.528757,-7.292513 5.010454,-18.540826 3.490014,-6.301238 -0.682585,1.564078 2.042983,11.47381 -0.683059,9.084896 z m -0.854031,-4.640062 c -0.417249,-0.796183 -0.155438,0.547571 0,0 z m -0.12376,-5.669848 c 0.126305,-0.71015 -0.808435,0.800109 0,0 z M 28.39448,72.89092 c -0.709518,-1.616916 1.897832,0.868213 0,0 z m -1.235572,-1.852932 c 0.283628,-1.082219 0.358724,1.008508 0,0 z m 1.012358,-2.701874 c 0.603285,-1.90062 0.19259,2.366842 0,0 z m -1.145213,-2.589962 c 0.333428,-0.497088 0.11819,0.650966 0,0 z m 0.933322,-1.453136 c 0.28063,-2.149389 1.751925,1.428395 0,0 z m 7.640737,-5.949724 c 0.07537,-1.538316 1.05504,0.970923 0,0 z m 5.03864,-12.956129 c 0.241998,-2.706852 1.759645,1.036755 0,0 z m -1.168703,-0.112107 c 0.407996,-1.165765 0.566207,1.098894 0,0 z m 5.88407,-3.896031 c 0.07244,-3.680722 1.988671,0.685599 0,0 z m -1.333881,-0.136786 c 0.641721,-0.406203 -0.339195,0.904679 0,0 z m 3.683059,-0.0562 c -0.552124,-1.546944 1.168475,0.469231 0,0 z m 1.597952,0.0081 c 0.135954,-0.395774 0.164753,0.437079 0,0 z M 30.303507,98.097784 c -0.0063,-0.993934 -0.619938,0.503443 0,0 z m 5.366151,-0.563533 c 1.827308,-3.5237 -4.134203,-0.701098 0,0 z m 2.452531,-0.381369 c -0.407094,-1.000424 -0.635145,0.593072 0,0 z m -7.452536,-0.136791 c 1.459212,-1.145414 -1.422128,-0.904411 0,0 z M 29.71351,95.654657 c 0.835296,-1.184269 -0.76517,0.108326 0,0 z m -0.340369,-0.694236 c -0.02479,-0.592381 -0.350515,0.392503 0,0 z m 8.883607,-1.267931 c -2.048182,-3.967552 -5.964638,1.528533 0,0 z M 27.648181,93.334715 c -1.664729,-5.325798 -10.866749,-13.015459 -4.316969,-3.12318 1.528227,0.921812 2.763572,2.233927 4.316969,3.12318 z m -6.54402,-7.864448 c 0.267129,-0.575351 0.304398,0.72831 0,0 z m 9.008376,7.0788 c 1.331288,-1.456047 -1.373655,-0.209827 0,0 z m 6.109969,-2.457035 c -0.274702,-2.886263 -3.111632,1.448282 0,0 z m -3.088949,-0.233414 c 0.09242,-0.549202 -0.352405,0.331261 0,0 z m -4.150503,-0.76881 c 1.249402,-1.255427 -1.063806,0.152927 0,0 z m -2.972433,-2.077593 c 0.159962,-1.232477 -0.954874,0.927971 0,0 z m -6.225113,-0.210497 c 0.90749,-1.423494 -1.511678,0.657105 0,0 z m 11.926436,-0.232912 c -1.225114,-1.990194 -0.856478,1.352667 0,0 z m -6.545848,0.190058 c 0.212154,-0.858767 -0.724313,0.398294 0,0 z m 3.70209,-0.580601 c 0.379429,-0.821347 -0.864696,0.287443 0,0 z m -3.507747,-1.742131 c -1.638654,-1.457657 0.363896,1.181427 0,0 z m -5.641359,0.15789 c -0.164757,-0.437081 -0.135954,0.395776 0,0 z m 31.176418,-0.455305 c -0.175088,-0.66526 -0.359286,0.525962 0,0 z m -31.619265,0.04904 c 6.009228,-4.549481 -4.772172,-0.899787 0,0 z m 11.496305,-0.439056 c -0.176173,-2.440098 -2.630011,0.867934 0,0 z m -2.838648,-0.1052 c 0.310974,-1.011251 -1.15975,0.782359 0,0 z m 22.961608,-0.78706 c -4.888391,-3.399346 2.303775,-8.350152 -0.932163,-13.491891 -0.2935,-3.530857 1.689975,-8.802632 -0.04755,-12.432054 -5.297836,3.357018 4.552297,-9.433337 -3.233359,-2.251154 -5.545996,3.583254 -4.075011,6.677631 1.575994,6.666934 -2.079734,1.575359 -7.626214,-0.267662 -7.289255,3.155464 -4.005019,6.487199 2.03461,10.909173 7.537286,10.298984 -10.51913,0.314398 -3.05265,6.972226 2.389045,8.053717 z m -4.694176,-3.443259 c -2.053889,-5.838695 6.536804,-0.326338 0,0 z m 3.57097,-3.958134 c -0.340385,-1.978501 1.287893,1.16591 0,0 z m -5.012976,-3.382385 c 0.88647,-3.743121 3.892391,2.441997 0,0 z m -1.828633,-0.12079 c 0.156242,-3.058825 2.068236,2.252194 0,0 z M 41.95469,70.529139 c -0.693158,-1.596955 1.244168,0.261508 0,0 z m -1.18844,-0.06562 c -1.271589,-2.336379 2.15297,0.476003 0,0 z m 7.722707,-0.266215 c -0.0054,-1.283021 1.255772,1.300861 0,0 z m -3.930861,-1.794091 c 0.273831,-2.010554 1.710696,1.280048 0,0 z M 40.459624,66.57348 c 0.361361,-2.715527 1.769192,1.42441 0,0 z m 7.778793,-0.274883 c 0.262815,-1.475896 1.119019,0.717751 0,0 z m -6.376058,-0.0013 c -0.521412,-1.536317 1.319977,0.663299 0,0 z m 0.883792,-1.063914 c -0.597212,-2.696174 2.820608,0.668224 0,0 z m 1.733834,-0.01731 c 0.869402,-3.17995 3.898113,1.868817 0,0 z m 4.902976,-4.043291 c -0.233157,-2.458541 1.262073,0.9698 0,0 z M 46.49792,60.060554 c -4.950656,-5.01351 5.226103,-2.387364 0,0 z M 24.041266,83.336352 c 1.05359,-1.391376 -1.373565,-0.135034 0,0 z m 0.925575,-0.208351 c 1.330046,-1.572416 -1.537463,-0.150329 0,0 z m 0.905406,-0.385029 c 0.05725,-1.657281 -1.06788,0.358659 0,0 z m -1.370421,-0.62629 -0.222374,-0.05638 z m 4.712648,-1.430258 c 2.101041,-0.862214 -2.114758,2.89e-4 0,0 z m -2.168732,-0.14742 c -0.934884,-2.693125 -3.446487,0.968752 0,0 z m -5.378136,-0.101811 c 0.465134,-3.851465 -4.042209,1.091018 0,0 z M 50.895498,79.7489 c -0.486264,-2.151023 -0.717873,1.973782 0,0 z M 22.422203,77.582557 c -0.888501,-3.014216 -3.556492,1.96756 0,0 z m -4.939499,-0.414062 c -0.168546,-2.173163 -2.00626,1.446632 0,0 z m 0.893417,-2.422188 c -1.001512,-2.377019 -2.929919,0.768891 0,0 z m -2.465523,-1.006085 c -1.261118,-1.123196 -1.161993,0.699839 0,0 z M 26.538922,69.603238 C 24.281807,64.734997 10.13065,69.228356 11.731531,69.01914 c 4.938511,0.317176 9.888473,-0.109964 14.807391,0.584098 z m -18.7119646,-1.05925 -0.2598833,0.0079 z M 14.13921,66.347497 c -0.352851,-0.533478 -0.576741,0.598893 0,0 z m 1.107117,-2.85829 c 3.585423,-0.397571 2.207159,-1.618519 -0.1917,-0.261403 z M 41.396433,61.53719 c 1.139143,-0.708961 -0.842457,-0.157173 0,0 z M 17.108178,60.262887 c -0.71535,-1.635866 -1.430207,1.327108 0,0 z m 3.319457,-0.01172 c 5.722303,0.927544 -1.254459,-2.680665 0,0 z m -0.132854,-2.406163 c 3.495501,-1.786494 -3.057572,-0.556832 0,0 z m 5.218845,-0.55652 c 3.204773,-1.814794 -4.242507,0.612739 0,0 z m 3.554736,-0.785865 c -0.444579,-1.524096 -1.503231,0.969343 0,0 z M 18.63654,55.362811 c 4.418982,-1.728032 -5.072826,-3.514723 0,0 z m 5.156731,-0.66099 -0.222373,0.05638 z m 1.137708,-0.271702 c -0.168945,-1.828443 -1.967821,1.02049 0,0 z m -1.643337,-0.20826 c 0.940062,-1.426856 -1.465614,-0.07941 0,0 z m 6.422063,-0.383845 c 0.905636,-2.506251 -2.486699,1.159112 0,0 z m -2.296632,-0.514925 c -0.424047,-1.021365 -1.008504,0.82832 0,0 z M 24.479684,52.46422 c 0.406165,-1.083449 -1.223904,0.810258 0,0 z m 2.107165,-0.865124 c 0.18312,-0.547821 -0.320757,0.359471 0,0 z m 1.280613,-0.869386 c -0.295392,-0.65924 -0.295396,0.659239 0,0 z m 4.295614,-0.05154 c 2.80831,-0.36101 -2.029196,-1.252808 0,0 z m -1.510807,-0.07993 c 0.158782,-1.712036 -1.79233,0.738901 0,0 z m -6.460436,-0.332413 c 0.164317,-0.999567 -0.787419,0.493702 0,0 z m 0.888091,-0.210691 c 0.298825,-1.237826 -0.962466,0.307378 0,0 z m 2.831823,-2.160327 c 0.356841,-0.765092 -0.648565,0.201219 0,0 z m 1.64031,-0.363298 -0.229284,-0.127929 z m 2.389596,-0.725209 c -0.327321,-0.366362 0.04902,0.543839 0,0 z m -3.013417,-2.102736 c 0.875711,-1.848668 -1.177944,0.249798 0,0 z m 5.581929,-0.405757 c 6.623631,-1.195981 -4.578688,-1.334235 0,0 z m -7.222186,-0.313211 c 0.09243,-0.549189 -0.352425,0.33124 0,0 z m 1.465177,-0.574106 c -0.199921,-0.594074 -0.199925,0.594072 0,0 z m -0.797125,-1.603944 -0.148449,0.06147 z m 5.596441,-0.715529 c 4.849929,-3.039915 -3.202223,-1.567973 0,0 z m -5.201691,0.213352 c 0.115657,-0.840987 -0.713493,0.322934 0,0 z m 0.844486,-0.36573 c 2.386561,-1.624333 -1.278447,-1.047578 0,0 z m -0.61925,-0.672325 c -0.164759,-0.437076 -0.13595,0.395776 0,0 z m 7.909718,-0.691327 c 0.669092,-1.009858 -1.035187,0.399323 0,0 z m -6.895061,-0.181632 c 1.666346,-1.194334 -1.08752,-2.198395 0,0 z m -0.898972,-0.636191 -0.218523,-0.117947 z m 3.34175,-1.174889 c 0.206419,-1.141493 -1.085926,0.996028 0,0 z m 5.487122,0.0038 c 3.600314,0.139998 -1.17196,-1.340238 0,0 z m -6.243191,-0.103088 c -0.212657,-0.511408 -0.183917,0.427883 0,0 z m 1.810128,-0.619064 c 0.692487,-1.315169 -1.451001,1.31082 0,0 z m -2.526228,-0.327471 c 0.660609,-1.896491 -1.958047,-1.133963 0,0 z M 44.38565,36.35374 c 6.847093,0.97893 7.140182,-4.192638 0.0048,-2.088677 -4.884372,0.600646 -5.058652,2.15643 -0.0048,2.088677 z m -9.345192,-0.121299 c 2.858258,-1.670151 -2.613052,0.494894 0,0 z m -2.44731,-0.477935 c 0.616567,-0.952736 -1.010156,-0.204449 0,0 z m 0.992253,-0.893364 c 0.259096,-0.992233 -0.961441,0.745077 0,0 z m 1.089572,-0.165001 c 3.427978,-0.544041 -1.161825,-1.576181 0,0 z m 2.474559,-1.357329 c 0.743289,-1.231124 -1.219497,0.309714 0,0 z m -4.694176,-0.206175 c 0.325988,-0.925886 -0.886775,0.475748 0,0 z m 1.964317,-0.654968 c 5.496854,-0.903498 -1.484063,-1.244931 0,0 z m 6.998903,-0.35389 c 4.468781,0.484718 13.886846,-3.310802 4.109715,-2.164747 -0.622545,0.469097 -5.752857,0.687319 -4.109715,2.164747 z m -0.525078,-1.744592 c 2.973801,-7.641636 8.208334,-14.621342 9.805616,-19.153271 0.497782,-4.9694102 -5.422607,3.928253 -1.336082,-3.2820651 -0.594685,-2.3651497 -6.022857,9.9458161 -7.611618,12.9962621 -0.239243,3.344863 -2.98325,6.04916 -0.857916,9.439074 z m -0.343326,-4.725564 c -0.301444,-3.338088 0.861349,1.309739 0,0 z m 3.082638,-5.901771 c 2.180772,-6.699736 4.103007,-3.800313 0,0 z m 3.897052,6.700701 c 9.664987,-1.957575 -4.464684,-5.067005 0,0 z m -6.984688,-2.931637 c 1.530013,-1.311567 -1.216377,-0.173061 0,0 z m 10.283897,-2.693589 c 1.704641,-3.611843 -3.396048,0.416619 0,0 z m -9.509923,-1.065482 c 2.552995,-0.843638 -2.057638,-2.143572 0,0 z m 0.868989,-2.60153 c 2.031789,-2.495095 0.392924,-3.942273 0,0 z m 2.485471,-5.492414 c 2.760663,-2.9774199 -1.250706,0.23321 0,0 z m 2.029461,-3.4361002 c 2.107586,-2.6990128 -1.848859,1.5676454 0,0 z M 50.895498,4.42271 c -0.536359,-0.8759861 0.08112,1.39203 0,0 z M 50.302504,3.9539095 c 3.175313,-3.00227934 -1.910671,0.577408 0,0 z"
       id="path875" />
  </g>
  <g
     inkscape:groupmode="layer"
     id="layer2"
     inkscape:label="components" />
</svg>
